<svg xmlns="http://www.w3.org/2000/svg" xmlns:xlink="http://www.w3.org/1999/xlink" viewBox="0 0 807.73 788.33"><defs><style>.cls-1{isolation:isolate;}.cls-2{fill:#823230;}.cls-10,.cls-13,.cls-16,.cls-2,.cls-7,.cls-9{mix-blend-mode:multiply;}.cls-16,.cls-2{opacity:0.5;}.cls-3{fill:#f47d83;}.cls-4{fill:#c72b5b;}.cls-5{fill:#f7eee2;}.cls-6{fill:#c92e6a;}.cls-7{fill:#f2b4ca;}.cls-7,.cls-8{opacity:0.3;}.cls-11,.cls-8{fill:#fff;}.cls-8{mix-blend-mode:overlay;}.cls-16,.cls-9{fill:#e29aa9;}.cls-10,.cls-9{opacity:0.8;}.cls-10{fill:#ee9aa9;}.cls-12{fill:#f5a397;}.cls-13{fill:#cd2e55;opacity:0.78;}.cls-14{fill:url(#Áåçûìÿííûé_ãðàäèåíò_507);}.cls-15{fill:#6c0c45;}</style><linearGradient id="Áåçûìÿííûé_ãðàäèåíò_507" x1="320.12" y1="542.13" x2="320.12" y2="86.88" gradientUnits="userSpaceOnUse"><stop offset="0" stop-color="#f6bcca"/><stop offset="1" stop-color="#f7e8d3"/></linearGradient></defs><g class="cls-1"><g id="Layer_1" data-name="Layer 1"><path class="cls-2" d="M632.59,658.3l.89-.18c5.77-1.21,10.21-2.6,12.94-4.19a2.55,2.55,0,0,1,.5-.25c4.57-2.86,8.56-13.82,11.92-30.56,8.13-39.81,13-112.09,14.8-184.06.68-15.31,1-30.45.7-44.88a2.26,2.26,0,0,0,0-.26C674.84,311.25,671,238.51,663,228.8a.76.76,0,0,0-.09-.09l-.19-.19a15.09,15.09,0,0,0-4.59-3.05c-6.7-3.61-21.89-9.45-54.29-13.92-1.82-18.3-4.23-30.64-7.22-34.24l-.11-.11-.15-.15A14.86,14.86,0,0,0,591.7,174c-8.87-4.78-32.56-13.47-91.38-17.72-46.45-3.35-127.47-5.45-218.67,9.93-30.46,4.35-53.78,10.73-63.16,19.48-6.4,6-9.89,42-11,90.47v.13C205,391.65,216,577.08,232.88,593.56c2.22,2.16,6.47,4.12,12.36,5.9l.07.06c.63.28,4.43,1.88,13.44,4l.54,3.11h0c3.29,20.44,7,34.41,11.14,38.41,2.22,2.15,6.47,4.12,12.36,5.89l.07.07c2,.88,35.82,15.08,167.62,17.43,14.35.25,27.43.27,39.54.13C571.83,669.45,613.45,663,632.59,658.3Z"/><path class="cls-3" d="M583.44,551.23c-3.36,16.74-7.35,27.71-11.91,30.56a2.76,2.76,0,0,0-.51.25c-2.73,1.59-7.17,3-12.93,4.19l-.89.19c-25.49,5.32-76.2,7.6-129.39,7.16a30.27,30.27,0,0,1-3.3,0c-53-.57-108-3.87-142.64-9.7h-.06c-17.31-3-29.48-6.53-33.79-10.71a14.54,14.54,0,0,1-2.92-4.69C223,520,212.83,184.68,233.63,165.28,252.84,147.4,330.31,139.35,408,138.4h6.15c82.61-.57,163.69,6.72,173.45,18.51C603.92,176.63,602.84,456.26,583.44,551.23Z"/><path class="cls-4" d="M557.26,560.61c-2.91,11.42-6.21,18.9-9.83,21.18-3,1.84-8.17,3.42-15.15,4.75-21.8,4.44-61,6.72-104.47,7a30.27,30.27,0,0,1-3.3,0c-72.52.44-155.7-4.5-188.22-14.45l-.06-.07c-5.9-1.77-10.15-3.74-12.37-5.89-16.92-16.49-27.89-201.92-25.35-317.3v-.13c1.07-48.43,4.56-84.5,11-90.46C230.65,145.5,322.89,137.83,408,138.4h6.15c73.67.89,140.49,7.86,149.3,18.51C580.34,177.32,578.69,476.42,557.26,560.61Z"/><path class="cls-5" d="M241.78,151.56s163.64-30,321.64,5.35h24.14s-12.7-15-96.26-21C439.66,132.14,345.36,129.88,241.78,151.56Z"/><path class="cls-6" d="M571.53,581.79a2.76,2.76,0,0,0-.51.25,76,76,0,0,1-12.93,4.19l-.89.19c-20,4.88-64.28,11.72-153.29,10.14-131.8-2.35-165.59-16.55-167.62-17.43l-.06-.07s17.62,2.28,45.58,4.82h.06c39.05,3.55,98.26,7.61,157.79,6.66,4.82-.07,9.45-.19,13.95-.32,23.39-.51,42.6-1.33,58.13-2.22h.32c7.61-.51,14.33-1,20.22-1.46C561.32,584.2,571.53,581.79,571.53,581.79Z"/><path class="cls-7" d="M229.09,176.26c-24.56,13.86-7.46,229,37,296.69S529,396,556.72,329.61,546,176.73,509.92,156.91,255.77,161.21,229.09,176.26Z"/><path class="cls-8" d="M354.57,587.92c-62.47-18,176.33-151.31,197-159.17s11.21,132.25-3.8,150.32S354.57,587.92,354.57,587.92Z"/><path class="cls-9" d="M574.86,156.91c-6.08,0,3.67,106.9,0,233s-9.57,151.35-3.32,156.15,29.2-125.79,27.4-223.8-8.22-159.38-11.38-161.18S574.86,156.91,574.86,156.91Z"/><path class="cls-10" d="M583.44,551.23c-3.36,16.74-7.35,27.71-11.91,30.56a2.76,2.76,0,0,0-.51.25c-2.73,1.59-7.17,3-12.93,4.19l-.89.19c-20,4.88-64.28,11.72-153.29,10.14-131.8-2.35-165.59-16.55-167.62-17.43l-.06-.07c-5.9-1.77-10.15-3.74-12.37-5.89-16.92-16.49-27.89-201.92-25.35-317.3,1.39,50.21,8,252.51,23.77,292.32,3.23,8.18,11.28,14.9,22.82,20.29C269.64,580,310,585.72,353.57,587.62c20,.82,40.7.89,60.86.32,54.33-1.52,108.28-16.1,140.17-26.44.89-.32,1.77-.57,2.66-.89C572.86,555.48,582.56,551.61,583.44,551.23Z"/><path class="cls-11" d="M453.83,144.81c-35.11,2.5-6.37,43.84,23.66,59.45s57-38.38,61.46-47.35S475.08,143.3,453.83,144.81Z"/><path class="cls-3" d="M554.62,551.23c-3.36,16.74-7.36,27.71-11.92,30.56a2.76,2.76,0,0,0-.51.25c-2.73,1.59-7.16,3-12.93,4.19l-.89.19c-25.49,5.32-76.2,7.6-129.39,7.16a30.27,30.27,0,0,1-3.3,0c-53-.57-108-3.87-142.64-9.7H253c-17.31-3-29.48-6.53-33.79-10.71a14.72,14.72,0,0,1-2.92-4.69C194.21,520,184,184.68,204.8,165.28,224,147.4,301.48,139.35,379.14,138.4h6.15c82.6-.57,163.68,6.72,173.45,18.51C575.09,176.63,574,456.26,554.62,551.23Z"/><path class="cls-12" d="M528.43,560.61c-2.91,11.42-6.21,18.9-9.82,21.18-3,1.84-8.18,3.42-15.15,4.75-21.81,4.44-61,6.72-104.48,7a30.27,30.27,0,0,1-3.3,0c-72.52.44-155.7-4.5-188.22-14.45l-.06-.07c-5.9-1.77-10.15-3.74-12.36-5.89-16.93-16.49-27.9-201.92-25.36-317.3v-.13c1.07-48.43,4.56-84.5,11-90.46,21.18-19.78,113.42-27.45,198.5-26.88h6.15c73.66.89,140.48,7.86,149.29,18.51C551.51,177.32,549.86,476.42,528.43,560.61Z"/><path class="cls-5" d="M213,151.56s163.64-30,321.65,5.35h24.13s-12.7-15-96.26-21C410.84,132.14,316.53,129.88,213,151.56Z"/><path class="cls-6" d="M542.7,581.79a2.76,2.76,0,0,0-.51.25,76,76,0,0,1-12.93,4.19l-.89.19c-20,4.88-64.28,11.72-153.29,10.14-131.8-2.35-165.59-16.55-167.62-17.43l-.06-.07S225,581.34,253,583.88H253c39,3.55,98.27,7.61,157.79,6.66,4.82-.07,9.45-.19,13.95-.32,23.39-.51,42.6-1.33,58.14-2.22h.31c7.61-.51,14.33-1,20.23-1.46C532.49,584.2,542.7,581.79,542.7,581.79Z"/><path class="cls-7" d="M200.27,176.26c-24.57,13.86-7.46,229,37,296.69s263-76.94,290.64-143.34-10.76-152.88-46.8-172.7S227,161.21,200.27,176.26Z"/><path class="cls-8" d="M325.74,587.92c-62.46-18,176.33-151.31,197-159.17s11.21,132.25-3.8,150.32S325.74,587.92,325.74,587.92Z"/><path class="cls-9" d="M546,156.91c-6.08,0,3.67,106.9,0,233s-9.57,151.35-3.32,156.15,29.2-125.79,27.4-223.8-8.22-159.38-11.38-161.18S546,156.91,546,156.91Z"/><path class="cls-10" d="M554.62,551.23c-3.36,16.74-7.36,27.71-11.92,30.56a2.76,2.76,0,0,0-.51.25c-2.73,1.59-7.16,3-12.93,4.19l-.89.19c-20,4.88-64.28,11.72-153.29,10.14-131.8-2.35-165.59-16.55-167.62-17.43l-.06-.07c-5.9-1.77-10.15-3.74-12.36-5.89-16.93-16.49-27.9-201.92-25.36-317.3,1.39,50.21,8,252.51,23.77,292.32,3.23,8.18,11.29,14.9,22.82,20.29,24.54,11.53,64.86,17.24,108.47,19.14,20,.82,40.7.89,60.86.32,54.33-1.52,108.28-16.1,140.17-26.44.89-.32,1.78-.57,2.66-.89C544,555.48,553.73,551.61,554.62,551.23Z"/><path class="cls-11" d="M425,144.81c-35.11,2.5-6.37,43.84,23.66,59.45s57-38.38,61.46-47.35S446.26,143.3,425,144.81Z"/><path class="cls-13" d="M183.89,534.76s126.2,31,230.78,28.52c113.76-2.67,115.79-27.52,122.67-80.6,4.54-35,7.09-259.65,4.35-292.71s-14.33-36.06-14.33-36.06L181.64,521.67Z"/><path class="cls-3" d="M517.06,499.74c-3.36,16.74-7.35,27.7-11.91,30.56a2.44,2.44,0,0,0-.51.25c-2.73,1.58-7.16,3-12.93,4.18l-.89.19c-25.49,5.33-76.2,7.61-129.39,7.17a30.27,30.27,0,0,1-3.3,0c-53-.57-108-3.87-142.64-9.7h-.06c-17.31-3-29.48-6.53-33.79-10.72a14.43,14.43,0,0,1-2.92-4.69c-22.06-48.5-32.27-383.8-11.47-403.19,19.2-17.88,96.67-25.93,174.33-26.89h6.15c82.61-.57,163.69,6.72,173.45,18.52C537.54,125.13,536.46,404.77,517.06,499.74Z"/><path class="cls-14" d="M490.88,509.12c-2.91,11.41-6.21,18.89-9.82,21.18-3,1.83-8.18,3.42-15.16,4.75-21.8,4.44-61,6.72-104.47,7a30.27,30.27,0,0,1-3.3,0c-72.52.44-155.7-4.5-188.22-14.46l-.07-.06c-5.89-1.78-10.14-3.74-12.36-5.9-16.92-16.48-27.89-201.91-25.36-317.29v-.13c1.08-48.43,4.57-84.51,11-90.46C164.27,94,256.51,86.33,341.58,86.9h6.15c73.67.89,140.49,7.87,149.3,18.52C514,125.83,512.31,424.93,490.88,509.12Z"/><path class="cls-5" d="M175.4,100.07S339,70.07,497,105.42h24.13s-12.7-15-96.25-21C373.28,80.64,279,78.39,175.4,100.07Z"/><path class="cls-6" d="M505.15,530.3a2.44,2.44,0,0,0-.51.25,76.45,76.45,0,0,1-12.93,4.18l-.89.19c-20,4.89-64.28,11.73-153.29,10.15-131.8-2.35-165.59-16.55-167.62-17.44l-.07-.06s17.63,2.28,45.59,4.82h.06c39,3.55,98.26,7.6,157.79,6.65,4.82-.06,9.45-.19,14-.31,23.39-.51,42.6-1.33,58.13-2.22h.32c7.61-.51,14.33-1,20.22-1.46C494.94,532.7,505.15,530.3,505.15,530.3Z"/><path class="cls-7" d="M162.72,124.77c-24.57,13.86-7.47,229,37,296.69s263-76.95,290.64-143.34-10.77-152.89-46.8-172.7S189.39,109.72,162.72,124.77Z"/><path class="cls-15" d="M236.49,269l.07-.09c20.18-25.83,55.75-51.33,81.37-66.79,0,0,79.78,56.89,89.7,104.38-.07.09.09.07.09.07,2.55,12.24.37,23.79-9.06,33.67-45.78,47.86-82.81-12-83.2-32.64,0,0-16.87,73.29-70.89,37.94C219.07,328.72,218.39,292.15,236.49,269Z"/><path class="cls-15" d="M315.46,307.56s3.07,77.64-49.37,102.32h92.55S313.42,380.06,315.46,307.56Z"/><path class="cls-8" d="M319.19,211.75c-11.15-3.56-69.82,36.48-76.8,68.7s53,18.9,70,21.44,51.26,38.18,76.65,25.44S364.89,226.35,319.19,211.75Z"/><path class="cls-11" d="M347.28,232.34c-15.75-5.71,1.63,24.11,10.15,24.41S360.36,237.09,347.28,232.34Z"/><path class="cls-8" d="M288.19,536.43c-62.47-18,176.33-151.31,197-159.17s11.21,132.25-3.8,150.32S288.19,536.43,288.19,536.43Z"/><path class="cls-16" d="M508.47,105.42c-6.07,0,3.68,106.9,0,233s-9.56,151.35-3.31,156.15,29.2-125.8,27.4-223.8-8.22-159.38-11.39-161.18S508.47,105.42,508.47,105.42Z"/><path class="cls-10" d="M517.06,499.74c-3.36,16.74-7.35,27.7-11.91,30.56a2.44,2.44,0,0,0-.51.25c-2.73,1.58-7.16,3-12.93,4.18l-.89.19c-20,4.89-64.28,11.73-153.29,10.15-131.8-2.35-165.59-16.55-167.62-17.44l-.07-.06c-5.89-1.78-10.14-3.74-12.36-5.9-16.92-16.48-27.89-201.91-25.36-317.29,1.4,50.21,8,252.5,23.78,292.32,3.23,8.17,11.28,14.89,22.82,20.28,24.54,11.54,64.86,17.25,108.47,19.15,20,.82,40.7.89,60.86.31,54.33-1.52,108.28-16.1,140.17-26.43.89-.32,1.77-.57,2.66-.89C506.48,504,516.18,500.12,517.06,499.74Z"/><path class="cls-11" d="M387.45,93.32c-35.11,2.5-6.37,43.84,23.66,59.45s57-38.38,61.46-47.35S408.7,91.8,387.45,93.32Z"/></g></g></svg>