<svg xmlns="http://www.w3.org/2000/svg" xmlns:xlink="http://www.w3.org/1999/xlink" viewBox="0 0 807.73 788.33"><defs><style>.cls-1{isolation:isolate;}.cls-2{fill:#823230;}.cls-13,.cls-15,.cls-19,.cls-2,.cls-20,.cls-21,.cls-23,.cls-7{mix-blend-mode:multiply;}.cls-14,.cls-15,.cls-19,.cls-2,.cls-20,.cls-21,.cls-23{opacity:0.5;}.cls-3{fill:url(#Áåçûìÿííûé_ãðàäèåíò_557);}.cls-4{fill:url(#Áåçûìÿííûé_ãðàäèåíò_557-2);}.cls-5{fill:url(#Áåçûìÿííûé_ãðàäèåíò_140);}.cls-6{fill:url(#Áåçûìÿííûé_ãðàäèåíò_140-2);}.cls-7{fill:#f54c74;opacity:0.2;}.cls-8{fill:url(#Áåçûìÿííûé_ãðàäèåíò_558);}.cls-9{fill:url(#Áåçûìÿííûé_ãðàäèåíò_554);}.cls-10{fill:url(#Áåçûìÿííûé_ãðàäèåíò_140-3);}.cls-11{fill:url(#Áåçûìÿííûé_ãðàäèåíò_554-2);}.cls-12{fill:url(#Áåçûìÿííûé_ãðàäèåíò_560);}.cls-13,.cls-15{fill:#de5155;}.cls-13,.cls-25{opacity:0.3;}.cls-14,.cls-22{fill:#fa4511;mix-blend-mode:screen;}.cls-16,.cls-17,.cls-25{fill:#fff;}.cls-16,.cls-25{mix-blend-mode:soft-light;}.cls-18{fill:#f6e861;}.cls-20{fill:#e56d8d;}.cls-21{fill:#be2e55;}.cls-23{fill:#e42f55;}.cls-24{fill:url(#Áåçûìÿííûé_ãðàäèåíò_533);}.cls-26{fill:url(#Áåçûìÿííûé_ãðàäèåíò_140-4);}.cls-27{fill:url(#Áåçûìÿííûé_ãðàäèåíò_554-3);}.cls-28{fill:url(#Áåçûìÿííûé_ãðàäèåíò_554-4);}</style><linearGradient id="Áåçûìÿííûé_ãðàäèåíò_557" x1="472.91" y1="345.38" x2="642.13" y2="345.38" gradientUnits="userSpaceOnUse"><stop offset="0" stop-color="#f59311"/><stop offset="0.45" stop-color="#f26a11"/><stop offset="1" stop-color="#f23f0e"/></linearGradient><linearGradient id="Áåçûìÿííûé_ãðàäèåíò_557-2" x1="-9738.17" y1="345.38" x2="-9568.99" y2="345.38" gradientTransform="matrix(-1, 0, 0, 1, -9432.97, 0)" xlink:href="#Áåçûìÿííûé_ãðàäèåíò_557"/><linearGradient id="Áåçûìÿííûé_ãðàäèåíò_140" x1="564.78" y1="454.16" x2="564.78" y2="253.51" gradientUnits="userSpaceOnUse"><stop offset="0" stop-color="#f79610"/><stop offset="1" stop-color="#faa90d"/></linearGradient><linearGradient id="Áåçûìÿííûé_ãðàäèåíò_140-2" x1="212.89" y1="454.13" x2="212.89" y2="253.53" xlink:href="#Áåçûìÿííûé_ãðàäèåíò_140"/><linearGradient id="Áåçûìÿííûé_ãðàäèåíò_558" x1="136.68" y1="259.02" x2="247.3" y2="259.02" gradientUnits="userSpaceOnUse"><stop offset="0" stop-color="#f7e831"/><stop offset="1" stop-color="#fdcd12"/></linearGradient><linearGradient id="Áåçûìÿííûé_ãðàäèåíò_554" x1="535.3" y1="254.61" x2="636.18" y2="254.61" gradientUnits="userSpaceOnUse"><stop offset="0" stop-color="#fdcd12"/><stop offset="1" stop-color="#f7e831"/></linearGradient><linearGradient id="Áåçûìÿííûé_ãðàäèåíò_140-3" x1="242.47" y1="423.02" x2="545.3" y2="423.02" xlink:href="#Áåçûìÿííûé_ãðàäèåíò_140"/><linearGradient id="Áåçûìÿííûé_ãðàäèåíò_554-2" x1="241.7" y1="233.53" x2="545.26" y2="233.53" xlink:href="#Áåçûìÿííûé_ãðàäèåíò_554"/><linearGradient id="Áåçûìÿííûé_ãðàäèåíò_560" x1="80.96" y1="395.5" x2="299.83" y2="395.5" gradientTransform="matrix(1.04, -0.03, 0.03, 1, 186.67, -157.59)" gradientUnits="userSpaceOnUse"><stop offset="0" stop-color="#f23f0e"/><stop offset="0.55" stop-color="#f26a11"/><stop offset="1" stop-color="#f59311"/></linearGradient><linearGradient id="Áåçûìÿííûé_ãðàäèåíò_533" x1="393.13" y1="471" x2="393.13" y2="332.59" gradientTransform="translate(0 -27.23) scale(1 0.96)" gradientUnits="userSpaceOnUse"><stop offset="0.04" stop-color="#ed6310"/><stop offset="1" stop-color="#e13e09"/></linearGradient><linearGradient id="Áåçûìÿííûé_ãðàäèåíò_140-4" x1="389.59" y1="401.28" x2="389.59" y2="310.7" xlink:href="#Áåçûìÿííûé_ãðàäèåíò_140"/><linearGradient id="Áåçûìÿííûé_ãðàäèåíò_554-3" x1="369.92" y1="320.37" x2="407.06" y2="320.37" xlink:href="#Áåçûìÿííûé_ãðàäèåíò_554"/><linearGradient id="Áåçûìÿííûé_ãðàäèåíò_554-4" x1="338.2" y1="405.59" x2="452.96" y2="405.59" xlink:href="#Áåçûìÿííûé_ãðàäèåíò_554"/></defs><g class="cls-1"><g id="Layer_1" data-name="Layer 1"><path class="cls-2" d="M627.11,472.8c3.53-.32,6.76-.72,9.85-1.16,19.68-2.61,37.89-8.25,47.12-21.16,22.12-30.92,49.59-118.34,10.28-137.39-17.19-20.82-90.57-18.32-90.57-18.32l-.15.48c-.48-4.49-4.39-9.4-12.56-14.75-80.43-52.65-252.38-29.77-286.39,8-4.58,5.08-5.45,9.66-3.4,13.77l-.33-.06s0,.24.09.58l-.11-.59s-71.82-9-102.26,11.71c-37,20.59-10,106.08,11.86,136.57,6.82,9.53,18.56,15.1,32.15,18.41l.5.24c14.51,4.77,69.78,5.75,84,6.83l.09,0a17.57,17.57,0,0,1,4.91,1.64c15.14,8.59,2.29,28.41,8.54,31.92a2.79,2.79,0,0,0,1.12.36h.05a19.43,19.43,0,0,0,2-.21h0c7.47-2.13,20.28-17.74,18.2-32.12a.29.29,0,0,1,0-.09c28.5,23.18,69.86,50.31,76.21,90.26,2,12.6-.51,22.36-5.6,30-14.94,22.77-52.14,26.73-57.84,30.7-7.52,5.28-14.74,23.68-14.74,23.68a626.89,626.89,0,0,0,86.56,5.9c6.3,0,12.42-.1,18.32-.28h0c2.11,0,4.57-.13,7.26-.26a611.43,611.43,0,0,0,61.49-5.37s-6.86-17.48-14.18-23.28l-.56-.4c-5.64-3.92-40.87-7.78-55.76-29.69-5.33-7.77-8.08-17.89-5.94-31,6.42-40.17,47.18-67.38,75.18-90.64a22.17,22.17,0,0,0,1.55,13.2c2.75,7.65,8.18,14.32,12.94,17.55l0,0h0c2.72,1.84,5.22,2.57,6.84,1.67,5.66-3.16-4.26-19.72,5-29.18C571.62,471.65,591.66,476,627.11,472.8ZM316.42,384.12c5.49,24.31,12,48.3,18.7,62.88-28.12-3.21-71.35-5.95-86.74-31.31-9.83-16.18-12.29-44.19-7.54-64.3,2.49-9.53,6.8-18.21,14.62-22.77a13.85,13.85,0,0,1,5.59-1c18.56,2.51,21.4,16.82,23.09,32.68C285.93,377.15,310.58,383,316.42,384.12Zm310.45-54.81a30.15,30.15,0,0,1,6.63-1.67c25.38-1.56,30,60.46,13.23,88.05-15.61,25.7-59.81,28.17-87.89,31.45.79-1.62,1.6-3.37,2.41-5.21a42.41,42.41,0,0,0,1.91-4.42h0c2.45-5.89,5-12.59,7.45-19.83.15-.45.3-.86.46-1.27.2-.66.45-1.27.61-1.78,3.33-9.83,6.66-20.52,9.84-31.27h0c8.81-2.19,27.42-8.5,29-23.05,1.17-10.91,2.89-21.1,9.92-27.22,0,0,0,.06-.06.1A34.14,34.14,0,0,1,626.87,329.31Zm48.85-20q-9.27-.15-17.47.33a33.47,33.47,0,0,1,3.57-.21s-.08-.11-.21-.26A113.3,113.3,0,0,1,675.72,309.35Z"/><path class="cls-3" d="M561.85,277.42c36.64-27.07,45.73,50.67,26.39,82.5-18.62,30.65-77.9,28.27-102,33.6S477.93,430,477.93,430l147-47.32,17.23-98.42-52.64-23.44S569.16,265.05,561.85,277.42Z"/><path class="cls-4" d="M216.31,277.42c-36.64-27.07-45.75,50.67-26.42,82.5,18.61,30.65,77.89,28.27,102,33.6,23.95,5.3,8.3,36.45,8.3,36.45l-147-47.32L136,284.23l52.65-23.44S209,265.05,216.31,277.42Z"/><path class="cls-5" d="M530.35,273.56s26.46-21.52,89-20,31,106.6,6.27,141.12C601.91,427.82,519.28,413.2,504,421.86c-15.13,8.57-2.3,28.43-8.55,31.91s-25.53-16.92-20.92-34.29c4.71-17.76,91.75-27.81,122.8-56.17,32.16-29.38,22-87.38-6.41-91.16-33-4.4-36.81,12.85-38.9,32.39-2,19.11-33.56,24-33.56,24Z"/><path class="cls-6" d="M285.47,453.92h-.05a16.85,16.85,0,0,1-2,.21h-.05a2.51,2.51,0,0,1-1.12-.36c-6.25-3.5,6.61-23.33-8.54-31.92-15.3-8.64-98,5.95-121.63-27.14-24.7-34.51-56.11-139.57,6.25-141.1,62.52-1.57,89,19.93,89,19.93l11.89,55s-31.51-4.93-33.54-24c-2.09-19.57-5.9-36.8-38.89-32.37-28.41,3.76-38.57,61.75-6.4,91.13,31.06,28.36,118.07,38.43,122.8,56.16.2.77.35,1.58.51,2.34C305.75,436.19,292.94,451.79,285.47,453.92Z"/><path class="cls-7" d="M496.65,427.78c-7.77-12,49.14-38.2,81.36-42.81,32.4-4.64,41.59,9.64,41.35,13.12S608,413.5,568.62,417C529.42,420.54,509,414.82,496.65,427.78Z"/><path class="cls-7" d="M184.7,413.36c-40.14-17.88,39.48-21.95,73.14-12.92,33.29,8.93,30.5,29,26.65,29.53s-1.63-8.69-15.81-9.77S199.21,418.13,184.7,413.36Z"/><path class="cls-8" d="M136.68,260.79c28-24.11,105.77-14.36,105.77-14.36l4.85,27.13S168.41,241.07,136.68,260.79Z"/><path class="cls-9" d="M545.31,239s74.21-2.53,90.87,18.66c0,0-31.24-15.81-100.88,12.66Z"/><path class="cls-10" d="M545.3,243.75s-16,67.45-32.12,115.13c-.15.51-.41,1.12-.61,1.78-.15.4-.31.81-.46,1.27-5.49,15.91-11,29.38-15.86,36.85C477.5,427.7,407.46,458.25,398.87,512c-2.14,13.16.61,23.28,5.94,31.06,14.9,21.9,50.12,25.76,55.76,29.68.21.15.36.25.56.41,7.32,5.79,14.18,23.27,14.18,23.27a639.35,639.35,0,0,1-87.07,5.9,626.89,626.89,0,0,1-86.56-5.9s7.22-18.4,14.75-23.68c5.69-4,42.89-7.93,57.84-30.7,5.08-7.68,7.57-17.44,5.59-30-8.54-53.72-80.41-84.27-99.17-113.19-10.92-16.78-21.55-62.42-28.87-99.42-5.74-29.13-9.35-52.91-9.35-52.91l147,23.48Z"/><path class="cls-11" d="M246.2,232.73c34-37.77,206-60.65,286.4-8C623.49,284.23,193.46,291.3,246.2,232.73Z"/><path class="cls-12" d="M286.71,238c30.19,26.14,188.14,26.1,219.38-.32,21.17-17.89-46-33.33-112.86-32.68C329.22,205.66,267.72,221.59,286.71,238Z"/><path class="cls-13" d="M512.11,361.93c-5.49,15.91-11,29.38-15.86,36.85C477.5,427.7,407.46,458.25,398.87,512c-2.14,13.16.61,23.28,5.94,31.06-15.7,16.46-23.63,11.74-30.54-1,5.08-7.68,7.57-17.44,5.59-30-8.54-53.72-80.41-84.27-99.17-113.19-10.92-16.78-21.55-62.42-28.87-99.42l.71-1.63s12.41,107.45,97,132.26C433.13,454.43,498.85,398.22,512.11,361.93Z"/><path class="cls-14" d="M306.64,416.8c3.41-7.5,41.83,23.4,75.33,33.35s6.46,32.72-6,29.22S313.7,424.22,306.64,416.8Z"/><path class="cls-15" d="M475.31,596.39a639.35,639.35,0,0,1-87.07,5.9,626.89,626.89,0,0,1-86.56-5.9s7.22-18.4,14.75-23.68c-3.82,16.26,122.79,3.81,144.7.41C468.45,578.91,475.31,596.39,475.31,596.39Z"/><path class="cls-15" d="M406.56,602c-21.94-3.87-25.09-15.45-12.67-21.49,7.47-3.64,23.29-3,36.44-3.9,35-2.49,40.33,17.75,39.55,19.18S424.88,601.75,406.56,602Z"/><path class="cls-14" d="M349,580.83c-2.24-.05-4.17,16.25-1.61,18.27s25.69,2.69,29.53,2.92,8-17.45,11.56-19.93S349,580.83,349,580.83Z"/><path class="cls-16" d="M342.52,579.44c-13-.55,6.74-18.05,35.39-18.05s40.21,8.44,40.93,11.32S376.7,580.89,342.52,579.44Z"/><path class="cls-14" d="M266.67,260.79c-8.65-3.06-3.54,146.14,82.84,169.2S506,315.45,512.11,287.46s-98.44-2.87-165.92-13.5S266.67,260.79,266.67,260.79Z"/><path class="cls-14" d="M452.64,211.32c-52.58,4.49-44.24,37.15-36.53,43.29s77-7.7,87.31-21.65S452.64,211.32,452.64,211.32Z"/><path class="cls-17" d="M452.64,211.32c-21.21,4.26,4.26,23,14.68,22.39s21.56-15.19,13.71-17S452.64,211.32,452.64,211.32Z"/><path class="cls-7" d="M591.7,257.59c-3.85,3.81,23.12,15.36,30.18,52s32.1,4.81,30.82-22.15S619,251.85,591.7,257.59Z"/><path class="cls-7" d="M127.52,310.8c1.49,24.05,18.78,35.26,22.15,34.58s-2.89-60.06,38.52-80.13c17.64-8.55-48.26-6.09-54.42,0S126.07,287.5,127.52,310.8Z"/><path class="cls-17" d="M292.63,279.17c-14.76,7.07,1.93,28.44,9,27.06S307.4,272.11,292.63,279.17Z"/><path class="cls-18" d="M261.35,259s140.25,20.11,234.58,5.71C495.93,264.73,363.89,287.46,261.35,259Z"/><g class="cls-19"><path class="cls-20" d="M511.12,324.68a18.73,18.73,0,0,1-1.39,4.26c-5.75,12.5-25.82,26.43-36.88,20.64a12.12,12.12,0,0,1-6.62-8.66v-.05c-2.75-12.8,9.66-33.65,17.33-45.93C493.48,279.09,513.51,311.35,511.12,324.68Z"/><path class="cls-20" d="M459.35,363.25A82,82,0,0,1,456.08,377c-3.74,12-15.59,3.27-18.9-6.18a13.45,13.45,0,0,1-.91-4.75c0-10.62,10.71-19.94,19.81-15.15C459.22,352.54,460.13,356.85,459.35,363.25Z"/><path class="cls-20" d="M511.12,324.68a18.73,18.73,0,0,1-1.39,4.26l-.83.18s.78-3.83-2.79-14.55-12.8-23.2-23.08-14c-10.1,9.1-16.59,39.41-16.8,40.32-2.75-12.8,9.66-33.65,17.33-45.93C493.48,279.09,513.51,311.35,511.12,324.68Z"/><path class="cls-20" d="M459.35,363.25s-7.49-13.54-14.81-10.49-7.36,18.07-7.36,18.07a13.45,13.45,0,0,1-.91-4.75c0-10.62,10.71-19.94,19.81-15.15C459.22,352.54,460.13,356.85,459.35,363.25Z"/></g><path class="cls-15" d="M523,327.6s17.17-8.42,25.84-22.87-5.92-51.22-5.92-51.22Z"/><path class="cls-15" d="M244.15,255.9s-2.44,12.74-5.36,14.42-14.28,25.86-8.6,39.77,29,18.49,29,18.49S247.62,286.51,244.15,255.9Z"/><path class="cls-21" d="M160.66,310.09c2.46,24.85,10.21,28.51,15.49,26.67s-2.63-54.07,23.36-65.2C199.51,271.56,161.78,269,160.66,310.09Z"/><path class="cls-21" d="M585.74,273.19c.68,3.12,20.54,28.75,20.41,54.41s16.79-26.08,3-42.65S585.74,273.19,585.74,273.19Z"/><path class="cls-22" d="M177.91,366.25c-12.7-2.56,8,28.56,33.06,29.57s32.95,0,32.95,0S185.3,367.74,177.91,366.25Z"/><path class="cls-22" d="M551.6,386.93s44-.55,54.23-5.74,11.35-26.08,8.72-27.35-12.89,10.6-32.8,20.23S551.6,386.93,551.6,386.93Z"/><path class="cls-17" d="M564.78,260.75c-6.92,1.71-5-12,15.37-14.12,16.69-1.77,23.18,7.07,23.18,7.07S594.68,253.36,564.78,260.75Z"/><path class="cls-17" d="M186.94,256.37c-8.7-5.57,55.49-3.55,36.4,8.76A192,192,0,0,0,186.94,256.37Z"/><path class="cls-17" d="M349,580.83c-11.33-1.08,8.68-13.81,22.79-8.12S374.74,583.29,349,580.83Z"/><path class="cls-17" d="M566.55,381.19c-1.53,2.16,15.68,1.55,19.86-6.32S569.81,376.59,566.55,381.19Z"/><path class="cls-17" d="M230.19,388.38c.48,3.13-24.65-1.9-23.68-7.19S229.57,384.39,230.19,388.38Z"/><path class="cls-23" d="M474.5,419.48c16.67-14.13,14.08,32.63,14.08,32.63S469.2,435.44,474.5,419.48Z"/><path class="cls-23" d="M285.47,453.92h-.05a16.85,16.85,0,0,1-2,.21h-.05c-1-5.29,9.65-37.46,20.33-32.33C305.75,436.19,292.94,451.79,285.47,453.92Z"/><path class="cls-21" d="M283.28,232.35c1.21-9,47.12-26.17,75.05-21s54.09,38.55,52.08,42.33S297.47,260.13,283.28,232.35Z"/><path class="cls-15" d="M418.85,463.09c-10.51.61-23.83-11.59-15.58-18.71C417,432.5,463,421,479,405.91l25.64-24.17s-5.91,17.69-26.94,35.66S424.15,462.78,418.85,463.09Z"/><path class="cls-24" d="M457.46,354.7c1.31,37.25-27.47,68.59-64.33,68.59S327.49,392,328.81,354.7c1.25-35.8,30-63.8,64.32-63.8S456.19,318.9,457.46,354.7Z"/><path class="cls-25" d="M334.29,378.19c5.95-23.78,115-40.26,120.74-34.14s-6.8,72.94-59.86,73.57S332.65,384.73,334.29,378.19Z"/><path class="cls-26" d="M369.92,331.66s7.72.47,13.79-16.73c0,0,11.58-6.17,23.35-3.6l2.21,89.95H381.79l-1.94-52.07-9.93-1.1Z"/><path class="cls-27" d="M369.92,331.66l.81-3.33a21.18,21.18,0,0,0,11.46-15.69s15.54-7,24.87-1.31c0,0-11.85-2.24-22.4,3.6C384.66,314.93,380,330.58,369.92,331.66Z"/><path class="cls-21" d="M328.81,354.7s14.41-55.92,66.4-55.92c49.23,0,61.09,43.32,61.09,43.32s-8.7-52.67-64.77-51.2S328.75,348.66,328.81,354.7Z"/><path class="cls-28" d="M338.2,391.64s18.86,33.42,59.07,31.65S453,381.58,453,381.58s-18.81,47.91-57.75,48S338.2,391.64,338.2,391.64Z"/></g></g></svg>