<svg xmlns="http://www.w3.org/2000/svg" xmlns:xlink="http://www.w3.org/1999/xlink" viewBox="0 0 807.73 788.33"><defs><style>.cls-1{isolation:isolate;}.cls-2{fill:#823230;}.cls-14,.cls-19,.cls-2,.cls-26,.cls-29,.cls-30,.cls-32,.cls-35,.cls-36,.cls-8,.cls-9{mix-blend-mode:multiply;}.cls-14,.cls-19,.cls-2,.cls-29,.cls-32,.cls-35{opacity:0.5;}.cls-3{fill:url(#Áåçûìÿííûé_ãðàäèåíò_197);}.cls-4{fill:url(#Áåçûìÿííûé_ãðàäèåíò_696);}.cls-5{fill:url(#Áåçûìÿííûé_ãðàäèåíò_197-2);}.cls-6{fill:url(#Áåçûìÿííûé_ãðàäèåíò_696-2);}.cls-7{fill:url(#Áåçûìÿííûé_ãðàäèåíò_227);}.cls-8{fill:#900e56;}.cls-26,.cls-30,.cls-36,.cls-8{opacity:0.3;}.cls-9{fill:#da1554;opacity:0.2;}.cls-10{fill:#8a7ebb;}.cls-11{fill:url(#Áåçûìÿííûé_ãðàäèåíò_38);}.cls-12{fill:#6458a7;}.cls-13{fill:#594ea2;}.cls-14{fill:#6e3b66;}.cls-15{fill:#fff;mix-blend-mode:soft-light;}.cls-16{fill:url(#Áåçûìÿííûé_ãðàäèåíò_638);}.cls-17{fill:url(#Áåçûìÿííûé_ãðàäèåíò_638-2);}.cls-18{fill:url(#Áåçûìÿííûé_ãðàäèåíò_38-2);}.cls-19,.cls-36{fill:#811367;}.cls-20{fill:url(#Áåçûìÿííûé_ãðàäèåíò_638-3);}.cls-21{fill:url(#Áåçûìÿííûé_ãðàäèåíò_676);}.cls-22{fill:url(#Áåçûìÿííûé_ãðàäèåíò_638-4);}.cls-23{fill:url(#Áåçûìÿííûé_ãðàäèåíò_638-5);}.cls-24{fill:url(#Áåçûìÿííûé_ãðàäèåíò_676-2);}.cls-25{fill:url(#Áåçûìÿííûé_ãðàäèåíò_638-6);}.cls-26{fill:#912674;}.cls-27{fill:#f44e90;}.cls-28{fill:url(#Áåçûìÿííûé_ãðàäèåíò_222);}.cls-29,.cls-30{fill:#9d1366;}.cls-31{fill:#f35b9e;}.cls-32{fill:#d42e55;}.cls-33{fill:#f8f255;}.cls-34{fill:#920e67;}.cls-35{fill:#9a1366;}</style><linearGradient id="Áåçûìÿííûé_ãðàäèåíò_197" x1="350.55" y1="635.47" x2="218.11" y2="321.4" gradientUnits="userSpaceOnUse"><stop offset="0" stop-color="#4b2a90"/><stop offset="1" stop-color="#672b91"/></linearGradient><linearGradient id="Áåçûìÿííûé_ãðàäèåíò_696" x1="408.48" y1="508.76" x2="584.39" y2="508.76" gradientUnits="userSpaceOnUse"><stop offset="0" stop-color="#3a0e82"/><stop offset="1" stop-color="#620d81"/></linearGradient><linearGradient id="Áåçûìÿííûé_ãðàäèåíò_197-2" x1="394.15" y1="617.04" x2="261.74" y2="303.03" xlink:href="#Áåçûìÿííûé_ãðàäèåíò_197"/><linearGradient id="Áåçûìÿííûé_ãðàäèåíò_696-2" x1="428.2" y1="384.27" x2="605.06" y2="384.27" xlink:href="#Áåçûìÿííûé_ãðàäèåíò_696"/><linearGradient id="Áåçûìÿííûé_ãðàäèåíò_227" x1="145.4" y1="308.74" x2="604.91" y2="308.74" gradientUnits="userSpaceOnUse"><stop offset="0.04" stop-color="#928ec3"/><stop offset="1" stop-color="#6a55a6"/></linearGradient><linearGradient id="Áåçûìÿííûé_ãðàäèåíò_38" x1="208.25" y1="-526.5" x2="197.97" y2="-673.41" gradientTransform="translate(-50.92 735.74) rotate(11.31)" gradientUnits="userSpaceOnUse"><stop offset="0" stop-color="#faac13"/><stop offset="0.63" stop-color="#f88111"/><stop offset="0.7" stop-color="#f9a40e"/><stop offset="1" stop-color="#f7ba0e"/></linearGradient><linearGradient id="Áåçûìÿííûé_ãðàäèåíò_638" x1="315.38" y1="623.33" x2="315.38" y2="295.59" gradientUnits="userSpaceOnUse"><stop offset="0" stop-color="#df107e"/><stop offset="1" stop-color="#f70f3c"/></linearGradient><linearGradient id="Áåçûìÿííûé_ãðàäèåíò_638-2" x1="483.4" y1="618.85" x2="483.4" y2="295.17" xlink:href="#Áåçûìÿííûé_ãðàäèåíò_638"/><linearGradient id="Áåçûìÿííûé_ãðàäèåíò_38-2" x1="-16.68" y1="-1673.96" x2="-35.41" y2="-1941.76" gradientTransform="translate(-394.98 1769.65) rotate(28.33)" xlink:href="#Áåçûìÿííûé_ãðàäèåíò_38"/><linearGradient id="Áåçûìÿííûé_ãðàäèåíò_638-3" x1="315.77" y1="298.28" x2="315.77" y2="267.68" xlink:href="#Áåçûìÿííûé_ãðàäèåíò_638"/><linearGradient id="Áåçûìÿííûé_ãðàäèåíò_676" x1="303.69" y1="317.75" x2="303.69" y2="209.33" gradientUnits="userSpaceOnUse"><stop offset="0" stop-color="#dd1458"/><stop offset="1" stop-color="#830f3c"/></linearGradient><linearGradient id="Áåçûìÿííûé_ãðàäèåíò_638-4" x1="462.09" y1="299.18" x2="462.09" y2="269.77" xlink:href="#Áåçûìÿííûé_ãðàäèåíò_638"/><linearGradient id="Áåçûìÿííûé_ãðàäèåíò_638-5" x1="302.6" y1="325.27" x2="302.6" y2="181.74" xlink:href="#Áåçûìÿííûé_ãðàäèåíò_638"/><linearGradient id="Áåçûìÿííûé_ãðàäèåíò_676-2" x1="506.06" y1="293.7" x2="506.06" y2="149.27" xlink:href="#Áåçûìÿííûé_ãðàäèåíò_676"/><linearGradient id="Áåçûìÿííûé_ãðàäèåíò_638-6" x1="490.39" y1="304.61" x2="490.39" y2="142.84" xlink:href="#Áåçûìÿííûé_ãðàäèåíò_638"/><linearGradient id="Áåçûìÿííûé_ãðàäèåíò_222" x1="407.24" y1="313.94" x2="407.24" y2="279.32" gradientUnits="userSpaceOnUse"><stop offset="0" stop-color="#f11382"/><stop offset="0.99" stop-color="#f64a77"/></linearGradient></defs><g class="cls-1"><g id="Layer_1" data-name="Layer 1"><path class="cls-2" d="M665.72,367.44c-.49-2.66-35.4-12.25-78.33-21.58a28,28,0,0,0,1.38-7.27c1.75-.67,3.47-1.35,5.14-2l.19-.07,1.07-.46c1.28-.54,2.54-1.09,3.77-1.64.56-.24,1.16-.49,1.69-.73,1.6-.75,3.14-1.49,4.64-2.24,1.23-.61,2.41-1.23,3.56-1.85l.27-.14.84-.48a77.51,77.51,0,0,0,8.62-5.47c.41-.3.83-.59,1.21-.89l.06-.05c.85-.67,1.65-1.35,2.39-2l.07,0c.27-.26.5-.5.74-.75a27.26,27.26,0,0,0,3-3.39,1.46,1.46,0,0,0,.16-.19c.25-.34.48-.69.7-1a16.1,16.1,0,0,0,1.2-2.22c.49-1.13,1-2.34,1.44-3.61.22-.6.44-1.24.67-1.88s.48-1.38.71-2.1.5-1.56.75-2.37q.29-.94.57-1.92c.26-.9.52-1.79.77-2.72.14-.51.27-1,.41-1.57q.87-3.37,1.68-7l.15-.69c.28-1.26.55-2.55.81-3.85.08-.42.17-.83.25-1.25.27-1.39.53-2.78.78-4.2a2.38,2.38,0,0,0,0-.26v0q.6-3.36,1.12-6.79c.14-.87.29-1.74.43-2.63,0-.13,0-.31,0-.44.13-.8.22-1.55.31-2.25.22-1.72.44-3.49.66-5.25v0c.13-1.29.27-2.52.4-3.75,0-.36,0-.62,0-.89s.09-.7.14-1.06c.17-1.72.3-3.44.39-5.11s.22-3.31.31-4.94v-.14c.09-1.1.13-2.2.13-3.3.09-2.17.14-4.33.14-6.4,0-15.92-2.21-28.63-7.59-32.24l0-.05a4.5,4.5,0,0,0-1.14-.57c-14.25-5.6-90.16-3.88-121.75,16a44.41,44.41,0,0,0-4.88,3.55,6.91,6.91,0,0,0-3.19,3l-.05.07c-15.78,17.28-33.28,67.47-39.27,99.83-3.32-.2-6.46-.32-9.4-.36,5.14-36.07,21.71-106.66,40-135.29,2.74-3.62,5.16-6.47,7-8.67.44-.39.88-.84,1.33-1.18,27.25-20.83,43.41,18.92,59.32,2.24s25.65-56.74,2.46-75.66c-6.77-5.53-12.53-7.81-17.34-8.35l-.32-.08c-.05,0-.14,0-.2,0a19,19,0,0,0-17,7.95L542.88,114a24.48,24.48,0,0,1,0-3.23h0c0-2.16,3.15-5.87,5.29-8.15,3,0,7.71,2.63,15,10.41,22.58,24,4.93,67.86-14.31,62.86-13.86-3.6-29.29-24.61-48.23-18.3h0c-4.45,1.49-9.1,4.52-14,9.6l-.1.07a22.14,22.14,0,0,0-3.81,4.39,96.19,96.19,0,0,0-5.89,8.25c-24.12,37.62-28.37,115.05-29.09,145.82l-2,.07-2.9.16q-1.32-2.55-2.72-5.22C427.19,280.5,414.49,217.56,388.7,185a19.72,19.72,0,0,0-1.46-1.55c0-.06,0-.13,0-.18a6.77,6.77,0,0,0-3-2.5c-31.88-22.69-104.14,71.09-139.89,64.78-37.54-6.63-48.08-33.7-29.36-56.33s40.21,11.46,35.88,19.94l14.67,2.2s-15.55-30.88-34.38-34.26S201,201.36,200.3,222.44a15.36,15.36,0,0,0,1,5.83c.9,8,15.79,16.72,17.7,17.93l0,0c1.2.74,2.43,1.45,3.68,2.15h0l.59.32,1.7.91c.45.24.9.48,1.35.7.72.38,1.45.74,2.19,1.1l.37.18c11.49,5.56,23.19,9.21,28.25,10.22,11.51,2.31,73-84.1,114.53-71.89,8.16,2.4,14.43,8.73,19.56,17.45,2.29,4.58,4.52,8.91,5.87,12l.13.3c.06.13.09.23.14.35,6.05,15,10.4,33.6,15.09,51.53-2-3.3-4-6.4-5.85-9.21a1.1,1.1,0,0,0-.17-.22c-5-7.63-9.27-13.14-11.91-14.95-36.08-24.57-103,17.95-119.94,34.58a15.13,15.13,0,0,0-4.05,7.37,9.36,9.36,0,0,0-.53.84c-2,9.92,2.25,24.26,10.89,38.81l.13.27c1.46,2.43,3.06,4.86,4.75,7.29-3.75.81-6.16,1.48-6.52,1.93-1.89,2.32-4.65,12.25-4.65,12.25l4.59-.86c-8,1.55-15.66,3.1-22.79,4.63l.17-.06-1.14.27c-30.68,6.63-51.49,12.89-49,16.84v0s0,.07,0,.1c-.61,6.21,6.29,58.93,12.8,92.73.56,2.92,1.13,5.66,1.68,8.26v0c.16.76.32,1.52.48,2.24l.81,3.56,0,.2c1.87,7.94,3.59,13.25,5,14.07.87.52,6,1.4,14.18,2.51h0c-.08,0-.08.2,0,.52v.16c0,.73,0,1.48-.08,2.21-.44,5.86-5.68,77.11-2.75,139.15h0c.2,4.63.55,7.7,1,8.72,1.76,3.71,29.1,9.52,64.38,15.58.82,4.15,1.62,6.56,2.42,6.78,4.83,1.32,22.86,4.06,40.07,6.74l25.47,4.16h0c2.37.43,4.4.83,6,1.18a9.38,9.38,0,0,0,4,.85h0a15.88,15.88,0,0,0,2,.15c.31,0,.62,0,.92,0a11.74,11.74,0,0,0,10-5.72h0c35.93,5.13,63.51,8.65,64.25,8.74,7.12.95,11.26,1.48,11.26,1.48s13.54-2.26,33-5.79c13.53-2.19,30.57-5.2,48.66-9l-.14,0s6.71,5.17,12.07,5.8,51.08-11.66,53.92-14.19c.27-.23.7-2.82,1.26-7.33a146.86,146.86,0,0,0,17.11-5.77h0c3-1.3,5.16-2.53,6.22-3.66,1.6-1.7,2.4-8.09,2.6-17.63.25-9.82-.1-23-.82-37.72.77-23.17-1.07-50-4.73-68.76q-.55-6.81-1.13-13.34h0l0-.34c-.58-6.61-1.14-12.93-1.68-18.84l0-.17h0c4.41-1.13,7.16-1.95,7.7-2.36.75-.6,1.95-4.6,3.45-10.79v-.05c6.89-28.85,19.42-105,17.87-108.39Z"/><path class="cls-3" d="M409.57,627.8s-225.61-29-230.8-39.94c-.6-1.3-1-5.94-1.15-12.93v0c-1.2-44.43,4.84-184.57,4.84-184.57l226,22.76,1,203.1Z"/><path class="cls-4" d="M584.31,570.24c-.2,9.53-1,15.92-2.59,17.62-12.44,13.28-172.15,39.94-172.15,39.94l-.05-11.63-1-203.1,163.45-23.36S585.56,521.26,584.31,570.24Z"/><path class="cls-5" d="M433,448.52c-.75,6.14-1.59,10.15-2.65,10.77-5.69,3.44-257.29-20.69-263.86-24.7l-.58-.62c-2.07-2.82-4.72-13.67-7.45-27.75-6.53-33.92-13.46-86.89-12.79-92.8.08-.84,2.78-1.33,7.54-1.46,44.55-1.28,271.19,25.89,277.14,32.6a7.91,7.91,0,0,1,1.37,3.26c.13.53.26,1.1.4,1.77C435.79,367.41,435.75,424.44,433,448.52Z"/><path class="cls-6" d="M587.06,417.87v.05c-1.5,6.19-2.7,10.18-3.45,10.78-4.29,3.29-150.42,33.1-153.27,30.6-.5-.45-.95-4.29-1.3-10.33-1.39-23.22-1.39-79.08,2.65-101.15.9-4.94,2-8.14,3.3-9,7.23-4.59,168-33.4,169.94-29.35C606.48,312.82,594,389,587.06,417.87Z"/><path class="cls-7" d="M604.91,309.49c0,5.43-139.74,36.79-172.82,40.1-1.55.13-2.83.22-3.88.26-22.15.57-243.49-24.08-278.12-34.45-2.51-.7-4.06-1.41-4.45-2-3.36-4.9,29.59-13.41,72.82-21.75.93-.22,1.63-.35,2.16-.44,57.92-11.12,133.22-21.92,164.31-23.47C439.81,265,604.69,303.84,604.91,309.49Z"/><path class="cls-8" d="M587.06,417.92c-1.5,6.19-2.7,10.18-3.45,10.78-4.29,3.29-150.42,33.1-153.27,30.6-5.69,3.45-257.31-20.72-263.9-24.71-2.1-1.25-5-12.83-8-28.36,22.17,30.86,74.74,34.15,152.72,42.74s112.78.4,117.87,0l3.95-.45c21.62-2.65,121.92-15.78,136.19-19C584.11,426.2,586.81,418.66,587.06,417.92Z"/><path class="cls-9" d="M158.45,336c10.18-12.62,244.42,15.82,257.39,30.27s10.87,65.23,0,78.83-218.09-16.3-238.4-31.1S158.45,336,158.45,336Z"/><path class="cls-9" d="M445.48,349.87c-13.84,2.64-11.35,80.08-5,91.43s117-8.14,134.78-17.94,27.26-97.82,23.51-103.61S501.61,339.16,445.48,349.87Z"/><path class="cls-10" d="M599.54,306.65c5.39,2.83-108.71,36-174.74,39.11S148.68,315,148.68,315s38.87,10.62,151.44,24.18,127.56,18.52,133.7,18,32.79-13.54,91.44-24.27,79.67-18.46,79.67-20.91S599.54,306.65,599.54,306.65Z"/><path class="cls-11" d="M384.21,276.7c-14.87-37.87-27.32-113-56.33-149.73S221,194.15,183.48,187.53s-48.09-33.7-29.37-56.34,40.21,11.46,35.89,19.94l14.66,2.21s-15.55-30.88-34.38-34.27-30.13,24.29-30.81,45.38,45.35,37.06,56.86,39.37,73-84.11,114.53-71.9S345.4,257.15,384.21,276.7Z"/><path class="cls-8" d="M584.31,570.24c-.2,9.53-1,15.92-2.59,17.62-12.44,13.28-172.15,39.94-172.15,39.94s-225.61-29-230.8-39.94c-.6-1.3-1-5.94-1.15-12.93,1,10.64,125.13,31.12,169.06,36.11s61.8,5.18,61.8,5.18.34,0,1-.05c8.34-.6,64.81-4.59,115.88-12.93C580.77,594.25,584.31,570.24,584.31,570.24Z"/><path class="cls-9" d="M180.61,437.1c-2.23-.31,47.3,130.18,120.61,150.75s105-118.48,105-125.58S180.61,437.1,180.61,437.1Z"/><path class="cls-9" d="M415.41,459.29c-9.18,3,12.11,133.75,19.56,144s122.77-8.08,139.16-25.11,9.78-134.46-5.67-138.11S415.41,459.29,415.41,459.29Z"/><path class="cls-12" d="M415.76,354.8c6.77,1.08,10.16,104.85,14.58,104.5s4.71-84.73,11.5-104.5C441.84,354.8,428,358.49,415.76,354.8Z"/><path class="cls-13" d="M409.57,459.3c-3.86-.57-2.79,146.28-1.09,154.8S414.34,500.64,409.57,459.3Z"/><path class="cls-14" d="M180,453.54c15.73-19.18,189.65,12.48,239,21.74,48.56,9.11,158.64-24.87,158.64-24.87l-1.72-19.35s-116.76,25.1-147.72,28.39S180.61,437.1,180.61,437.1Z"/><path class="cls-8" d="M191.07,592.94s14.62-5.8,92.65,6.08S398.4,626.34,398.4,626.34,250.25,607.5,191.07,592.94Z"/><path class="cls-8" d="M413.15,626.34S484,605.3,511.63,599s63.87-7.49,63.87-7.49-21.72,7.18-69.4,18.18S413.15,626.34,413.15,626.34Z"/><path class="cls-15" d="M418.67,345.94c-13.23,5.18,7.12,13.48,15.15,11.17s23.64-7.57,24.91-10.09S418.67,345.94,418.67,345.94Z"/><path class="cls-16" d="M334.08,617.58s-4,8-15.35,5.11-64.33-10-73.16-12.47-19.6-272-18.63-283.5,151.7-30.46,158-31.09,17.66,7.64,18.92,10.44-85.13,25.5-91.44,31.81-.39,276.43,3,276.64S334.08,617.58,334.08,617.58Z"/><path class="cls-17" d="M387.8,295.85c-6.61.56,6,6.78,16.06,10.22s108.9,15.61,117.51,27.49S506.1,609.71,506.1,609.71l-15,3.31s6.72,5.18,12.08,5.81,51.08-11.67,53.92-14.19,25.22-278.11,23.64-284.74S444,291,387.8,295.85Z"/><path class="cls-18" d="M386.79,280.75S385.51,169.45,416,121.87s52.77-9,72-4S524.92,79,502.35,55s-20.3,1-20.3,1L468.37,48.6s11.73-18.44,34.92.48,13.44,59-2.47,75.67-32.07-23.07-59.32-2.25S387.58,278.92,392,289,386.79,280.75,386.79,280.75Z"/><path class="cls-19" d="M243.85,325.28c-8.11,3.56,51.88,12,75.07,6.62s49.91-11.93,94.23-13,106.4,13,106.4,13-32.84-15.15-60.8-20,31.62-10.28,31.62-10.28l-24-3.37-114,6.63S252,312.75,243.85,325.28Z"/><path class="cls-20" d="M378.83,296.36c-5,.63-126.35-10.95-131.24-10.09s-33.78,6.27-33.78,6.27,2.75-9.93,4.64-12.25,58.61-10.74,77.87-12.53,121.41,24.34,121.41,28.63S378.83,296.36,378.83,296.36Z"/><path class="cls-21" d="M223.85,223.72c-9.56,4.11,8.61,86.13,55.65,92.8S384.12,300.72,386,298.28s-63.84-77.57-74.28-86.68S223.85,223.72,223.85,223.72Z"/><path class="cls-22" d="M526.56,287.87s3.19-9.27,0-10.85-54.91-7.25-64.68-7.25-67,26.85-65.65,28.09,14.88,2.23,34.75,0S513.26,285,513.26,285Z"/><path class="cls-23" d="M394.24,302.12a0,0,0,0,1,0,0,8.13,8.13,0,0,0-.75-.53,17.39,17.39,0,0,0,2.78-3.7c-2.25-8.17-31.76-65.2-50.42-93.47a1.13,1.13,0,0,0-.18-.22c-5-7.63-9.26-13.15-11.91-15-36.08-24.57-103,18-119.93,34.58a15.11,15.11,0,0,0-4.06,7.37c-.09.35-.18.75-.27,1.1-1.94,9.62,2,23.34,10.06,37.41a133.26,133.26,0,0,0,28.19,34,110.76,110.76,0,0,0,21.35,14.69c35.55,18.52,99.33-5.12,119.31-13.37,3.89-1.59,6.13-2.6,6.13-2.6s0,0,0-.05Zm-118.3,9.8c-4.63-1.24-9.31-4-13.9-7.72a82.18,82.18,0,0,1-10.54-10.5c-17.2-20.34-29.73-50.9-24.61-60.26,7-12.74,121.52,51.92,145.21,66.92a1.58,1.58,0,0,0,.35.26C347.75,305.87,296.8,317.52,275.94,311.92Z"/><path class="cls-24" d="M454.28,164.11c35.65-9.76,22.61,87.67,13.91,103.52S435,293.7,435,293.7,543.84,287,563.84,249.57s13.48-78.26,6.09-94.78S454.28,164.11,454.28,164.11Z"/><path class="cls-25" d="M572.84,146.24l0,0a4.28,4.28,0,0,0-1.15-.58c-14.25-5.6-90.16-3.88-121.74,16a38.15,38.15,0,0,0-8.08,6.53C418.1,194,390.4,294.54,403.9,296.83a52.73,52.73,0,0,0,11.65.84c-7.37,3.62-9.88,4,3.92,6.7,2.78.49,8.47.22,16.1-.7,4-.49,8.56-1.15,13.45-2l.27-.05c2.69-.48,5.51-1,8.43-1.54,1.23-.26,2.51-.48,3.79-.75,4.23-.88,8.64-1.85,13.19-2.87,3-.7,6-1.45,9.13-2.2,2.38-.62,4.76-1.24,7.19-1.85,7.81-2.08,15.66-4.42,23.16-6.89,3.35-1.1,6.61-2.24,9.83-3.39a4.58,4.58,0,0,1,.66-.27c1.24-.48,2.47-.92,3.71-1.41.26-.09.57-.22.88-.35,1.24-.49,2.47-1,3.66-1.46a2.12,2.12,0,0,0,.36-.13c2.24-.93,4.45-1.9,6.52-2.82,3-1.41,5.83-2.78,8.47-4.24.88-.48,1.77-1,2.56-1.45,1.06-.58,2-1.19,3-1.81,1.85-1.19,3.57-2.38,5.12-3.57l.13-.14c.79-.61,1.54-1.23,2.25-1.89,0,0,.09-.05.13-.09.66-.62,1.24-1.19,1.81-1.81a23.13,23.13,0,0,0,2.12-2.51c.31-.44.61-.89.88-1.33a12.86,12.86,0,0,0,1-1.94c3.53-8.16,6.71-20.2,9.05-33.39v0a2,2,0,0,0,0-.27c.22-1.1.4-2.2.57-3.31a2.24,2.24,0,0,0,.09-.61c.31-1.72.58-3.44.84-5.21,0-.13,0-.31,0-.44.14-.79.23-1.54.31-2.25.22-1.72.44-3.48.66-5.25v0c.14-1.28.27-2.52.4-3.75,0-.35.05-.62.05-.88s.08-.71.13-1.06c.17-1.72.31-3.44.4-5.12s.22-3.31.3-4.94v-.13c.09-1.1.14-2.21.14-3.31.08-2.16.13-4.32.13-6.4C580.43,162.56,578.22,149.86,572.84,146.24Zm-20,108.64c-19.54,19.32-76.49,29.16-109.61,35.2,10.89-5.47,23.29-14.69,36.52-29.95,37-42.56,70.75-104,83.5-98.63S579.5,228.55,552.86,254.88Z"/><path class="cls-19" d="M503.19,618.83s10.79-5.6,18.33-95.91,5.48-188.54,8.83-191,50.4-12,50.4-12-20.39,264.87-26.47,278.35S503.19,618.83,503.19,618.83Z"/><path class="cls-19" d="M321.13,623.15s-9.89.81-12.5-14.22-9.88-257-6-267.75,82.2-27.86,82.2-27.86-65.73,20.59-70.95,28.85-4.56,107.17-3.91,108.69,8.48,1.24,8.48,1.24,3.34,161.73,4.49,163.5,11.17,2,11.17,2S328.52,624.69,321.13,623.15Z"/><path class="cls-26" d="M235.59,336.08c-4.78.87-2.37,101.47,7.51,136.82s48.81,69.25,55.53,70.13.87-184.33,0-191.51S235.59,336.08,235.59,336.08Z"/><path class="cls-19" d="M521.37,333.56c3.78,5.13-1.65,97.68-9.81,111.19,0,0-8.15,157.87-13.15,166.56l7.69-1.6S528.91,374.09,521.37,333.56Z"/><path class="cls-27" d="M228.2,329.13c1.16-7.54,30.86,2.91,50.94,3.71s22.4.53,22.69,3.77-3.7,8.53-28.09,5.88S226.68,334.33,228.2,329.13Z"/><path class="cls-27" d="M522.9,328.55c-1.93.72,12.27,3.71,28.77-1.16s25.43-5.73,26-7.49S532.45,325,522.9,328.55Z"/><path class="cls-19" d="M394.2,302.08c-.36-.18-.71-.44-1.15-.66-1.32-.75-2.91-1.68-4.81-2.69-32.42-18.18-143.53-75.83-172.73-70.58-2.65.44-4.59,1.41-5.78,3-.18.27-.35.53-.53.84-2,9.92,2.25,24.26,10.89,38.82l.14.26a137.37,137.37,0,0,0,27.48,32.6,110.58,110.58,0,0,0,21.08,14.42c35.55,18.53,99.34-5.11,119.32-13.36,3.88-1.59,6.13-2.61,6.13-2.61A0,0,0,0,1,394.2,302.08ZM251.5,293.7c-17.38-20.34-30-51.12-24.88-60.52,7.06-12.79,122.67,52.58,145.56,67.18h-.08c-24.75,5.29-75.61,16.89-96.43,11.29A38.45,38.45,0,0,1,262,304.2,82.18,82.18,0,0,1,251.5,293.7Z"/><path class="cls-19" d="M572.84,146.24l0,0c-6.88-1.59-13.37-.27-19.63,3.26-28.06,15.75-51.26,74.9-80.77,105.42-19.1,19.76-29.46,30.57-35.06,36.35L435,293.74c-3.26,3.4-4,4.11-4,4.11l4.59,5.82c4-.49,8.56-1.15,13.45-2l.27-.05c2.69-.48,5.51-1,8.43-1.54,1.23-.26,2.51-.48,3.79-.75,4.23-.88,8.64-1.85,13.19-2.87,3-.7,6-1.45,9.13-2.2,2.38-.62,4.76-1.24,7.19-1.85,7.81-2.08,15.66-4.42,23.16-6.89,3.35-1.1,6.61-2.24,9.83-3.39a4.58,4.58,0,0,1,.66-.27c1.24-.48,2.47-.92,3.71-1.41.26-.09.57-.22.88-.35,1.24-.49,2.47-1,3.66-1.46a2.12,2.12,0,0,0,.36-.13c2.24-.93,4.45-1.9,6.52-2.82,3-1.41,5.83-2.78,8.47-4.24.88-.48,1.77-1,2.56-1.45,1.06-.58,2-1.19,3-1.81,1.85-1.19,3.57-2.38,5.12-3.57l.13-.14c.79-.61,1.54-1.23,2.25-1.89,0,0,.09-.05.13-.09.66-.62,1.24-1.19,1.81-1.81a23.13,23.13,0,0,0,2.12-2.51c.31-.44.61-.89.88-1.33a12.86,12.86,0,0,0,1-1.94c3.53-8.16,6.71-20.2,9.05-33.39v0a2,2,0,0,0,0-.27c.22-1.1.4-2.2.57-3.31a2.24,2.24,0,0,0,.09-.61c.31-1.72.58-3.44.84-5.21,0-.13,0-.31,0-.44.14-.79.23-1.54.31-2.25.22-1.72.44-3.48.66-5.25v0c.14-1.28.27-2.52.4-3.75,0-.35.05-.62.05-.88s.08-.71.13-1.06c.17-1.72.31-3.44.4-5.12s.22-3.31.3-4.94v-.13c.09-1.1.14-2.21.14-3.31.08-2.16.13-4.32.13-6.4C580.43,162.56,578.22,149.86,572.84,146.24Zm-20,108.64c-19.54,19.32-76.49,29.16-109.61,35.2,10.89-5.47,23.29-14.69,36.52-29.95,37-42.56,70.75-104,83.5-98.63S579.5,228.55,552.86,254.88Z"/><path class="cls-26" d="M408.48,280.86s-.76-50,22.52-77-6.28,53.33-7.73,63.77,43.77-71,67.1-82-17.87,62.44-31.62,77.89-37.27,23.76-37.27,23.76Z"/><path class="cls-26" d="M392,289s-41.43-54.22-56.51-61-26.72,9-4.63,30.49S392,289,392,289Z"/><path class="cls-28" d="M375.15,306.65c-7,11.83,54.91,6.91,59.82,1.67l4.91-5.25s-17.65-18.73-31.4-22.21-21,0-21,0,9.12,11.7,5.15,21.51S375.15,306.65,375.15,306.65Z"/><path class="cls-29" d="M486.26,252.42c-6.47,14.39,78.74-8.31,82.51-37.49s2.32-51.88-9.28-50.43-42.65,49.14-53.79,63.55S486.26,252.42,486.26,252.42Z"/><path class="cls-29" d="M228.26,232.29c-6.81,1.55,1,41.19,22.77,53.8s88.69,6.52,93,0S244,228.72,228.26,232.29Z"/><path class="cls-19" d="M375.15,309.92c5.08,4.86,23.62-2.24,41.31-8.18s23.42,1.33,23.42,1.33-3.17,7.1-8.88,8.46-33.95,4.31-42.51,3.83A21.1,21.1,0,0,1,375.15,309.92Z"/><path class="cls-15" d="M447.32,168.1c-17.7,18.81,33,3.26,55.65,6.54s43.74-24.2,48.41-27.82S466.43,146.49,447.32,168.1Z"/><path class="cls-15" d="M234,216.67c-2.39,5.63,30.72,6.37,78.84,2.32s24.05-26.38,7.82-31S241.12,199.88,234,216.67Z"/><path class="cls-10" d="M177.76,579.15l2.78-139.59S174.7,514.39,177.76,579.15Z"/><path class="cls-10" d="M157.66,317.29c-3.95-6.13,38.11-21,38.11-21s-50.33,11.87-50.15,17.15S157.66,317.29,157.66,317.29Z"/><path class="cls-27" d="M262.11,231.8c-5.07-.06,61.86,34.56,81,43.91s30.48,16.17,30.48,16.17S280.37,232,262.11,231.8Z"/><path class="cls-27" d="M462.09,265.56s54.17-76.92,69.36-95.49C531.45,170.07,495.13,235.47,462.09,265.56Z"/><path class="cls-29" d="M416.94,284.48s22.32-40.35,31.13-50.57,7.3,17.86,1.64,31.65-29.16,21.07-30.4,20.32S416.94,284.48,416.94,284.48Z"/><path class="cls-29" d="M392,287.81s-19.66-24-29.15-34.3-9.17,6.07-5,17.15S392,287.81,392,287.81Z"/><path class="cls-30" d="M409.75,281.23c-2-5.49.76-31.81,5.11-39.06s6.23,23.63,5.07,29.57S409.75,281.23,409.75,281.23Z"/><path class="cls-31" d="M535.44,153.19c10.14-4.92,3.37,14.13-7.17,16.88s-20.66-7.89-40.95-7-13.94,7-33,10.43-17.11,2.29-12.49-5.38,12.78-.16,24.3-2.77,7.73-4.78,31.25-3S535.44,153.19,535.44,153.19Z"/><path class="cls-31" d="M233.88,221.1c.2,3.5,8.31,5.4,26.35,2.63s24.61-8.77,38.85-16.92c18.05-10.32,31.6-4.43,34.42-12.26s-2.91-3.24-6.17-1.07-2.39,1.12-30.22,10.89S233.39,212.44,233.88,221.1Z"/><path class="cls-32" d="M425.71,109.24c8.38-7,17.48,6.09,18.35,8.51s-10.65,10.75-22.26,32.3-19.48,5.63-19.48,5.63S416.54,116.69,425.71,109.24Z"/><path class="cls-32" d="M323.28,125.84c-5.67,2.19,10.7,28.84,13.83,37.58s12.2,13,12.2,13S338.78,135.12,323.28,125.84Z"/><path class="cls-33" d="M439.78,99.55c-5.24,3.84,6.46,15.13,7.77,15.44s15.44-.7,15.44-.7-6.35-9.24-9.9-12.51S439.78,99.55,439.78,99.55Z"/><path class="cls-33" d="M469.91,47.14c1.49-1.88,11.92-7.19,15.72-6.48s3.62,2,3.62,2S482,49.49,482,52.73,469.91,47.14,469.91,47.14Z"/><path class="cls-33" d="M317.59,120.78c-3-1.5-8.61,6.47-6.58,8.48s13.2,6.79,13.2,6.79,3.69-7.79,2.16-10.81S317.59,120.78,317.59,120.78Z"/><path class="cls-33" d="M188.25,132.68c-2.39-.6,3.41,14,4.41,15.62s8.81,1.76,8.81,1.76S194.7,134.77,188.25,132.68Z"/><path class="cls-33" d="M140.46,170.26c1.59-3.92,20.21,10.85,23.88,14.68s-4.27,4.47-6.18,3.26S141.35,178.27,140.46,170.26Z"/><path class="cls-32" d="M161.88,190.38c-.76-1.64,5.18-2.57,6.76-2.75s24.64,6.49,27.78,9.08,1.73,5.78-.58,5.67S178.63,199.75,161.88,190.38Z"/><path class="cls-34" d="M302.12,426.08c-10.29-6-12.18,12.83-7.4,25.43s10.22,4.52,10.22-6.76S304.28,427.35,302.12,426.08Z"/><path class="cls-34" d="M530.51,543c9.07-13.45,23.79-1.75,11.46,11.88S522.1,555.5,530.51,543Z"/><path class="cls-35" d="M530.51,543c-5.36,6,2.34,15.64,11.46,7.82S541.81,530.29,530.51,543Z"/><path class="cls-35" d="M291.62,436.51c1.24,8,7.45,14.78,10.21,13.93s5.9-22.17.27-25.51S290.28,427.93,291.62,436.51Z"/><path class="cls-27" d="M292.92,444.93s2.38,10.57,6.66,11.44,5.14-7.83,5.14-7.83-.65,11.6-4.56,12S292.92,444.93,292.92,444.93Z"/><path class="cls-27" d="M527,552.73c.78,9.87,15,2.19,15,2.19s-4.36,7.1-10.45,7.39S527,552.73,527,552.73Z"/><path class="cls-26" d="M248.54,610.89c-4.8-4.77,4-23.2,27-21s35.52,31.2,35.52,31.2Z"/><path class="cls-36" d="M533.12,337.53c-3.41,6.18-5.51,35.65,6.08,51s37.36-44.41,36.52-56.65S533.12,337.53,533.12,337.53Z"/><path class="cls-9" d="M400.33,354.8c-23.73-8,3.57,39.56,15.43,57.23s4.63-48.17,2.31-52.7S400.33,354.8,400.33,354.8Z"/><path class="cls-29" d="M577.91,211.61c-2.38,16.89-6.22,33.13-10.63,43.27-9,20.87-76.84,39.61-118,46.71,5.12-1.23,87.65-20.86,107.36-38.81C570,250.6,575.62,226.65,577.91,211.61Z"/><path class="cls-29" d="M579.46,198.38c-.05.35-.09.7-.13,1.06.08-.75.08-1.15.08-1.15Z"/><path class="cls-14" d="M166.46,434.59l-.58-.62c-2.07-2.82-4.72-13.67-7.45-27.75-6.53-33.92-13.46-86.89-12.79-92.8-3.36-4.9,29.59-13.41,72.82-21.75C207,294.14,165.13,303.54,153.18,312a7.67,7.67,0,0,0-3.09,3.44C147,325.86,161.34,428.41,166.46,434.59Z"/><path class="cls-29" d="M580.43,178.48c0,2.08,0,4.24-.13,6.4,0,1.1,0,2.21-.14,3.31v.13c-.08,1.63-.17,3.26-.3,4.94s-.23,3.4-.4,5.12c-.05.35-.09.7-.13,1.06s-.05.53-.05.88c-.13,1.23-.26,2.47-.4,3.75v0c-.22,1.77-.44,3.53-.66,5.25-.08.71-.17,1.46-.31,2.25,0,.13,0,.31,0,.44-.26,1.77-.53,3.49-.84,5.21a2.24,2.24,0,0,1-.09.61c-.17,1.11-.35,2.21-.57,3.31.57-4.59,6.62-58.71-23.2-71.72a32.32,32.32,0,0,0-8.07-2.34c-40.54-6.44-95.19,14.47-95.19,14.47,31.58-19.85,107.49-21.57,121.74-16a4.28,4.28,0,0,1,1.15.58l0,0C578.22,149.86,580.43,162.56,580.43,178.48Z"/><path class="cls-29" d="M345.63,204.16c-1.76-2.25-16.72-20.6-36.08-19.63-20.64,1-81.65,23.24-92.76,41.28a22.2,22.2,0,0,0-1.28,2.34c-7.46,15.4,1.36,36,4,41.51.27.53.44.93.57,1.15-8.64-14.56-12.88-28.9-10.89-38.82.18-.31.35-.57.53-.84a15.11,15.11,0,0,1,4.06-7.37c16.94-16.62,83.85-59.15,119.93-34.58C336.37,191,340.6,196.53,345.63,204.16Z"/></g></g></svg>