<svg xmlns="http://www.w3.org/2000/svg" xmlns:xlink="http://www.w3.org/1999/xlink" viewBox="0 0 807.73 788.33"><defs><style>.cls-1{isolation:isolate;}.cls-2{fill:#823230;}.cls-10,.cls-12,.cls-2,.cls-32{mix-blend-mode:multiply;}.cls-10,.cls-2{opacity:0.5;}.cls-3{fill:url(#Áåçûìÿííûé_ãðàäèåíò_476);}.cls-4{fill:url(#Áåçûìÿííûé_ãðàäèåíò_480);}.cls-5{fill:url(#Áåçûìÿííûé_ãðàäèåíò_459);}.cls-6{fill:url(#Áåçûìÿííûé_ãðàäèåíò_490);}.cls-7{fill:url(#Áåçûìÿííûé_ãðàäèåíò_446);}.cls-8{fill:url(#Áåçûìÿííûé_ãðàäèåíò_459-2);}.cls-9{fill:url(#Áåçûìÿííûé_ãðàäèåíò_458);}.cls-10,.cls-12{fill:#b82774;}.cls-11{fill:url(#Áåçûìÿííûé_ãðàäèåíò_458-2);}.cls-12{opacity:0.8;}.cls-13{fill:url(#Áåçûìÿííûé_ãðàäèåíò_458-3);}.cls-14,.cls-15{fill:#f6f9da;}.cls-15,.cls-25{mix-blend-mode:soft-light;}.cls-16{fill:url(#Áåçûìÿííûé_ãðàäèåíò_458-4);}.cls-17{fill:url(#Áåçûìÿííûé_ãðàäèåíò_469);}.cls-18{fill:url(#Áåçûìÿííûé_ãðàäèåíò_476-2);}.cls-19{fill:url(#Áåçûìÿííûé_ãðàäèåíò_480-2);}.cls-20{fill:url(#Áåçûìÿííûé_ãðàäèåíò_459-3);}.cls-21{fill:url(#Áåçûìÿííûé_ãðàäèåíò_490-2);}.cls-22{fill:url(#Áåçûìÿííûé_ãðàäèåíò_476-3);}.cls-23{fill:url(#Áåçûìÿííûé_ãðàäèåíò_458-5);}.cls-24{fill:url(#Áåçûìÿííûé_ãðàäèåíò_458-6);}.cls-25{fill:#f6f8b0;opacity:0.3;}.cls-26{fill:url(#Áåçûìÿííûé_ãðàäèåíò_458-7);}.cls-27{fill:url(#Áåçûìÿííûé_ãðàäèåíò_458-8);}.cls-28{fill:url(#Áåçûìÿííûé_ãðàäèåíò_458-9);}.cls-29{fill:url(#Áåçûìÿííûé_ãðàäèåíò_458-10);}.cls-30{fill:url(#Áåçûìÿííûé_ãðàäèåíò_476-4);}.cls-31{fill:url(#Áåçûìÿííûé_ãðàäèåíò_446-2);}.cls-32{fill:#f86255;opacity:0.2;}</style><linearGradient id="Áåçûìÿííûé_ãðàäèåíò_476" x1="444.36" y1="473.89" x2="444.36" y2="205.59" gradientUnits="userSpaceOnUse"><stop offset="0.05" stop-color="#f84a0f"/><stop offset="1" stop-color="#f87211"/></linearGradient><linearGradient id="Áåçûìÿííûé_ãðàäèåíò_480" x1="563.81" y1="473.86" x2="563.81" y2="183.48" gradientUnits="userSpaceOnUse"><stop offset="0" stop-color="#f8a20e"/><stop offset="1" stop-color="#f7b82c"/></linearGradient><linearGradient id="Áåçûìÿííûé_ãðàäèåíò_459" x1="563.8" y1="447.71" x2="563.8" y2="209.58" gradientUnits="userSpaceOnUse"><stop offset="0" stop-color="#f77234"/><stop offset="1" stop-color="#f85e10"/></linearGradient><linearGradient id="Áåçûìÿííûé_ãðàäèåíò_490" x1="558.89" y1="447.19" x2="558.89" y2="209.64" gradientUnits="userSpaceOnUse"><stop offset="0" stop-color="#902a91"/><stop offset="1" stop-color="#642a91"/></linearGradient><linearGradient id="Áåçûìÿííûé_ãðàäèåíò_446" x1="576.15" y1="329.17" x2="576.15" y2="254.3" gradientUnits="userSpaceOnUse"><stop offset="0" stop-color="#f8a20e"/><stop offset="1" stop-color="#f7c232"/></linearGradient><linearGradient id="Áåçûìÿííûé_ãðàäèåíò_459-2" x1="576.15" y1="329.17" x2="576.15" y2="254.3" xlink:href="#Áåçûìÿííûé_ãðàäèåíò_459"/><linearGradient id="Áåçûìÿííûé_ãðàäèåíò_458" x1="507.05" y1="223.33" x2="507.05" y2="175.28" gradientUnits="userSpaceOnUse"><stop offset="0" stop-color="#f7de15"/><stop offset="1" stop-color="#f7e831"/></linearGradient><linearGradient id="Áåçûìÿííûé_ãðàäèåíò_458-2" x1="569.84" y1="329.91" x2="569.84" y2="316.94" xlink:href="#Áåçûìÿííûé_ãðàäèåíò_458"/><linearGradient id="Áåçûìÿííûé_ãðàäèåíò_458-3" x1="567.92" y1="385.1" x2="567.92" y2="361.5" xlink:href="#Áåçûìÿííûé_ãðàäèåíò_458"/><linearGradient id="Áåçûìÿííûé_ãðàäèåíò_458-4" x1="478.63" y1="443.66" x2="507.26" y2="443.66" xlink:href="#Áåçûìÿííûé_ãðàäèåíò_458"/><linearGradient id="Áåçûìÿííûé_ãðàäèåíò_469" x1="270.52" y1="456.91" x2="270.52" y2="197.96" gradientUnits="userSpaceOnUse"><stop offset="0" stop-color="#f85e10"/><stop offset="0.54" stop-color="#f9691d"/><stop offset="1" stop-color="#f7f733"/></linearGradient><linearGradient id="Áåçûìÿííûé_ãðàäèåíò_476-2" x1="197.8" y1="369.82" x2="197.8" y2="205.15" xlink:href="#Áåçûìÿííûé_ãðàäèåíò_476"/><linearGradient id="Áåçûìÿííûé_ãðàäèåíò_480-2" x1="306.63" y1="487.19" x2="306.63" y2="201.1" xlink:href="#Áåçûìÿííûé_ãðàäèåíò_480"/><linearGradient id="Áåçûìÿííûé_ãðàäèåíò_459-3" x1="306.62" y1="450.58" x2="306.62" y2="239.39" xlink:href="#Áåçûìÿííûé_ãðàäèåíò_459"/><linearGradient id="Áåçûìÿííûé_ãðàäèåíò_490-2" x1="299.75" y1="445.43" x2="299.75" y2="245.79" xlink:href="#Áåçûìÿííûé_ãðàäèåíò_490"/><linearGradient id="Áåçûìÿííûé_ãðàäèåíò_476-3" x1="341.91" y1="482.76" x2="341.91" y2="433.79" xlink:href="#Áåçûìÿííûé_ãðàäèåíò_476"/><linearGradient id="Áåçûìÿííûé_ãðàäèåíò_458-5" x1="238.77" y1="258.37" x2="238.77" y2="201.59" xlink:href="#Áåçûìÿííûé_ãðàäèåíò_458"/><linearGradient id="Áåçûìÿííûé_ãðàäèåíò_458-6" x1="336.16" y1="251.4" x2="336.16" y2="197.78" xlink:href="#Áåçûìÿííûé_ãðàäèåíò_458"/><linearGradient id="Áåçûìÿííûé_ãðàäèåíò_458-7" x1="374.28" y1="356.31" x2="374.28" y2="288.98" xlink:href="#Áåçûìÿííûé_ãðàäèåíò_458"/><linearGradient id="Áåçûìÿííûé_ãðàäèåíò_458-8" x1="252.03" y1="356.31" x2="252.03" y2="318.53" xlink:href="#Áåçûìÿííûé_ãðàäèåíò_458"/><linearGradient id="Áåçûìÿííûé_ãðàäèåíò_458-9" x1="220.76" y1="440.65" x2="252.03" y2="440.65" xlink:href="#Áåçûìÿííûé_ãðàäèåíò_458"/><linearGradient id="Áåçûìÿííûé_ãðàäèåíò_458-10" x1="367.7" y1="435.6" x2="399.72" y2="435.6" xlink:href="#Áåçûìÿííûé_ãðàäèåíò_458"/><linearGradient id="Áåçûìÿííûé_ãðàäèåíò_476-4" x1="82.21" y1="403.55" x2="82.21" y2="322.79" xlink:href="#Áåçûìÿííûé_ãðàäèåíò_476"/><linearGradient id="Áåçûìÿííûé_ãðàäèåíò_446-2" x1="137.62" y1="403.67" x2="137.62" y2="320.22" xlink:href="#Áåçûìÿííûé_ãðàäèåíò_446"/></defs><g class="cls-1"><g id="Layer_1" data-name="Layer 1"><path class="cls-2" d="M720.09,268.43a73.26,73.26,0,0,0-15.51-6.63l.22,0c-102.88-35.25-193.08,5.15-227.89,24.7a91,91,0,0,0-14.46-10A32.56,32.56,0,0,0,450,271.93h0a57.52,57.52,0,0,0-10.24-1.27c-11-.85-27.25.05-47.56,7.54,0,0-5.79,6.58-11.59,14.49-5.91,6.8-13.36,15.61-21.78,25.72-14.62-14.81-38.57-38-49.56-42.56-10.84-4.5-29.34,1.15-40.65,5.48a38.79,38.79,0,0,0-9.72,4.1,51.35,51.35,0,0,0-9.57,8.64c-6.27,5.52-12.77,13.68-18.61,25-10.44,16.61-18.86,35-17.58,45.28.33,2.63,2,5.82,4.59,9.35,4.61,6.5,11.69,13.56,19.5,20.38-21.95-2.08-48.89-1.59-65.35,1.3l-1.21.18c-6.45,1.13-37.38,6.81-41.63,16.56a19,19,0,0,0-1,3.7h0v.05c-1,5-1.24,12.61-.92,20.58A116.28,116.28,0,0,0,128,449a104.72,104.72,0,0,0,2.47,14.47c1.05,4.24,2.36,7.17,3.78,7.71,3.93,1.55,25.46,3.17,40.53,4.06.42.06.89.06,1.31.12,4.1.42,8.77.66,13.76.78a468.15,468.15,0,0,0,48.2-1.56c-2.55,11.75,18.79,30.82,33.77,50.16a49.21,49.21,0,0,0,3.2,4.17c11.81,14.62,30.47,26,41.17,30.6,4.89,2.16,20.75-9.07,41.43-26.88.72-.58,1.43-1.17,2.09-1.76a16.22,16.22,0,0,1,1.3-1.11c5.73-5,11.81-10.51,18.09-16.29l-2.47,2.29a388.44,388.44,0,0,0,36.18,21.52c9.18,5.21,16.5,9,16.52,8l0,0a176.57,176.57,0,0,0,19.53,7.37c5.07,2.59,8.79,3.67,10.71,2.75h0A126.13,126.13,0,0,0,487.11,536c2.51,2.21,7.4,4,13.68,5.34h.07a173.67,173.67,0,0,0,18.47,2.8c28.85,3.23,60.35,2.4,60.35,2.4l-3-.3c13.22.7,24.78,0,27-2.65,5.42-6.53,9.92-63.29,9.92-63.29s72.75,6.92,96.62-10.76C741.1,446.74,757.8,397,757,351.81,756.37,315.86,744.69,282.91,720.09,268.43ZM470.89,422.21c.53,6.18,1.07,12.34,1.63,18.41q-4.33-5.16-9-10.59Q467.3,426,470.89,422.21ZM396,514.46l-2.68-2.28q-2.55-2.19-5.18-4.52c8.9,7.47,17.47,14.45,25.42,20.67C408.1,524.28,402.25,519.69,396,514.46Z"/><path class="cls-3" d="M451,205.59s-55.83,7.85-61.6,16.09,11.15,228.2,20.6,240.65,90.53,11.55,90.53,11.55Z"/><path class="cls-4" d="M643.93,195.81C588.47,163.19,451,205.6,451,205.6c-9.33,6.52-1.11,251.25,5.08,258.82s66,13.05,71.51,6.52,9.92-63.28,9.92-63.28,72.75,6.91,96.62-10.77c30.8-22.77,47.5-72.49,46.65-117.7C680.21,243.24,668.53,210.29,643.93,195.81ZM539.47,264.12c3.33-14,63.16-17.23,74.06,18.72s-51.15,49.26-66.36,45.81C536,326.17,536.15,278.08,539.47,264.12Z"/><path class="cls-5" d="M553.11,355.26c-1.69,0-3.33-.06-4.83-.19a49.94,49.94,0,0,1-6.78-1c-8.29-1.83-15.47-7.11-20.36-14.87-13.37-21.34-10-69-7-81.17,4.11-17.22,21.66-28.31,46.32-29.68h.19c1.64-.07,3.33-.13,5-.13,35.62,0,64.2,18.46,72.88,47a51.22,51.22,0,0,1-7.9,46.19C612.16,346.26,574.19,355.26,553.11,355.26Zm101.45-80.7c-1.43-27.27-10.37-48.35-23.87-56.24-6.79-4-20.49-8.74-47.24-8.74-1.57,0-3.07,0-4.63.06h-.52c-38.89.85-82.28,10.83-104.59,16.7-.46,7.18-.65,16.77-.78,28-.59,56.76,2.8,155.09,6.26,190.64,4.89.85,11.16,1.7,17.62,2.22,3.32.26,6.72.46,10,.52,1.76-11.28,3.59-28,4.7-42.14l2.08-25.45.07-.91L540,381.69c.06,0,3.32.26,8.61.58,4,.27,9.07.46,14.81.53H565c1.43.06,2.87.06,4.3.06,31.58,0,46.06-4.57,49.33-7,21.92-16.18,37-57.22,36.07-96.95C654.69,277.49,654.63,276,654.56,274.56Z"/><path class="cls-6" d="M644.52,274.56c-1.38-27.28-10.38-48.35-23.88-56.24-6.27-3.72-18.53-8.09-41.82-8.68h-.52c-38.89.85-82.28,10.83-104.59,16.7C471,269.8,475,402.37,479.19,445c4.89.85,11.16,1.7,17.62,2.22,1.76-11.22,3.52-27.66,4.63-41.62l2.15-26.36,10,.91L530,381.69c.07,0,3.33.26,8.61.58s12.59.59,20.68.59c1.44,0,2.81,0,4.18-.06H565c27.59-.53,40.31-4.93,43.58-6.92C632.23,361.5,647.72,337.67,644.52,274.56Zm-13.9,46.91c-18.46,24.79-56.43,33.79-77.51,33.79-1.69,0-3.33-.06-4.83-.19-1.82.13-3.58.19-5.22.19a51.53,51.53,0,0,1-11.61-1.17,32.65,32.65,0,0,1-20.36-14.87c-13.37-21.34-10-69-7-81.17,4.37-18.4,24.14-29.81,51.54-29.81,1.63,0,3.26.06,4.83.13h.19c1.64-.07,3.33-.13,5-.13,35.62,0,64.2,18.46,72.88,47A51.22,51.22,0,0,1,630.62,321.47Z"/><path class="cls-7" d="M547.17,328.65c-11.15-2.48-11-50.57-7.7-64.53s63.16-17.23,74.06,18.72S562.38,332.1,547.17,328.65Z"/><path class="cls-8" d="M547.17,328.65c-11.15-2.48-11-50.57-7.7-64.53s63.16-17.23,74.06,18.72S562.38,332.1,547.17,328.65Z"/><path class="cls-9" d="M385.46,223.33S496.63,144,628.64,189.22c0,0-70.73-12.86-179.51,24.22C449.13,213.44,413.89,212.21,385.46,223.33Z"/><path class="cls-10" d="M541.82,260.51c-4.17,21-4.31,51.21,5,45s29.67,9.89,50.07,4.33,22.57-38.72-8.19-51.5S541.82,260.51,541.82,260.51Z"/><path class="cls-10" d="M398.44,230c8.32-30.06,49.19,63.2,45.92,139.84s-27.86,93.27-36.89,85.27S391.64,254.55,398.44,230Z"/><path class="cls-10" d="M424.65,468.68c-12.64-4.56,24.67-3.11,40.82,0s38,5.21,38,5.21S456.42,475.14,424.65,468.68Z"/><path class="cls-10" d="M680.79,279.19c.85,45.21-15.85,94.93-46.65,117.7-23.87,17.68-96.62,10.77-96.62,10.77s66,1,87.56-12.27C662.65,372.23,674.46,326.82,680.79,279.19Z"/><path class="cls-11" d="M542.83,324.6s16.06,10.5,54-7.66A68.39,68.39,0,0,1,582,324.49C568,329.61,548.13,333.51,542.83,324.6Z"/><path class="cls-12" d="M654.69,278.93c-1.3,3.52-2.86,5.42-4.5,4.7-9.07-3.85-4.11-64.66-66.35-68.31s-106.54,50.24-110.91,39c.13-11.22.32-20.81.78-28,22.31-5.87,65.7-15.85,104.59-16.7h.52c1.56-.06,3.06-.06,4.63-.06,26.75,0,40.45,4.76,47.24,8.74,13.5,7.89,22.44,29,23.87,56.24C654.63,276,654.69,277.49,654.69,278.93Z"/><path class="cls-12" d="M513,341.91s16.89,16.75,54.39,12.23,63.26-32.67,63.26-32.67-18.34,39.94-63.25,44.35S513,341.91,513,341.91Z"/><path class="cls-13" d="M503.59,379.21a320,320,0,0,0,80.67,5.27c43.68-2.88,48-23,48-23S597.64,393.55,503.59,379.21Z"/><path class="cls-14" d="M426.54,214.35s17.18,3,21.93,2.06S472.84,206,472.84,206,448.37,199.92,426.54,214.35Z"/><path class="cls-15" d="M513.57,380.12c-4.9,0-.39,14,1.26,15.45s17.09-6.85,15-10.47S518.91,380.13,513.57,380.12Z"/><path class="cls-16" d="M478.63,438.69A27.94,27.94,0,0,0,495,447c10.3,1.33,12.27-2.45,12.27-2.45l-.47,3.12s-12.64,1.51-20,.66-7.6-3.4-7.6-3.4Z"/><path class="cls-17" d="M379.43,201.16S228.85,451.5,201.52,456.78a2.87,2.87,0,0,1-2.68-.45,47.79,47.79,0,0,1-3.2-4.18C180.38,432.45,158.45,413,162,401.33c1.3-4.44,20.55-30.15,45.15-61.59C231,309.2,260,273.25,282.29,246.24c18.92-22.7,33.07-39.08,35.81-40.64C327.37,200.25,364.62,194.05,379.43,201.16Z"/><path class="cls-18" d="M229.68,205.28s-32.12-1.73-47,7.55S134.5,272,137,291.76s78.52,70,78.52,70l43.26,8-70.46-87.15,44.22-77.08Z"/><path class="cls-19" d="M433.19,305.81c-3.06,5.35-21.53,26-45.86,51.61,23.29,26.94,40.58,49.26,43.58,57.8,10.24,29-29.82,58.79-47.5,67.53-6.91,3.46-37.51-19.18-72.87-48.93-9,8.41-17.68,16.31-25.71,23.35-.39.33-.85.66-1.3,1.11-.66.59-1.37,1.18-2.09,1.76-20.68,17.82-36.54,29-41.43,26.89-10.7-4.57-29.36-16-41.17-30.6a47.79,47.79,0,0,1-3.2-4.18c-.85-1.24-1.63-2.54-2.35-3.85-4.82-8.28-7-17.22-4.24-26.42,2.55-8.74,18.79-32,40.78-60.35-8.29-7.83-16.05-15.2-22.7-21.79-13.9-13.64-23.56-23.75-25.78-27.28-29.16-45.34,30.73-102.3,48.35-107.19,5.48-1.5,26.29,15.72,52.59,41,7.63,7.24,15.66,15.2,23.94,23.56,35-39.35,66-70.27,73.2-68.64C397.24,205.14,460.07,258.9,433.19,305.81Z"/><path class="cls-20" d="M407,283.3v.07a15.84,15.84,0,0,1-1.76,5.61c-3.13,4.17-16.57,19.7-41.56,45.86l-20.42,21.47,19.31,22.38c25.9,30,34.58,42.8,37.12,46.91-1.69,4.89-10,13.83-19.63,20.94-2-1.3-4.44-3-7.38-5.09-8.74-6.26-21.85-16.44-41.1-32.62l-22.18-18.66-6.53,6.07L288.22,410c-24.66,23.16-39,34.84-46.84,40.58a80.75,80.75,0,0,1-7-5.15c-6.85-5.41-12.2-11.16-13.57-14.74,2.29-4.24,10.24-17.49,34.84-49.2l18.21-23.42-21.6-20.29c-26.29-24.79-40.52-39.6-43.85-43.58-1.89-3.27-3.39-7.77-1.17-15.92,2.87-10.31,10.05-20.49,17.29-28.38,2.09-2.35,4.24-4.51,6.26-6.4,10,8.29,27,23.62,52.26,49.2l17.23,17.42,7.24,7.3,23.1-26c19.11-21.4,33.21-36.15,43.06-45.67,2.54-2.48,4.82-4.64,6.78-6.4,9.07,7.64,20.81,20.29,25.19,33.47A23.26,23.26,0,0,1,407,283.3Z"/><path class="cls-21" d="M349.94,334.84l-20.42,21.47,19.31,22.38c26,30,34.58,42.8,37.13,46.91-1.24,3.78-6.46,9.91-13.25,15.85-8.74-6.26-21.85-16.44-41.1-32.62l-22.18-18.66H295.66L274.52,410c-18.85,17.68-31.71,28.71-40.19,35.43-6.85-5.41-12.2-11.16-13.57-14.74,2.29-4.24,10.24-17.49,34.84-49.2l18.21-23.42-21.6-20.29c-26.29-24.79-40.52-39.6-43.85-43.58-1.89-3.27-3.39-7.77-1.17-15.92,2.87-10.31,10.05-20.49,17.29-28.38,10.24,9,24.92,22.7,44.76,42.8l24.46,24.72h13.77l23.1-26c19.11-21.4,33.21-36.15,43.06-45.67,7.44,7.43,14.94,17.09,18.26,27.07,2.68,8.09,1.38,12.72-.39,16.12C388.37,293.15,374.93,308.68,349.94,334.84Z"/><path class="cls-22" d="M300.44,443.17s47.68,32.83,82.94,39.59c0,0-29.66-10.34-72.82-49Z"/><path class="cls-23" d="M182.73,212.83S195.5,206.74,222,209s72.77,49.36,72.77,49.36S249.48,210,233.1,203.25,182.73,212.83,182.73,212.83Z"/><path class="cls-24" d="M316,205.59s-24.72,28-23.08,37.93S314,255.81,333.56,240s45.89-38.84,45.89-38.84S355.18,191.15,316,205.59Z"/><path class="cls-10" d="M139.69,298.37c5.33-26.83,90.15,63.13,90.15,63.13s-19-2.7-27.09-8.45S152.29,319,139.69,298.37Z"/><path class="cls-10" d="M300.44,443.17s11.17-8.36,15-5.08,37.73,31.74,37.7,34.59S300.44,443.17,300.44,443.17Z"/><path class="cls-10" d="M281.44,460c-20.68,17.82-36.54,29-41.43,26.89-10.7-4.57-29.36-16-41.17-30.6a47.79,47.79,0,0,1-3.2-4.18C180.38,432.45,158.45,413,162,401.33c0,0,12,25.44,31.31,47a109.64,109.64,0,0,0,8.23,8.48c1.5,1.44,3,2.81,4.56,4.11C231.66,482.42,264,474.07,281.44,460Z"/><path class="cls-25" d="M142.12,280.81c.76,13.06,22.25,12.45,26.88,6.68s2-21.75,26.27-53.73S162.72,196.34,142.12,280.81Z"/><path class="cls-26" d="M343.29,356.31s60.24-61.82,62-67.33C405.27,289,380.15,330.54,343.29,356.31Z"/><path class="cls-27" d="M232.12,318.53s26.33,34.88,39.81,37.78Z"/><path class="cls-12" d="M407,283.3v.07s-10.7,7.76-13.63,4.11-1.57-31-27.15-23.16-49.65,75.42-59.63,73.07S269.24,292.7,252,282.13s-36.79-20.49-43.65,12.07c-1.89-3.27-3.39-7.77-1.17-15.92,2.87-10.31,10.05-20.49,17.29-28.38,2.09-2.35,4.24-4.51,6.26-6.4,10,8.29,27,23.62,52.26,49.2l17.23,17.42,7.24,7.3,23.1-26c19.11-21.4,33.21-36.15,43.06-45.67,2.54-2.48,4.82-4.64,6.78-6.4,9.07,7.64,20.81,20.29,25.19,33.47A23.26,23.26,0,0,1,407,283.3Z"/><path class="cls-14" d="M373.85,199.31c-8.4,6.5,11.44,13,18,12.86S385.13,200.65,373.85,199.31Z"/><path class="cls-14" d="M220.53,204.7c-12.09,2.54-11.45,9.89-6.2,11.89s26.58-.94,26.27-4.42S230.75,202.56,220.53,204.7Z"/><path class="cls-15" d="M308,392.81c-3.11,0-18.86,18.93,7.2,13.47C322.33,404.78,317.24,392.81,308,392.81Z"/><path class="cls-28" d="M220.76,430.69s8.74,11,15.91,13.57,15.36-2,15.36-2-5.76,7.73-10.65,8.34S223.54,437.54,220.76,430.69Z"/><path class="cls-29" d="M367.7,437.78s7.72,4.17,14.14,4,17.88-16.16,17.88-16.16-9.77,18.32-17.13,19.83S367.7,437.78,367.7,437.78Z"/><path class="cls-30" d="M113.67,403.55s-5.83-.3-13.76-.77c-.42-.07-.89-.07-1.31-.12-15.07-.9-36.6-2.52-40.53-4.07-1.42-.54-2.73-3.47-3.78-7.71-3.68-14.05-5-42.92-1.42-51.35,4.25-9.74,35.18-15.42,41.63-16.56l1.21-.18L113,400.5Z"/><path class="cls-31" d="M200.67,371.21v.06c-1.21,11.78-4.72,22.54-11.87,26.48-5.82,3.23-45.83,6.58-75.13,5.8-5-.12-9.66-.36-13.76-.77-.42-.07-.89-.07-1.31-.12-8.45-.9-14.44-2.4-15.91-4.67,0-.06,0-.06,0-.12-9-13.93-13.55-60.31-.53-70.65,2.21-1.74,6.57-3.11,12.39-4.25l1.21-.18c29.62-5.2,93.15-2.63,100.55,8.67C199.73,336.78,202.4,355,200.67,371.21Z"/><path class="cls-10" d="M200.67,371.27c-1.21,11.78-4.72,22.54-11.87,26.48-5.82,3.23-45.83,6.58-75.13,5.8-5-.12-9.66-.36-13.76-.77-.42-.07-.89-.07-1.31-.12-15.07-.9-36.6-2.52-40.53-4.07-1.42-.54-2.73-3.47-3.78-7.71,1.26,2.63,12.75,5.08,28.35,7,9.08,1.14,19.63,2,30.35,2.63,25.09,1.44,51.19,1.2,62.58-1.91C194,393.57,199.2,378.56,200.67,371.27Z"/><path class="cls-32" d="M82.21,333.23c-10.78,5.94,26.08,30.7,70.4,42.49s46.12-30,39.51-40S109.47,318.2,82.21,333.23Z"/><path class="cls-14" d="M76.57,336.33c-2.81,14.42,19.5-2.59,19.32-8.06S78.69,325.5,76.57,336.33Z"/><path class="cls-10" d="M51.81,343.24c9.59-13.1,19.79,5.64,21.28,28.83S60.16,398.7,57.42,395.55,48.43,374.18,51.81,343.24Z"/></g></g></svg>