<svg xmlns="http://www.w3.org/2000/svg" xmlns:xlink="http://www.w3.org/1999/xlink" viewBox="0 0 1398.12 788.33"><defs><style>.cls-1{isolation:isolate;}.cls-2,.cls-3{fill:#486baf;}.cls-3{stroke:#000;stroke-width:10px;}.cls-10,.cls-24,.cls-25,.cls-26,.cls-27,.cls-29,.cls-3,.cls-30,.cls-49,.cls-75{stroke-miterlimit:10;}.cls-4,.cls-71{fill:#293b98;}.cls-14,.cls-16,.cls-18,.cls-19,.cls-20,.cls-37,.cls-4,.cls-44,.cls-45,.cls-49,.cls-50,.cls-52,.cls-53,.cls-54,.cls-56,.cls-57,.cls-58,.cls-6,.cls-60,.cls-61,.cls-62,.cls-63,.cls-64,.cls-68,.cls-70,.cls-74{mix-blend-mode:multiply;}.cls-4,.cls-70{opacity:0.25;}.cls-5{fill:#f0ac9a;}.cls-14,.cls-16,.cls-18,.cls-19,.cls-20,.cls-50,.cls-52,.cls-53,.cls-54,.cls-56,.cls-57,.cls-58,.cls-6,.cls-60,.cls-61,.cls-68{opacity:0.54;}.cls-6{fill:url(#linear-gradient);}.cls-7{fill:#f7bc9a;}.cls-8{fill:#f36f11;}.cls-9{fill:#121416;}.cls-10,.cls-23,.cls-24,.cls-25,.cls-26,.cls-27,.cls-29,.cls-30,.cls-33,.cls-38,.cls-40,.cls-49,.cls-75,.cls-77{fill:none;}.cls-10,.cls-23{stroke:#eff5f6;stroke-width:0.45px;}.cls-11{fill:#f64c36;}.cls-12{fill:#404247;}.cls-12,.cls-32,.cls-39{mix-blend-mode:screen;}.cls-13{fill:#fff;}.cls-14{fill:url(#linear-gradient-2);}.cls-15{fill:#72141e;}.cls-16{fill:url(#linear-gradient-3);}.cls-17{fill:#0b0e2b;}.cls-18{fill:url(#linear-gradient-4);}.cls-19{fill:url(#linear-gradient-5);}.cls-20{fill:url(#linear-gradient-6);}.cls-21{fill:url(#linear-gradient-7);}.cls-22{fill:#eff5f6;}.cls-23,.cls-33,.cls-38,.cls-77{stroke-linecap:round;stroke-linejoin:round;}.cls-24,.cls-25,.cls-33{stroke:#0b0d36;}.cls-24{stroke-width:2.6px;}.cls-25,.cls-27{stroke-width:6.51px;}.cls-26{stroke:#dae8ed;}.cls-26,.cls-30{stroke-width:1.3px;}.cls-27,.cls-29,.cls-38,.cls-77{stroke:#fff;}.cls-28{fill:#0b0d36;}.cls-29{stroke-width:5.21px;}.cls-30{stroke:#b0d0e5;}.cls-31{fill:#141d59;}.cls-32{opacity:0.39;}.cls-33{stroke-width:3.91px;}.cls-34{fill:#f9d715;}.cls-35{fill:#f5b569;}.cls-36,.cls-37,.cls-74{fill:#f49b49;}.cls-37{opacity:0.55;}.cls-38{stroke-width:0.91px;}.cls-41{fill:#070706;}.cls-42{fill:#23479d;opacity:0.36;}.cls-43{fill:#8ea83d;}.cls-45{fill:#263526;opacity:0.4;}.cls-46{fill:#a4bf62;}.cls-47{mix-blend-mode:luminosity;}.cls-48{fill:#7e99c8;}.cls-49{stroke:#a5c5df;stroke-width:2.14px;}.cls-49,.cls-64{opacity:0.5;}.cls-50{fill:url(#linear-gradient-8);}.cls-51{fill:#ce4f0c;}.cls-52{fill:url(#linear-gradient-9);}.cls-53{fill:url(#linear-gradient-10);}.cls-54{fill:url(#linear-gradient-11);}.cls-55{fill:#193472;}.cls-56{fill:url(#linear-gradient-12);}.cls-57{fill:url(#linear-gradient-13);}.cls-58{fill:url(#linear-gradient-14);}.cls-59{fill:#255fa9;}.cls-60{fill:url(#linear-gradient-15);}.cls-61{fill:url(#linear-gradient-16);}.cls-62{fill:#f8a711;}.cls-63{fill:url(#linear-gradient-17);}.cls-65{fill:#cb727d;}.cls-66{fill:#1a1c1c;}.cls-67{fill:#d1333d;}.cls-68{fill:url(#linear-gradient-18);}.cls-69{fill:#dcdedf;}.cls-72{opacity:0.9;}.cls-73{fill:#f7b644;}.cls-75{stroke:#141d59;stroke-width:2.85px;}.cls-76{fill:#102c90;}.cls-77{stroke-width:1.18px;}</style><linearGradient id="linear-gradient" x1="433.2" y1="456.12" x2="395.38" y2="492.19" gradientUnits="userSpaceOnUse"><stop offset="0" stop-color="#ec948b" stop-opacity="0"/><stop offset="0.19" stop-color="#ec948b" stop-opacity="0.01"/><stop offset="0.33" stop-color="#ec948b" stop-opacity="0.05"/><stop offset="0.44" stop-color="#ec948b" stop-opacity="0.12"/><stop offset="0.55" stop-color="#ec948b" stop-opacity="0.21"/><stop offset="0.65" stop-color="#ec948b" stop-opacity="0.33"/><stop offset="0.75" stop-color="#ec948b" stop-opacity="0.48"/><stop offset="0.84" stop-color="#ec948b" stop-opacity="0.66"/><stop offset="0.93" stop-color="#ec948b" stop-opacity="0.86"/><stop offset="0.99" stop-color="#ec948b"/></linearGradient><linearGradient id="linear-gradient-2" x1="504.8" y1="463.92" x2="486.11" y2="509.07" xlink:href="#linear-gradient"/><linearGradient id="linear-gradient-3" x1="481.57" y1="368.22" x2="451.71" y2="396.45" xlink:href="#linear-gradient"/><linearGradient id="linear-gradient-4" x1="499.26" y1="463.47" x2="487.87" y2="470.97" xlink:href="#linear-gradient"/><linearGradient id="linear-gradient-5" x1="413.06" y1="461.29" x2="408.26" y2="463.67" xlink:href="#linear-gradient"/><linearGradient id="linear-gradient-6" x1="465.84" y1="408.77" x2="455.2" y2="404.5" xlink:href="#linear-gradient"/><linearGradient id="linear-gradient-7" x1="499.02" y1="479.6" x2="497.84" y2="480.38" xlink:href="#linear-gradient"/><linearGradient id="linear-gradient-8" x1="787.33" y1="302.15" x2="790.87" y2="303.57" gradientUnits="userSpaceOnUse"><stop offset="0" stop-color="#ec948b" stop-opacity="0"/><stop offset="0.99" stop-color="#ec948b"/></linearGradient><linearGradient id="linear-gradient-9" x1="824.03" y1="312.71" x2="837.5" y2="359.65" xlink:href="#linear-gradient"/><linearGradient id="linear-gradient-10" x1="833.02" y1="324.55" x2="851.12" y2="330.27" xlink:href="#linear-gradient-8"/><linearGradient id="linear-gradient-11" x1="851.15" y1="300.38" x2="916.04" y2="270.99" xlink:href="#linear-gradient"/><linearGradient id="linear-gradient-12" x1="892.51" y1="322.03" x2="923.53" y2="367.74" xlink:href="#linear-gradient"/><linearGradient id="linear-gradient-13" x1="875.33" y1="256.09" x2="896.14" y2="243.03" xlink:href="#linear-gradient-8"/><linearGradient id="linear-gradient-14" x1="898.46" y1="329.02" x2="920.29" y2="328.41" xlink:href="#linear-gradient-8"/><linearGradient id="linear-gradient-15" x1="880.39" y1="518.35" x2="883.93" y2="538.49" xlink:href="#linear-gradient-8"/><linearGradient id="linear-gradient-16" x1="825.31" y1="333.47" x2="827.25" y2="336.94" xlink:href="#linear-gradient-8"/><linearGradient id="linear-gradient-17" x1="880.26" y1="269.39" x2="904.21" y2="258.37" xlink:href="#linear-gradient-8"/><linearGradient id="linear-gradient-18" x1="901.37" y1="343.03" x2="902.74" y2="344" xlink:href="#linear-gradient-8"/></defs><g class="cls-1"><g id="Layer_1" data-name="Layer 1"><rect class="cls-2" x="-1.98" y="-1.98" width="1398.12" height="788.33"/><rect class="cls-3" x="118.88" y="91.53" width="1160.36" height="605.28" rx="63.13"/><path class="cls-4" d="M514.8,752.57c.5-.52.39-1.21.77-1.59,10.28-10-27-17.86-61-17.86S385.5,741,392.55,751c.35.5.36,1.22,1,1.8-83.46,1.59-157.77,6.05-157.77,11.3,0,17,108.43,17,224.7,17s210.54,0,210.54-17C671,758.57,604.75,753.92,514.8,752.57Z"/><path class="cls-5" d="M432.85,494.86c-22.06,10.35-42.24,4.54-40.16-10,.82-5.84,2.05-12.79,3.25-19,.23-1.23.47-2.41.7-3.56,1.48-7.67,2.75-13.51,2.75-13.51L425,451.15S454.9,484.53,432.85,494.86Z"/><path class="cls-6" d="M432.85,494.86c-22.06,10.35-42.24,4.54-40.16-10,.82-5.84,2.05-12.79,3.25-19,.23-1.23.47-2.41.7-3.56,1.48-7.67,2.75-13.51,2.75-13.51L425,451.15S454.9,484.53,432.85,494.86Z"/><path class="cls-7" d="M433.94,712.68s-.51,12.15-.58,15.4a5.26,5.26,0,0,1,1.12,4.46c-.24,2.31-12.71,3.12-13.52,1.89.08-4.53-.22-13.52-.22-13.52"/><path class="cls-8" d="M420.35,730.37c0-.09.46-1.17,3-.79s3.81,2.46,6.57,2.65,3.7-1.17,3.89-1.94a7.65,7.65,0,0,0-.37-2.62s.58-.28,1.66.61,2.62,4.48,4.44,4.79,5.07.62,6.06,2.47.45,2.44.45,2.44.46.21.56,1.21-.86,1.64-1.67,2.29-2.43,1.76-6.34,2.06-5.24.94-6.82,2.08a9.88,9.88,0,0,1-5.93,2c-3,.2-8-.69-8.58-2.18s.5-3.42.5-3.42a28.05,28.05,0,0,1,.61-5.73c.6-2.36,1.48-2.62,1.7-3.67S420,731.14,420.35,730.37Z"/><path class="cls-7" d="M489.71,706.77s-1.13,18.06-1.19,21.31a5.29,5.29,0,0,1,1.11,4.46c-.23,2.31-12.71,3.12-13.52,1.89.08-4.53-.22-13.52-.22-13.52"/><path class="cls-8" d="M475.51,730.37c0-.09.45-1.17,3-.79s3.81,2.46,6.57,2.65,3.7-1.17,3.89-1.94a7.65,7.65,0,0,0-.37-2.62s.58-.28,1.66.61,2.62,4.48,4.44,4.79,5.07.62,6.07,2.47.44,2.44.44,2.44.47.21.56,1.21-.86,1.64-1.67,2.29-2.43,1.76-6.34,2.06-5.24.94-6.82,2.08a9.88,9.88,0,0,1-5.93,2c-3,.2-8-.69-8.58-2.18s.5-3.42.5-3.42a28.05,28.05,0,0,1,.61-5.73c.6-2.36,1.48-2.62,1.7-3.67S475.17,731.14,475.51,730.37Z"/><path d="M446.63,739.18c.1,1-.86,1.65-1.67,2.3s-2.43,1.76-6.34,2.07-5.24.93-6.81,2.08a9.91,9.91,0,0,1-5.93,2c-3,.19-8-.69-8.6-2.19a3.68,3.68,0,0,1,.09-2.48c.89,1.39,5.61,2.23,8.51,2a9.91,9.91,0,0,0,5.93-2c1.57-1.15,2.89-1.77,6.81-2.08s5.54-1.41,6.34-2.06a8.71,8.71,0,0,0,1.2-1,.41.41,0,0,1-.09.18S446.54,738.2,446.63,739.18Z"/><path d="M501.78,739.18c.11,1-.86,1.65-1.66,2.3s-2.45,1.76-6.35,2.07-5.25.93-6.81,2.08a9.92,9.92,0,0,1-5.95,2c-3,.19-7.95-.69-8.58-2.19a3.68,3.68,0,0,1,.09-2.48c.9,1.39,5.61,2.23,8.49,2a9.92,9.92,0,0,0,5.95-2c1.56-1.15,2.9-1.77,6.81-2.08s5.54-1.41,6.35-2.06a8.61,8.61,0,0,0,1.19-1,.41.41,0,0,1-.09.18S501.69,738.2,501.78,739.18Z"/><path class="cls-9" d="M470.91,525.5s-4.15,10.83-4.39,12.19-14.63,17.81-14.63,17.81c-.05.27-.15,3.34-.32,8.07-.57,15.74-1.86,49.77-4.3,59.3C444.11,635.26,435,726.45,435,726.45s-1.12.28-2.8.61l-3.78.58h0c-3.81.45-8.23.51-10.16-1.2-2.59-25.76-11.92-71.7-.23-105.39-1.73-17.34-2.3-34.81-2.68-46.26a68.89,68.89,0,0,0-4.06-21.08c-2.81-7.78-4.82-19,2.87-36.21.56-1.25,1.18-2.54,1.84-3.85,17.48-.16,45.65,2,45.65,2l2.62,2.79,4.11,4.39Z"/><path class="cls-9" d="M490.56,723.83a9.44,9.44,0,0,1-2.95,1.47l-4,.9a38.36,38.36,0,0,1-10.1-.2c-2.14-14.08-10.94-52.55-5.31-104.29-.64-5.22-11.25-43.49-16.61-58.14a28.3,28.3,0,0,0-2.34-5.35c-3.41-4.65-13.47-12.59-9.67-30.4l14.05-5.34,10.67-4.07,20.3-7.72.68,5.68c2.44,20.18,10.55,87.89,11.27,99.73C497.38,630,490.56,723.83,490.56,723.83Z"/><path class="cls-10" d="M475.8,515.63S479,526.84,483.64,554s9.45,60.58,9.22,66.82-5.25,104.51-5.25,104.51"/><path class="cls-10" d="M474.14,515.63S477.37,526.84,482,554s9.45,60.58,9.22,66.82S486,725.67,486,725.67"/><path class="cls-11" d="M410.16,430.35l-10.42,30a19.83,19.83,0,0,0,18.56,7.43C427,454.84,410.16,430.35,410.16,430.35Z"/><path class="cls-12" d="M439.36,528.83a22.06,22.06,0,0,0-.63,8,29.37,29.37,0,0,0,1.9,7.8A43.61,43.61,0,0,0,449.39,558l0,0,0,0c.67,1.46,1.23,3,1.79,4.47s1.09,3,1.59,4.54c-1.22-3-2.41-5.94-3.81-8.8l.05.06a40.82,40.82,0,0,1-5.31-6.18,32,32,0,0,1-3.87-7.23,25.89,25.89,0,0,1-1.73-8.06A19.1,19.1,0,0,1,439.36,528.83Z"/><path class="cls-13" d="M425.16,412.57l-.93,14.14s-6.91,28.14-10.33,40.94a18.93,18.93,0,0,1-3.11.44A26.47,26.47,0,0,1,395,463.62s.32-1.32.86-3.47c2.18-8.64,7.91-30.83,10.7-36.36C411.76,413.39,425.16,412.57,425.16,412.57Z"/><path class="cls-13" d="M411.23,436.54s-.4,48.14-1.53,68.43a10.15,10.15,0,0,0,8.13,10.59c16.56,3.16,44.83,5.78,62.08.44A10.46,10.46,0,0,0,487,504.63c-2.49-19.35-8.95-44.25-8.95-44.25l2.34-28-10.51-3.31H439.82Z"/><path class="cls-5" d="M536.31,475.64C527.73,486.25,512,501.14,496.4,505A14.79,14.79,0,0,1,480,497.63a104.37,104.37,0,0,1-7.45-17.41c-.45-1.35-.88-2.64-1.25-3.9-1.88-6.21-2.9-11.14-2.79-12.38.21-2.72,14.06-20.2,17.66-14.25.43.71,2.57-4.85,4.43,4.78.52,2.63,1.95,7.85,3.64,13.45.36,1.21.74,2.43,1.13,3.63.84,2.65,1.7,5.28,2.56,7.65.21.62.42,1.22.64,1.81,10.56-4.05,22.25-8.6,32.4-14.24C532.72,469.93,533.54,472.3,536.31,475.64Z"/><path class="cls-14" d="M536.31,475.64C527.73,486.25,512,501.14,496.4,505A14.79,14.79,0,0,1,480,497.63a104.37,104.37,0,0,1-7.45-17.41c-.45-1.35-.88-2.64-1.25-3.9-1.88-6.21-2.9-11.14-2.79-12.38.21-2.72,14.06-20.2,17.66-14.25.43.71,2.57-4.85,4.43,4.78.52,2.63,1.95,7.85,3.64,13.45.36,1.21.74,2.43,1.13,3.63.84,2.65,1.7,5.28,2.56,7.65.21.62.42,1.22.64,1.81,10.56-4.05,22.25-8.6,32.4-14.24C532.72,469.93,533.54,472.3,536.31,475.64Z"/><path class="cls-13" d="M496.61,468.14s-13,10.51-28.25,9.64c-.5-1.86-.95-3.78-1.34-5.71a190.79,190.79,0,0,1-3.33-33.5l10.6-22.33s10.49,4.25,15.57,22.75c2.64,9.62,4.63,18.62,5.73,24C496.26,466.22,496.61,468.14,496.61,468.14Z"/><path class="cls-15" d="M411.31,439a259.53,259.53,0,0,1-.54,30.93,259.53,259.53,0,0,1,.54-30.93Z"/><path class="cls-13" d="M487.57,442c.14.55-5.34,4.86-5.24,5.4-27.2,16.7-34.33-1.13-35.06-1.42s-11.35-2.26-11.35-2.26L425.75,442l-6.49-4.66s1.18-20.48,1.56-21.08-3.25-1.86-2.5-2.17c2.68-1.17,8.31-2.28,12.42-3,1.45-.26,2.7-.46,3.57-.59h.09l1.22-.19s3.39,5.06,11.79,5.66a17.08,17.08,0,0,0,2.68,0h.06a12.06,12.06,0,0,0,2.64-.49c3.81-1.19,5.13-3.93,7.6-4.49,1.41.31,2.75.64,4,1C483.75,417.57,484.39,429,487.57,442Z"/><path class="cls-5" d="M461.82,399.65l-5.95.18s-.49,5.09,1,8.39a3.93,3.93,0,0,0,3.56,2.78c-1.49,5.36-7.81,7.61-14,7.55a16.61,16.61,0,0,1-12.6-6.15c-.75-.89-1.18-1.53-1.18-1.53a7.59,7.59,0,0,0,1.7-.35h.09c1.14-.37,2.49-1.08,2.75-2.43.06-.24.15-1.44.25-3,.22-3.23.47-8,.47-8l8.88-20.42s9.29-6.44,10-6.44,11.74-1.42,11.74-1.42S477.24,397.49,461.82,399.65Z"/><path class="cls-16" d="M461.82,399.65l-5.95.18s-.49,5.09,1,8.39a3.93,3.93,0,0,0,3.56,2.78c-1.49,5.36-7.81,7.61-14,7.55a16.61,16.61,0,0,1-12.6-6.15c-.75-.89-1.18-1.53-1.18-1.53a7.59,7.59,0,0,0,1.7-.35h.09c1.14-.37,2.49-1.08,2.75-2.43.06-.24.15-1.44.25-3,.22-3.23.47-8,.47-8l8.88-20.42s9.29-6.44,10-6.44,11.74-1.42,11.74-1.42S477.24,397.49,461.82,399.65Z"/><path d="M468.48,368.88a22.6,22.6,0,0,1-8.56,6.82,55.81,55.81,0,0,0,0,9.1s-1.93-5.19-3.68-5.55-6.83,1.25-4.73,7.16a12.8,12.8,0,0,0,3.33,5s1.82,7.43-15.94,7.4c-12.4.52-19.25-14.95-17.17-27.79,1.84-11.34,9.28-15,12.79-15.2,3-3,10.47-9,18.75-5.19,8.54,3.89,7.79-3.3,11.14-1.11C469.41,352.79,472.49,363.08,468.48,368.88Z"/><path class="cls-13" d="M459.9,384.8s8.07,1.52,11.06-4.35c1.67,6.84,1.37,16.84-6.13,19.07a7.16,7.16,0,0,1-8.37-4,40.55,40.55,0,0,1-1.64-4.09C456.57,392.31,461.65,392.13,459.9,384.8Z"/><path class="cls-17" d="M467.87,376.31c-.56-.83-1.39-1-2.07.7-.43,1.07-.53,3.17.94,3.41C469,380.79,468.78,377.67,467.87,376.31Z"/><path class="cls-17" d="M463.48,373.87c.9-1.41,4.33-2.67,5.27-.62.07.16-.09.32-.24.2a2.68,2.68,0,0,0-2.6-.68,6.84,6.84,0,0,0-2.32,1.2c-.06,0-.15,0-.11-.1Z"/><path class="cls-13" d="M468,378.27a.7.7,0,0,1-.54.83.68.68,0,0,1-.81-.55.69.69,0,1,1,1.35-.28Z"/><path class="cls-13" d="M460.91,419c-3.7,2.27-11.42,4.82-11.42,4.82l-9.3-.89-12-6.1-.52-4.23,3.15-1.19.89-.35,2.86-.51s2.47,6.5,13.16,5.75c.84-.09,1.62-.18,2.37-.29h.06c.94-.15,1.82-.31,2.64-.49,3.49-.84,5.9-2.16,7.6-4.49a18.94,18.94,0,0,1,2.36,2.92C464,416,463.53,417.37,460.91,419Z"/><path class="cls-8" d="M464.39,412a9.21,9.21,0,0,1-1.64,1.92,22.82,22.82,0,0,1-18.05,5.87c-10.84-1.05-13.5-7.33-14-8.68l3.82-.59s2.47,6.5,13.16,5.75c.84-.09,1.62-.18,2.37-.29h.06c.94-.15,1.82-.31,2.64-.49,3.49-.84,5.9-2.16,7.6-4.49C461.8,411.31,463.14,411.64,464.39,412Z"/><path class="cls-5" d="M531,466.78c2.61-2,3.3-2.13,3.91-3.9s.92-8,2.37-8.8,1.61,5.1,2,5.71,1-1.94,2.94-.79,4.67,7.59,2.51,11.66-7.21,3.47-8.45,5a4.44,4.44,0,0,1-3.49,1.32Z"/><path class="cls-18" d="M495.38,471.55c-3.2,2.25-12.17,7.91-22.82,8.67-.45-1.35-.88-2.64-1.25-3.9a49.09,49.09,0,0,0,22.94-8.4C494.61,469.13,495,470.35,495.38,471.55Z"/><path class="cls-8" d="M496.61,468.14s-13,10.51-28.25,9.64c-.5-1.86-.56-1.85-.95-3.78a47.76,47.76,0,0,0,28.45-9.72C496.52,467.51,496.61,468.14,496.61,468.14Z"/><path class="cls-15" d="M468.35,477.78a96.82,96.82,0,0,1-4.93-22c2,7.28,3.59,14.61,4.93,22Z"/><path class="cls-19" d="M410.88,465.77c0,1.53-.07,3.1-.09,3.85a26.36,26.36,0,0,1-14.85-3.83c.23-1.23.47-2.41.7-3.56A24.13,24.13,0,0,0,410.88,465.77Z"/><path class="cls-8" d="M410.88,464.24c0,1.53-.07,3.1-.09,3.85A26.47,26.47,0,0,1,395,463.62s.32-1.32.86-3.47A23.78,23.78,0,0,0,410.88,464.24Z"/><path class="cls-20" d="M460.39,411c-7.4.13-7.49-11.66-7.49-11.66l3,.49s-.49,5.09,1,8.39A3.93,3.93,0,0,0,460.39,411Z"/><path class="cls-21" d="M498.58,481l-2,.89,1.33-2.7C498.15,479.82,498.36,480.42,498.58,481Z"/><path class="cls-22" d="M485.94,522c.55,4.23-1.68,9.93-6.53,10.15,4.29-1.52,5.7-6.09,6.53-10.15Z"/><path class="cls-10" d="M473.16,738.53s1.25-2.71,5.29-1.41,4.89,6.81,5,7.53"/><path class="cls-10" d="M418,738.53s1.26-2.71,5.29-1.41,4.89,6.81,5,7.53"/><path class="cls-23" d="M438.38,732.11a3.53,3.53,0,0,1,.34,1.68"/><path class="cls-23" d="M440.47,733a3.39,3.39,0,0,1,.34,1.68"/><path class="cls-23" d="M493.39,732.11a3.53,3.53,0,0,1,.34,1.68"/><path class="cls-23" d="M495.49,733a3.46,3.46,0,0,1,.33,1.68"/><line class="cls-24" x1="305.03" y1="607.82" x2="323.18" y2="698.06"/><polyline class="cls-25" points="355.57 607.82 370.4 607.82 379.49 615.82"/><line class="cls-26" x1="323.18" y1="627.95" x2="323.18" y2="698.06"/><line class="cls-26" x1="372.76" y1="648.48" x2="323.18" y2="698.06"/><line class="cls-26" x1="393.29" y1="698.06" x2="323.18" y2="698.06"/><line class="cls-26" x1="372.76" y1="747.64" x2="323.18" y2="698.06"/><line class="cls-26" x1="323.18" y1="768.17" x2="323.18" y2="698.06"/><line class="cls-26" x1="273.6" y1="747.64" x2="323.18" y2="698.06"/><line class="cls-26" x1="253.07" y1="698.06" x2="323.18" y2="698.06"/><line class="cls-26" x1="273.6" y1="648.48" x2="323.18" y2="698.06"/><line class="cls-26" x1="296.35" y1="633.29" x2="323.18" y2="698.06"/><line class="cls-26" x1="350.01" y1="633.29" x2="323.18" y2="698.06"/><line class="cls-26" x1="387.95" y1="671.23" x2="323.18" y2="698.06"/><line class="cls-26" x1="387.95" y1="724.89" x2="323.18" y2="698.06"/><line class="cls-26" x1="350.01" y1="762.83" x2="323.18" y2="698.06"/><line class="cls-26" x1="296.35" y1="762.83" x2="323.18" y2="698.06"/><line class="cls-26" x1="258.41" y1="724.89" x2="323.18" y2="698.06"/><line class="cls-26" x1="258.41" y1="671.23" x2="323.18" y2="698.06"/><line class="cls-27" x1="426.83" y1="698.06" x2="535.68" y2="601.18"/><line class="cls-27" x1="380.69" y1="575.52" x2="426.83" y2="698.06"/><path class="cls-28" d="M426.83,679.65a18.41,18.41,0,0,1,0,36.82L323.18,705.82a7.76,7.76,0,1,1,0-15.52l103.65-10.65m0-1.3h-.13L323.11,689a9.06,9.06,0,0,0,0,18.12L426.7,717.77h.13a19.71,19.71,0,1,0,0-39.42Z"/><path class="cls-28" d="M323.18,624.37a73.69,73.69,0,1,0,73.69,73.69A73.69,73.69,0,0,0,323.18,624.37Zm0,140.91a67.22,67.22,0,1,1,67.22-67.22A67.23,67.23,0,0,1,323.18,765.28Z"/><path class="cls-28" d="M330.94,698.06a7.76,7.76,0,1,1-7.76-7.76A7.75,7.75,0,0,1,330.94,698.06Z"/><path class="cls-13" d="M326.89,698.06a3.71,3.71,0,1,1-3.71-3.71A3.71,3.71,0,0,1,326.89,698.06Z"/><path class="cls-29" d="M399.34,676.6a79.12,79.12,0,0,0-152.32,0"/><line class="cls-26" x1="572.38" y1="627.95" x2="572.38" y2="698.06"/><line class="cls-26" x1="621.96" y1="648.48" x2="572.38" y2="698.06"/><line class="cls-26" x1="642.49" y1="698.06" x2="572.38" y2="698.06"/><line class="cls-26" x1="621.96" y1="747.64" x2="572.38" y2="698.06"/><line class="cls-26" x1="572.38" y1="768.17" x2="572.38" y2="698.06"/><line class="cls-26" x1="522.8" y1="747.64" x2="572.38" y2="698.06"/><line class="cls-26" x1="502.27" y1="698.06" x2="572.38" y2="698.06"/><line class="cls-26" x1="522.8" y1="648.48" x2="572.38" y2="698.06"/><line class="cls-30" x1="545.55" y1="633.29" x2="572.38" y2="698.06"/><line class="cls-26" x1="599.21" y1="633.29" x2="572.38" y2="698.06"/><line class="cls-26" x1="637.15" y1="671.23" x2="572.38" y2="698.06"/><line class="cls-26" x1="637.15" y1="724.89" x2="572.38" y2="698.06"/><line class="cls-26" x1="599.21" y1="762.83" x2="572.38" y2="698.06"/><line class="cls-26" x1="545.55" y1="762.83" x2="572.38" y2="698.06"/><line class="cls-26" x1="507.61" y1="724.89" x2="572.38" y2="698.06"/><line class="cls-26" x1="507.61" y1="671.23" x2="572.38" y2="698.06"/><path class="cls-28" d="M583.56,698.06a11.18,11.18,0,1,1-11.18-11.18A11.17,11.17,0,0,1,583.56,698.06Z"/><path class="cls-13" d="M577.73,698.06a5.35,5.35,0,1,1-5.35-5.35A5.36,5.36,0,0,1,577.73,698.06Z"/><path class="cls-29" d="M648.54,676.6a79.12,79.12,0,0,0-152.32,0"/><line class="cls-27" x1="389.51" y1="601.18" x2="535.68" y2="601.18"/><path class="cls-31" d="M410.5,558.84c-.54-3.26-43.89-4.8-47.34.25s-1.32,15.46,14.64,18.2C386.24,578.73,411.59,565.37,410.5,558.84Z"/><g class="cls-32"><path class="cls-31" d="M402.66,559c-.4-1.77-32.57-2.6-35.13.13s-1,8.38,10.86,9.86C384.66,569.75,403.47,562.52,402.66,559Z"/></g><circle class="cls-13" cx="426.83" cy="698.06" r="18.41" transform="translate(-350.86 952.37) rotate(-76.66)"/><path class="cls-28" d="M432.18,698.06a5.35,5.35,0,1,1-5.35-5.35A5.36,5.36,0,0,1,432.18,698.06Z"/><line class="cls-33" x1="426.83" y1="698.06" x2="457.53" y2="729.21"/><line class="cls-24" x1="342.25" y1="607.82" x2="323.18" y2="698.06"/><path class="cls-28" d="M572.38,624.37a73.69,73.69,0,1,0,73.69,73.69A73.69,73.69,0,0,0,572.38,624.37Zm0,140.91a67.22,67.22,0,1,1,67.22-67.22A67.23,67.23,0,0,1,572.38,765.28Z"/><path class="cls-27" d="M572.38,698.06,519.1,557.43a6.07,6.07,0,0,1,5.66-8.25h10.88s9.92,0,11.31,7.72c.93,5.18-4.43,7.79-4.43,7.79"/><rect class="cls-34" x="268.19" y="602.61" width="90.11" height="10.42"/><rect class="cls-35" x="258.41" y="521.97" width="98.04" height="61.5"/><rect class="cls-36" x="264.97" y="583.48" width="98.04" height="19.25"/><polygon class="cls-37" points="294.44 521.97 294.44 555.15 298.11 551.78 301.21 554.45 304.32 551.78 307.43 554.45 310.54 551.78 313.64 554.45 316.75 551.78 320.41 555.15 320.41 521.97 294.44 521.97"/><rect class="cls-37" x="264.97" y="583.48" width="91.38" height="3.81"/><rect class="cls-36" x="267.13" y="502.72" width="98.04" height="19.25"/><path d="M309.7,502.72c5.67-.1,9.62,4,12.5,8.34,3.91,5.93,6.57,12.66,8.77,19.38a145.38,145.38,0,0,1,4.77,19.38c1.92,10.74,4.36,21.38,6.14,32.14,1,5.89,2.08,11.77,3,17.68.45,2.88,2.79,11.07.22,13.38h-1.55a2.57,2.57,0,0,0,.92,1.12,1.81,1.81,0,0,0,1.7-.2c1.9-1.49,1.52-5.43,1.22-8-.58-4.91-1.31-9.78-2.14-14.66-2.09-12.16-4.33-24.25-6.68-36.36-3-15.54-6-32.38-15.4-45.6-3-4.3-7.59-9-13-7.29a2.09,2.09,0,0,0-1,.72Z"/><path d="M298.85,502c-4.24-.14-5.9,3.44-6.58,7.79s-1.27,8.68-1.84,13c-1.42,10.84-2.57,21.71-3.65,32.59-1.74,17.6-3.55,35.29-4.16,53-.05,1.34-.46,3.48.06,4.78,1.12,2.86,7.12,1.73,8.87-.11H289s-3.8.94-4.57-.41a5.32,5.32,0,0,1,0-1.35c0-1.82.08-3.65.16-5.47.32-6.55.81-13.09,1.32-19.62q2.12-27,5.22-53.92c.58-4.9,1.17-9.8,1.82-14.7.3-2.24.61-4.47.94-6.71.55-3.76,1.25-8.24,6.2-8.13h.67S300.78,502,298.85,502Z"/><line class="cls-27" x1="322.61" y1="698.89" x2="389.51" y2="601.18"/><rect class="cls-31" x="455.59" y="716.77" width="6.8" height="24.89" transform="translate(-271.03 1186.91) rotate(-89.9)"/><line class="cls-38" x1="543.46" y1="453.91" x2="545.19" y2="449.18"/><line class="cls-38" x1="548.67" y1="458.95" x2="553.52" y2="457.59"/><line class="cls-38" x1="549.96" y1="452.45" x2="551.4" y2="450.81"/><line class="cls-38" x1="547" y1="455.84" x2="548.87" y2="453.71"/><path d="M426.37,379.33a18.13,18.13,0,0,0,12.49,1.33c-.35-4.8-3.78-6.42-6.25-6.44C429,374.18,427.28,376.46,426.37,379.33Z"/><g class="cls-39"><path class="cls-2" d="M232.69,454.28a7.92,7.92,0,1,1,7.92-7.92A7.93,7.93,0,0,1,232.69,454.28Zm0-13.86a5.94,5.94,0,1,0,5.94,5.94A5.95,5.95,0,0,0,232.69,440.42Z"/><path class="cls-2" d="M1068,103.86a7.93,7.93,0,1,1,7.93-7.93A7.94,7.94,0,0,1,1068,103.86ZM1068,90a5.95,5.95,0,1,0,6,5.94A6,6,0,0,0,1068,90Z"/><path class="cls-2" d="M1225.83,518.44a7.93,7.93,0,1,1,7.93-7.93A7.94,7.94,0,0,1,1225.83,518.44Zm0-13.87a5.95,5.95,0,1,0,6,5.94A6,6,0,0,0,1225.83,504.57Z"/><path class="cls-2" d="M589.07,368.09a7.93,7.93,0,1,1,7.93-7.92A7.93,7.93,0,0,1,589.07,368.09Zm0-13.87a5.95,5.95,0,1,0,5.95,5.95A5.95,5.95,0,0,0,589.07,354.22Z"/><path class="cls-2" d="M855,45.85a1.32,1.32,0,0,1-1.32-1.32V34.34a1.32,1.32,0,1,1,2.64,0V44.53A1.33,1.33,0,0,1,855,45.85Z"/><path class="cls-2" d="M860.05,40.75H849.86a1.32,1.32,0,0,1,0-2.64h10.19a1.32,1.32,0,1,1,0,2.64Z"/><path class="cls-2" d="M1257.3,240.82a1.32,1.32,0,0,1-1.32-1.32V229.31a1.32,1.32,0,0,1,2.64,0V239.5A1.32,1.32,0,0,1,1257.3,240.82Z"/><path class="cls-2" d="M1262.4,235.73h-10.2a1.32,1.32,0,1,1,0-2.64h10.2a1.32,1.32,0,0,1,0,2.64Z"/><path class="cls-2" d="M401.64,194.63a1.32,1.32,0,0,1-1.32-1.32V183.12a1.32,1.32,0,0,1,2.64,0v10.19A1.32,1.32,0,0,1,401.64,194.63Z"/><path class="cls-2" d="M406.74,189.54H396.55a1.33,1.33,0,0,1,0-2.65h10.19a1.33,1.33,0,0,1,0,2.65Z"/><path class="cls-2" d="M1258.62,760.06a1.32,1.32,0,0,1-1.32-1.31v-10.2a1.32,1.32,0,1,1,2.64,0v10.2A1.32,1.32,0,0,1,1258.62,760.06Z"/><path class="cls-2" d="M1263.72,755h-10.2a1.32,1.32,0,1,1,0-2.64h10.2a1.32,1.32,0,1,1,0,2.64Z"/><path class="cls-2" d="M718.65,557.56a1.32,1.32,0,0,1-1.32-1.32V546.05a1.32,1.32,0,1,1,2.64,0v10.19A1.32,1.32,0,0,1,718.65,557.56Z"/><path class="cls-2" d="M723.75,552.46H713.56a1.32,1.32,0,1,1,0-2.64h10.19a1.32,1.32,0,1,1,0,2.64Z"/></g><rect class="cls-40" x="247.14" y="203.49" width="926.74" height="475.73" rx="50.01"/><path class="cls-41" d="M695.48,519.35a.67.67,0,0,1-.69.64.67.67,0,0,1-.63-.66.68.68,0,0,1,.67-.66A.67.67,0,0,1,695.48,519.35Z"/><path class="cls-41" d="M685.92,525.32a.65.65,0,1,1-1.3,0,.65.65,0,0,1,1.3,0Z"/><path class="cls-41" d="M692.4,520.39a.42.42,0,0,1,.44.43.41.41,0,0,1-.47.44.4.4,0,0,1-.41-.45A.41.41,0,0,1,692.4,520.39Z"/><path class="cls-41" d="M685.71,528.43c.16,0,.32.14.33.4a.4.4,0,0,1-.45.46.4.4,0,0,1-.42-.43C685.17,528.59,685.32,528.44,685.71,528.43Z"/><polygon class="cls-42" points="1025.9 708.91 985.01 738.62 985.01 700.3 1025.9 670.59 1025.9 708.91"/><path class="cls-31" d="M1027.29,299.23h0a1.37,1.37,0,0,1-1.37-1.38V274.42a1.37,1.37,0,0,1,1.37-1.37h0a1.37,1.37,0,0,1,1.38,1.37v23.43A1.38,1.38,0,0,1,1027.29,299.23Z"/><path class="cls-31" d="M1027.29,588.46h0a1.37,1.37,0,0,1-1.37-1.38V563.65a1.37,1.37,0,0,1,1.37-1.37h0a1.37,1.37,0,0,1,1.38,1.37v23.43A1.38,1.38,0,0,1,1027.29,588.46Z"/><rect class="cls-42" x="1112.17" y="166.3" width="2.76" height="528.91"/><path class="cls-43" d="M739,619.36c2.5-5.68-.54-10.16-3.85-15.22a19.5,19.5,0,0,1-2.59-15.75c1.69-7.23,5.5-14.21,1.11-21.21-4.12-6.61-8.09-15.33-19.44-18.12-11-3-19.38,3.89-19.19,10.21s5.88,12,3,18.26c-2.16,5.1-5,11.15-.76,16.05,5.06,6.06,14.49,10.33,11,17.7-1.39,2.64-3.66,4.87-4.14,7.54-.57,4,2.64,5,5.52,8.18,12.15,13.45-10.1,18.88-1.37,33.66a1.79,1.79,0,0,0,1.58.66h0c.77,0,1.41-.39,1.49-.87,2.78-16.53,21.47-10.83,21.67-24.22,0-2.5-1.19-5-.72-7.48C732.87,624.93,737.55,623,739,619.36Z"/><g class="cls-44"><path class="cls-43" d="M714.19,624.37c.47.91,1,1.78,1.5,2.63a14.58,14.58,0,0,0,1.91,2.43,11.94,11.94,0,0,0,2.67,2.05,18,18,0,0,0,3.73,1.39,12,12,0,0,1-4.42-.8,10.1,10.1,0,0,1-3.25-2.14,8,8,0,0,1-1.74-2.7A5.69,5.69,0,0,1,714.19,624.37Z"/><path class="cls-43" d="M705.81,587.75a21.37,21.37,0,0,0,1.64,3.28,16.25,16.25,0,0,0,2.38,3,15.31,15.31,0,0,0,3.4,2.54l1,.55,1.1.48c.71.37,1.57.55,2.36.89a17.53,17.53,0,0,1-5.2-1.35,12.82,12.82,0,0,1-3.92-2.6A8.45,8.45,0,0,1,705.81,587.75Z"/><path class="cls-43" d="M730.83,576.26a8.07,8.07,0,0,1-2.42,6.61,12,12,0,0,1-3.88,2.5,15.12,15.12,0,0,1-5.19,1,20.74,20.74,0,0,0,4.51-1.61,13.43,13.43,0,0,0,3.29-2.4,15,15,0,0,0,2.19-2.92A21.53,21.53,0,0,0,730.83,576.26Z"/><path class="cls-43" d="M730.48,603.73a8.75,8.75,0,0,1,.94,3.39,8.27,8.27,0,0,1-.44,3.47,7.23,7.23,0,0,1-2.23,3.24,9.76,9.76,0,0,1-4.51,2,10.51,10.51,0,0,0,3.54-2.39,8.57,8.57,0,0,0,1.75-3,14.16,14.16,0,0,0,.73-3.28C730.37,606,730.47,604.88,730.48,603.73Z"/><path class="cls-43" d="M728.17,636.08c.41,2.41-.75,5-3.4,6.91a13.44,13.44,0,0,1-2.21,1.27,16,16,0,0,1-2.64.87,17.83,17.83,0,0,1-2.83.5c-1,.08-2,.09-2.9.1a36.89,36.89,0,0,0,5.24-1.26,14.61,14.61,0,0,0,4.22-2.1,11.6,11.6,0,0,0,2.87-2.9A12.66,12.66,0,0,0,728.17,636.08Z"/><path class="cls-43" d="M710.72,564a30.31,30.31,0,0,0,3.17,5.87,11.86,11.86,0,0,0,2.46,2.56,12.8,12.8,0,0,0,3.75,1.91,10.75,10.75,0,0,1-4.59-1.4,9.78,9.78,0,0,1-3-2.68,9.67,9.67,0,0,1-1.52-3.07A7.52,7.52,0,0,1,710.72,564Z"/><path class="cls-43" d="M711.71,557.94a16.25,16.25,0,0,1,5.61,5.65,22.88,22.88,0,0,1,2.55,6.53,43,43,0,0,1,.55,13.43c-.25,2.26-.83,4.46-1.23,6.67a41.66,41.66,0,0,0-.8,6.63,21.27,21.27,0,0,0,.74,6.58c.14.54.38,1.07.57,1.6s.51,1,.76,1.56c.61,1,1.21,2.11,1.78,3.17,2.26,4.24,4,8.67,4.27,13.2a22.41,22.41,0,0,1-.6,6.76,23,23,0,0,1-2.63,6.56,33.12,33.12,0,0,1-5.18,5.91,40.89,40.89,0,0,0-5.2,5.78,16.91,16.91,0,0,0-2.84,6.37,21.33,21.33,0,0,0-.17,6.67,19.79,19.79,0,0,1-.23-6.69,16.89,16.89,0,0,1,2.57-6.53,39.72,39.72,0,0,1,5.07-5.92,31.26,31.26,0,0,0,4.91-5.85,23.67,23.67,0,0,0,2.94-13c-.3-4.42-2-8.75-4.32-12.94-.56-1.06-1.14-2.11-1.74-3.16-.26-.54-.56-1.09-.79-1.64s-.43-1.11-.57-1.67a21.9,21.9,0,0,1-.7-6.76,42.37,42.37,0,0,1,.88-6.71c.41-2.22,1.05-4.43,1.37-6.62a42.81,42.81,0,0,0-.13-13.32,21.83,21.83,0,0,0-2.2-6.5A15.88,15.88,0,0,0,711.71,557.94Z"/></g><path class="cls-45" d="M733,635.47c0,.25,0,.51,0,.76-.13,8.79-8.23,9.35-14.56,13.37.74-2.34.91-5.24,3.4-7.16,2.73-1.91,6.37-2.29,9.1-4.59A8.57,8.57,0,0,0,733,635.47Zm2.16-31.33a19.5,19.5,0,0,1-2.59-15.75c.12-.53.26-1,.4-1.57-4.34,1-7.76,3.06-9.82,5.82-6.14,8.21-1.3,13.78,4,20,4.31,5.07,1.51,9.75,2.42,15.1.38,2.24,1.93,4,3.13,5.64a12.32,12.32,0,0,1-.37-4.62c.56-3.82,5.24-5.8,6.7-9.39C741.51,613.68,738.47,609.2,735.16,604.14Zm-22.91,43c-.86-1.16-1.89-2.42-2.07-3.69-2.77,4.58-5.85,9.32-2.54,16l0,.06c.18.38.39.76.62,1.15a.72.72,0,0,0,.18.21l0,0a1.67,1.67,0,0,0,.26.17h0a2.26,2.26,0,0,0,1.1.23h0a2.35,2.35,0,0,0,.83-.18,1,1,0,0,0,.64-.63.14.14,0,0,0,0-.06,16.31,16.31,0,0,1,2.19-6l-1.75.68C713.68,652.41,715,650.83,712.25,647.14Z"/><path class="cls-46" d="M767.58,615.82c-5.46-6.4-5.45-10.63-4.86-17.44.61-7-2.73-16.28-16.07-17.83-10-1.16-18.15,1.43-21.87,6.48-6.14,8.32-1.31,14,4,20.26,4.31,5.14,1.51,9.89,2.42,15.31s8.49,7.95,2.13,13.57c-2.73,2.32-6.37,2.71-9.1,4.65-2.73,2.13-2.67,5.47-3.64,7.94-2.45,6.25-12,5.36-12.42,11.69,0,.47.57.95,1.09.93s.93,0,1.3-.37c2.25-2.55,6-2.16,10.11-3.33,3.08-.88,4-3.31,11.44-3.88,9.68-.75,18.5,3.29,23.35-5,1.82-2.91,1.22-5.42,2.13-8.33.91-3.88,4.85-6.2,8.79-8.91C773.34,626.48,772.43,621.44,767.58,615.82Z"/><g class="cls-44"><path class="cls-46" d="M733.12,595.93c1,.85,2.11,1.66,3.2,2.45a37.33,37.33,0,0,0,3.5,2.24,28.67,28.67,0,0,0,3.95,1.84,25.58,25.58,0,0,0,4.6,1.15,17.91,17.91,0,0,1-5-.68,21.76,21.76,0,0,1-4.28-1.81A18.39,18.39,0,0,1,733.12,595.93Z"/><path class="cls-46" d="M739.8,618.24c.18,1.39.35,2.77.57,4.14s.48,2.74.83,4.09a20,20,0,0,0,1.42,4,8.34,8.34,0,0,0,1.21,1.88,6.21,6.21,0,0,0,1.95,1.61,7.66,7.66,0,0,1-3.92-3.31,13.91,13.91,0,0,1-1.69-4.06,20.46,20.46,0,0,1-.6-4.17A18.84,18.84,0,0,1,739.8,618.24Z"/><path class="cls-46" d="M760.85,609.56a11.53,11.53,0,0,1-.54,4,12.73,12.73,0,0,1-5.55,7.22,14.78,14.78,0,0,1-5.58,1.86,16.34,16.34,0,0,0,5-2.23,14.23,14.23,0,0,0,3.26-3.27,18.6,18.6,0,0,0,2.07-3.7A27.46,27.46,0,0,0,760.85,609.56Z"/><path class="cls-46" d="M751.93,641.46a12.6,12.6,0,0,1-3,4.08,17.92,17.92,0,0,1-4.89,3.3,20.41,20.41,0,0,1-6.56,1.78,25.89,25.89,0,0,1-7-.18,34.65,34.65,0,0,0,6.87-.32,22.2,22.2,0,0,0,11-4.88,20,20,0,0,0,1.95-1.82A18.75,18.75,0,0,0,751.93,641.46Z"/><path class="cls-46" d="M749.65,586a10.8,10.8,0,0,1,1.56,3.18,9,9,0,0,1,.42,3.34,7,7,0,0,1-1.08,3.31,8,8,0,0,1-3.2,2.65,8.93,8.93,0,0,0,2.43-2.83,8.52,8.52,0,0,0,.8-3.16,13.12,13.12,0,0,0-.18-3.24A27.66,27.66,0,0,0,749.65,586Z"/><path class="cls-46" d="M709.35,660.78c.68-1.71,2.95-2.91,5.23-3.77,1.16-.44,2.38-.82,3.6-1.18a20.74,20.74,0,0,0,3.49-1.21,63.17,63.17,0,0,0,11.9-6.8l2.43-2c.39-.35.84-.66,1.18-1l1.06-1.08c.68-.73,1.46-1.42,2.06-2.19l1.77-2.28a19.05,19.05,0,0,0,1.54-2.36c.45-.8,1-1.58,1.37-2.39l1.1-2.46c.17-.41.38-.82.52-1.23l.39-1.26a47.86,47.86,0,0,0,1.79-20.39c-.1-.85-.12-1.71-.27-2.56l-.45-2.55-.44-2.55-.62-2.54c-.7-3.4-1.81-6.76-2.83-10.12,1.19,3.34,2.46,6.68,3.34,10.07.24.84.49,1.69.69,2.53l.52,2.56.52,2.56c.17.85.23,1.71.35,2.57A46.93,46.93,0,0,1,748,629.65c-2.14,6.76-6.8,13.24-13.83,18.51A64.94,64.94,0,0,1,722,654.89a21.87,21.87,0,0,1-3.62,1.16c-1.23.34-2.46.69-3.62,1.1C712.41,658,710.12,659.09,709.35,660.78Z"/></g><path class="cls-45" d="M708.15,660.45c0,.47.57.95,1.09.93h.08c1.63-.79-.43-1.91,2-5.61C709.62,656.85,708.3,658.19,708.15,660.45Z"/><path class="cls-46" d="M710,635.92c-3-6.46-.17-14.77-3.13-19.49-3.62-5.89-9.68-1.41-16.71-9.52-5.9-6.8-1.65-16.23-15.08-23.26-4.11-2.14-8.86-1.09-10.46,3.54-1.92,4.35,1.11,10.58,2.53,14.76,1.38,3.56,3,6.2,2.32,10.15a.5.5,0,0,1,0,.12c-.78,3-2.79,4.65-1.71,8.22,2.24,8.7,14.56,7.92,20.77,13.34,4.39,3.82.43,8.39,4.73,14.17s6.43-.5,14.09,13.07a1,1,0,0,0,1.38.38h0a1,1,0,0,0,.51-.95C708.09,645.77,714.41,645.44,710,635.92Z"/><g class="cls-44"><path class="cls-46" d="M668.7,594a19.28,19.28,0,0,0,2.72,5.1,11.82,11.82,0,0,0,2,2,18.79,18.79,0,0,0,2.42,1.67,7.23,7.23,0,0,1-2.89-1,8,8,0,0,1-2.32-2.07A8.89,8.89,0,0,1,668.7,594Z"/><path class="cls-46" d="M672.25,613.05a31.23,31.23,0,0,0,3.24,2.24A20.43,20.43,0,0,0,679,617a13.41,13.41,0,0,0,3.71.78,15.62,15.62,0,0,0,3.89-.27,9,9,0,0,1-3.89,1.09,10.44,10.44,0,0,1-4.07-.61A13.32,13.32,0,0,1,672.25,613.05Z"/><path class="cls-46" d="M695.9,613.48a13,13,0,0,1,2.81,5.65,7.73,7.73,0,0,1,.08,3.25,4.34,4.34,0,0,1-1.64,2.74,5.92,5.92,0,0,0,.83-2.85,10.74,10.74,0,0,0-.3-2.92A55.13,55.13,0,0,0,695.9,613.48Z"/><path class="cls-46" d="M703.28,628.49a15.11,15.11,0,0,1,1.3,7.13,9.5,9.5,0,0,1-.89,3.61,5.81,5.81,0,0,1-2.5,2.68,8.35,8.35,0,0,0,1.74-3,12.68,12.68,0,0,0,.6-3.37,27.08,27.08,0,0,0,0-3.49C703.47,630.88,703.4,629.7,703.28,628.49Z"/><path class="cls-46" d="M680.74,598.43a19.09,19.09,0,0,1,2.38,6.94,12,12,0,0,1,0,3.74,5.08,5.08,0,0,1-1.76,3.26,6.67,6.67,0,0,0,.95-3.36,18.79,18.79,0,0,0-.2-3.5C681.76,603.16,681.21,600.84,680.74,598.43Z"/><path class="cls-46" d="M686.56,627.81a15,15,0,0,0,3,2.45,18.69,18.69,0,0,0,3.46,1.67,24.61,24.61,0,0,0,3.73,1c1.28.23,2.58.37,3.92.52-.66.13-1.32.21-2,.29a17.19,17.19,0,0,1-2,0,14.88,14.88,0,0,1-4-.8,12.74,12.74,0,0,1-3.57-2A8.86,8.86,0,0,1,686.56,627.81Z"/><path class="cls-46" d="M693.63,641.13a10,10,0,0,0,2,2.93,13.11,13.11,0,0,0,2.73,2.13,21,21,0,0,0,3.16,1.54l1.68.61c.57.19,1.15.35,1.73.57-.61,0-1.22,0-1.84-.07s-1.22-.19-1.82-.33a13.15,13.15,0,0,1-3.46-1.42,9.73,9.73,0,0,1-2.8-2.51A6.53,6.53,0,0,1,693.63,641.13Z"/><path class="cls-46" d="M708.09,661a26.25,26.25,0,0,0-2.45-10.05,39.73,39.73,0,0,0-2.63-4.48,17,17,0,0,1-2.3-4.81,20.78,20.78,0,0,1-.33-5.3,22.05,22.05,0,0,0-.53-5.09,13,13,0,0,0-5.74-8,71.33,71.33,0,0,1-8.6-6,33.19,33.19,0,0,1-7-8c-3.72-6.07-5.28-13.07-6.15-20,1.3,6.83,3.06,13.72,6.83,19.54a34.81,34.81,0,0,0,6.89,7.65,71,71,0,0,0,8.57,5.9,16.4,16.4,0,0,1,3.89,3.73,13,13,0,0,1,2.19,4.92,23.81,23.81,0,0,1,.51,5.3,22.17,22.17,0,0,0,.2,5.12c.75,3.3,3.26,6,4.62,9.26A25.43,25.43,0,0,1,708.09,661Z"/></g><rect class="cls-35" x="658.39" y="620.91" width="113.41" height="103.29"/><rect class="cls-37" x="695.96" y="639.07" width="38.28" height="9.83"/><rect class="cls-4" x="772.24" y="188.27" width="253.67" height="482.39"/><g class="cls-47"><rect class="cls-4" x="850.57" y="320.43" width="175.35" height="350.23" transform="translate(1876.48 991.09) rotate(180)"/><rect class="cls-4" x="876" y="338.01" width="124.48" height="59.43" transform="translate(1876.48 735.46) rotate(180)"/><rect class="cls-4" x="876" y="423.22" width="124.48" height="59.43" transform="translate(1876.48 905.88) rotate(180)"/><rect class="cls-4" x="876" y="508.43" width="124.48" height="59.43" transform="translate(1876.48 1076.3) rotate(180)"/><rect class="cls-4" x="876" y="593.64" width="124.48" height="59.43" transform="translate(1876.48 1246.72) rotate(180)"/><path class="cls-4" d="M932.9,367.73a5.34,5.34,0,1,0,5.34-5.34A5.34,5.34,0,0,0,932.9,367.73Z"/><circle class="cls-4" cx="938.24" cy="452.94" r="5.34"/><circle class="cls-4" cx="938.24" cy="538.15" r="5.34"/><path class="cls-4" d="M932.9,623.36a5.34,5.34,0,1,0,5.34-5.34A5.34,5.34,0,0,0,932.9,623.36Z"/></g><polygon class="cls-13" points="985.01 700.3 731.37 700.3 772.24 670.66 1025.91 670.66 985.01 700.3"/><rect class="cls-48" x="731.37" y="700.3" width="253.65" height="38.32"/><line class="cls-49" x1="1025.9" y1="708.91" x2="1195.6" y2="708.91"/><polygon class="cls-48" points="1028.67 188.27 1112.17 166.3 1112.17 695.21 1028.66 670.66 1028.67 188.27"/><path class="cls-5" d="M799.57,308.26c-1.65-1.5-2.45-5.88-4-11.12s-1.35-7.69-3.3-8.42-1.05,9.08-1.05,9.08c-2.7-4.56-5.55-12.87-8.39-12.32-1.63.31,4.19,12.56,4.19,12.56-6.14-9-8.67-12.59-10-11.55-2.09,1.58,5.85,11.85,6.44,13.49-5.69-6.44-8.24-9-8.84-7.94s5.25,9.44,5.85,10.64c-3.8-2.24-7.32-4.82-7.5-3.45-.14,1,2.7,6,7.65,8.85,3.74,2.1,7,4,8.08,6.47s7.51,1.78,7.51,1.78a5.92,5.92,0,0,0,.6-2.1c0-.9.6-2,.6-2.55S799.57,308.26,799.57,308.26Z"/><path class="cls-50" d="M789.26,307.07a14,14,0,0,1,1.55-7.66Z"/><path class="cls-51" d="M837.07,538.45c10.25,5.69,25.32,0,25.32,0l-1.55,4.27,41.66-3.23s1.5-7,.59-8.53-19.25-16.8-19.25-16.8l-16.93-3.23s10.6-9.17-9.82,1.68l-20.41,10.85-1.17,11S835.07,537.35,837.07,538.45Z"/><path d="M885.72,218.52c10.6-.21,16.46,1.18,22.61,11.76,5.84,10.06,5.31,20.63,17.33,25.93a44.76,44.76,0,0,0,18.81,4c8.12-.23,16.12,6.21,19.29,13.36a23,23,0,0,1,1.34,14.28c-1.66,7.32-7.27,13.27-1.38,20.6,3.47,4.32,9.06,5.48,12.81,9.46,4.72,5,6.19,11.61,5.5,18.3-1,9.45-7.09,15.72-15.12,18.44a28.73,28.73,0,0,0-15.29,11.55c-12.48,19.74-31.08,15.39-31.08,15.39L889,345.32s-18.26,22.74-26.19,22.74-24.44-18.63-30.32-30c-3.7-7.13-5.77-15.66-3.91-23.63,2.76-11.84,18-17.56,17.56-30.61-.09-2.73-.59-5.46-.36-8.18,1.12-13.33,18.4-16.09,21.84-28.31,1.72-6.12-.47-11.93,2.34-18C872.31,224.34,880,218.63,885.72,218.52Z"/><path class="cls-5" d="M915.08,474.94s-2.8,5.51-6.66,13.63c-4.85,10.2-11.37,24.5-16.07,37.09-2.74,7.3-4.85,14-5.7,19-.08.51-.14,1-.21,1.46.36,9.38-7.84,53.69-11.07,71.24s-10.84,49.64-9.26,55.08c3.91,8.54,4,12.84,1.25,13.9s-10.65,0-15.19.1-13.83-.82-20.66-.1-7.32.25-6.2-1.59,2.09-.92,5.27-2.27,17.44-11.14,19.55-19.68c1.62-6.66-1.77-93.93-3.35-131.78-.43-10.61-.72-17.33-.72-17.33Z"/><path class="cls-31" d="M869.14,648.39s.06,1.21-3.65.85c-4.45-.43-12-1-13-1.25-.85-.23-2-.54-2-1.19-.71-.22-1.45,2.68-.53,4.42-.12,3.23-.25,11.6-.77,13.06-2.23,6.3-8.67,12.05-18.72,17.76-3.67,2-6.67,1.73-7,2.92-1.22,4.23.5,1.78,8.86,2.15,7.06.31,17.09-.62,20.85,0s12.81,1.2,14.56.29,3-1.37,1.66-7-3.35-9.4-2.83-12.07,2.14-12.74,2.52-15.3C870.08,652.81,870.24,648.36,869.14,648.39Z"/><path class="cls-5" d="M939.75,679.73c-2.44,1.67-10.33-.08-14.74,1.08s-13.32,5.1-20.11,6c-5.8.82-7.17.38-6.52-1.69s2.51,1.12,5.27-.95,14.3-15,14.3-23.76c0-6.22-19.74-75.65-31.3-115.74-2.55-8.83-4.7-16.23-6.15-21.23-1.27-4.37-2-6.9-2-6.9l29.93-28,27.88-26.09s-11.9,50.82-11.08,72.76c0,1.16.11,2.23.24,3.22,2.57,9,5.16,54,6.2,71.83s1.28,50.78,4.13,55.69C941.59,673.34,942.2,678.05,939.75,679.73Z"/><path class="cls-5" d="M863.79,324.48l-1.35,7.21-.56,3.06s-2.2,3.25-5.74,7.59c-6.24,7.68-16.68,18.77-26.57,21.41S807.7,360.39,787,310.52c6.73-3.8,11.37-3.44,11.37-3.44s21.49,21.53,26.89,28.43c2.08-2.3,7.19-9.7,10.9-15.23,1.12-1.68,2.13-3.18,2.87-4.32l1.39-2.09,12.4,2.47,9,3Z"/><path class="cls-52" d="M863.79,324.48l-1.35,7.21-.56,3.06s-2.2,3.25-5.74,7.59c-6.24,7.68-16.68,18.77-26.57,21.41S807.7,360.39,787,310.52c6.73-3.8,11.37-3.44,11.37-3.44s21.49,21.53,26.89,28.43c2.08-2.3,7.19-9.7,10.9-15.23,1.12-1.68,2.13-3.18,2.87-4.32l1.39-2.09,12.4,2.47,9,3Z"/><path class="cls-53" d="M862.44,331.69l-.56,3.06s-2.2,3.25-5.74,7.59c.06-1.83-.36-5.08-2.07-10.92-8-1.77-17.9-11.14-17.9-11.14,1.12-1.68,2.13-3.18,2.87-4.32l.35.38,9.52,7.19,8.9,1.88,3.52,1.09Z"/><path class="cls-5" d="M856.45,283.38c11.36,19.39,57.11,18.61,74.16,5.44-2.32-6.47-8.69-10.95-19.12-14.23-9.39-2.95-11.63-5.16-12.14-7.74s0-11.2,0-11.2l-6.85,1s-6.85,2.71-7.23,3-1.79.39-1.19,5.41c0,0,0,.18,0,.46a11.64,11.64,0,0,1,0,3.32c-.31,1.8-1.45,2.15-3.43,2.95C865.49,276.32,857.91,280.35,856.45,283.38Z"/><path class="cls-54" d="M856.45,283.38c11.36,19.39,57.11,18.61,74.16,5.44-2.32-6.47-8.69-10.95-19.12-14.23-9.39-2.95-11.63-5.16-12.14-7.74s0-11.2,0-11.2l-6.85,1s-6.85,2.71-7.23,3-1.79.39-1.19,5.41c0,0,0,.18,0,.46a11.64,11.64,0,0,1,0,3.32c-.31,1.8-1.45,2.15-3.43,2.95C865.49,276.32,857.91,280.35,856.45,283.38Z"/><path class="cls-13" d="M971.45,509C959,539.75,928,535.61,900.37,525s-46.13-2.33-55.29,3.86c-9.82,6.64-9.05,8.8-8,9.57-6.47-3.86-2.33-20.67-.79-41.6,1.82-35.67,4.66-83.47,15.51-113.2,10.16-26.76,6.55-46.38,4.87-54.09v0c-.09-.34-.15-.64-.22-.91-8.77-1.31-19.11-10.6-21.44-14.48,2.58-2.59,16.45-27.9,23.45-33,6.28-5.45,12.54-7,21.36-9.1.34,8.14,16.66,10.95,24.87,0,13.27,3.59,21.05,9.74,21.05,9.74l1,17.88s-7.56,25.45-7.09,44.89a39.55,39.55,0,0,0,2.28,13.52c26.1,28.42,21.87,68.49,23.69,88.12S959.81,492.19,971.45,509Z"/><path class="cls-55" d="M860.84,304.06a52.65,52.65,0,0,0-4.55,21.39c0,1.06.13,2.1.16,3.16-1.64-8.33.3-17.2,4.39-24.55Z"/><path class="cls-8" d="M971.45,509c-12.41,30.75-43.65,27.12-71.3,16.52s-45.71-2.45-54.88,3.75c-9.82,6.64-9.24,8.41-8.2,9.18-6.47-3.86-2.33-20.67-.79-41.6,1.82-35.67,4.66-83.47,15.51-113.2,10.16-26.76,6.55-46.38,4.87-54.09v0s-1-5.14-.6-7.85,2.05-14,5.25-18.44a20.73,20.73,0,0,1,3.83,2.57s7.24,4.93,9.41,9c7.33-4.61,20.06-7.16,28-6.3.45,7.26,4.36,26.05,4.36,26.05l10.46,7.78,2.31,2.2a39.55,39.55,0,0,0,2.28,13.52c26.1,28.42,21.87,68.49,23.69,88.12S959.81,492.19,971.45,509Z"/><path class="cls-5" d="M872,320c-1.68-1.46-2.59-5.82-4.21-11s-1.53-7.65-3.49-8.33-.84,9.1-.84,9.1c-2.81-4.5-5.85-12.73-8.68-12.12-1.62.34,4.49,12.45,4.49,12.45-6.36-8.85-9-12.38-10.31-11.3-2.06,1.62,6.12,11.7,6.76,13.33-5.85-6.31-8.46-8.8-9-7.73s5.46,9.32,6.09,10.5c-3.85-2.15-7.42-4.64-7.57-3.27-.12,1.05,2.84,5.93,7.85,8.66,3.79,2,7.12,3.8,8.23,6.28s7.55,1.6,7.55,1.6a5.92,5.92,0,0,0,.55-2.11c0-.9.55-2,.54-2.56S872,320,872,320Z"/><path class="cls-5" d="M925.46,326.78l8.83,2.68c-.1,2.82-.29,5.82-.63,8.85C932,353.67,927,370.18,915.1,373.66c-9.76,2.8-33.74-1.77-55.57-51.14,6.63-3.95,11.29-3.71,11.29-3.71s25.65,20.36,31.67,25.91a39.83,39.83,0,0,0,1.9-9.51c.88-7.78,1.12-16.78,1.12-16.78Z"/><path class="cls-56" d="M925.46,326.78l8.83,2.68c-.1,2.82-.29,5.82-.63,8.85C932,353.67,927,370.18,915.1,373.66c-9.76,2.8-33.74-1.77-55.57-51.14,6.63-3.95,11.29-3.71,11.29-3.71s25.65,20.36,31.67,25.91a39.83,39.83,0,0,0,1.9-9.51c.88-7.78,1.12-16.78,1.12-16.78Z"/><path class="cls-5" d="M935.62,318.43l-1,11.11-.3-.08c0-1.4.07-2.75.07-4A32.31,32.31,0,0,1,935.62,318.43Z"/><path class="cls-5" d="M874.32,241.22s-1.72,24.12,12.41,24.12c5.51,0,11.2-5.69,12.75-9.82,3.27,0,7.23-1.9,5.68-7.93-1-2.75-5.17-2.07-6.55.52-3.27-.69-17.57-6.89-20.33-12.06A13.3,13.3,0,0,0,874.32,241.22Z"/><path class="cls-57" d="M874.32,241.22s-1.72,24.12,12.41,24.12c5.51,0,11.2-5.69,12.75-9.82,3.27,0,7.23-1.9,5.68-7.93-1-2.75-5.17-2.07-6.55.52-3.27-.69-17.57-6.89-20.33-12.06A13.3,13.3,0,0,0,874.32,241.22Z"/><path class="cls-58" d="M925.46,326.78l8.83,2.68c-.1,2.82-.29,5.82-.63,8.85-7.25.55-20.12.78-29.27-3.1.88-7.78,1.12-16.78,1.12-16.78Z"/><path class="cls-59" d="M935.62,318.43l-1,11.11-.3-.08c0-1.4.07-2.75.07-4A32.31,32.31,0,0,1,935.62,318.43Z"/><path class="cls-13" d="M925.72,281.78c2,2.11,11.62,7.55,13.17,33.39.55,11.77.3,20.33.3,20.33s-25,3.67-37.87-4.09c2.95-9.25,1.51-23.32,1.51-23.32l2.2-8.17"/><polygon class="cls-60" points="886.6 545.03 880.01 520.15 885.59 556.66 886.6 545.03"/><path class="cls-31" d="M932.85,640.1s.35,1.16-3.34,1.7c-4.42.64-11.85,1.89-12.92,1.87-.87,0-2.36,0-2.5-.65-.67.62.48,3.8,1.19,4.93a4.09,4.09,0,0,1,.31,1.35c.67,4.75,1.35,12.22,1.07,14.83-.58,5.53-4.91,9.9-13.31,17.85-3.1,2.78-6.07,3.27-6.12,4.5-.18,4.4,2.71-1.81,9.13-1.58,6.46-2.85,16.43-3.11,20.25-3.37s12.44-1.36,13.93-2.66,2.86-2.57.21-7.74-3.33-5.87-4.13-8.47c-1-3.26-2.67-13.16-2.6-17.11C934.46,643.62,934.06,640.08,932.85,640.1Z"/><path d="M893.8,220.28a7.05,7.05,0,0,1-.38-5,7.22,7.22,0,0,1,3.5-4.91,6.59,6.59,0,0,1,3-.61c3.52.07,6.7,2.23,9.1,4.82a10.88,10.88,0,0,1,2.49,3.83,5.11,5.11,0,0,1-.41,4.42c-1.53,2.31-4.85,2.4-7.26,3.77"/><path class="cls-61" d="M825.26,335.5c2.59,3.27,3.28,4.31,3.28,4.31l-1.87-6Z"/><path class="cls-62" d="M875.05,493c-3.48-26.8-.15-52.72,3.45-74.88Z"/><path class="cls-63" d="M884.12,265.48a11.64,11.64,0,0,1,0,3.32c8.79-.53,12.17-5,13.61-10.24-3.55,8.08-13.7,6.46-13.7,6.46S884.09,265.2,884.12,265.48Z"/><path class="cls-13" d="M928.94,641.88a3.19,3.19,0,0,1,.2,1,8.78,8.78,0,0,1,0,1,16.29,16.29,0,0,0,.14,2.16,4.46,4.46,0,0,0,.52-2.17,4,4,0,0,0-.2-1.13A1.59,1.59,0,0,0,928.94,641.88Z"/><path class="cls-13" d="M932.1,641.14a3.19,3.19,0,0,1,.2,1,8.78,8.78,0,0,1,0,1,16.4,16.4,0,0,0,.14,2.16,4.59,4.59,0,0,0,.53-2.18,4.5,4.5,0,0,0-.21-1.13A1.52,1.52,0,0,0,932.1,641.14Z"/><path class="cls-13" d="M924.93,642.63a3.85,3.85,0,0,0-.34,2,2.38,2.38,0,0,0,.85,1.81,5.3,5.3,0,0,1-.13-.94c0-.31-.06-.61-.06-.93A10.44,10.44,0,0,0,924.93,642.63Z"/><path class="cls-13" d="M920.57,643.25a3.91,3.91,0,0,0-.35,2,2.45,2.45,0,0,0,.86,1.82,5.54,5.54,0,0,1-.13-.95c0-.31-.06-.61-.06-.92A10.3,10.3,0,0,0,920.57,643.25Z"/><path class="cls-13" d="M916.43,643.67a3.85,3.85,0,0,0-.34,2,2.38,2.38,0,0,0,.85,1.81,6.42,6.42,0,0,1-.13-.94c0-.31-.06-.61-.06-.93A10.44,10.44,0,0,0,916.43,643.67Z"/><path class="cls-13" d="M867.84,649.23a10,10,0,0,0-.34,1.79c0,.6-.09,1.13-.13,1.79a2.59,2.59,0,0,0,.8-1.72A3.43,3.43,0,0,0,867.84,649.23Z"/><path class="cls-13" d="M864.13,649.05a8.73,8.73,0,0,0-.34,1.8c0,.59-.1,1.13-.14,1.78a2.55,2.55,0,0,0,.8-1.72A3.54,3.54,0,0,0,864.13,649.05Z"/><path class="cls-13" d="M860.55,648.67a4.3,4.3,0,0,0-.65,1.73,3.67,3.67,0,0,0,.17,1.85,7,7,0,0,0,.49-1.75A5.62,5.62,0,0,0,860.55,648.67Z"/><path class="cls-13" d="M856.74,648.4a4.3,4.3,0,0,0-.65,1.73,3.78,3.78,0,0,0,.17,1.85,6.86,6.86,0,0,0,.49-1.75A5.62,5.62,0,0,0,856.74,648.4Z"/><path class="cls-13" d="M852.87,648a4.12,4.12,0,0,0-.65,1.73,3.67,3.67,0,0,0,.17,1.85,7.65,7.65,0,0,0,.49-1.75A6.24,6.24,0,0,0,852.87,648Z"/><g class="cls-64"><path class="cls-65" d="M882.4,244.53c.55,1.85,1.22,4.35-.25,6a6.47,6.47,0,0,1-.69.36,1.35,1.35,0,0,0-.53,1.48,2,2,0,0,0,2.05,1.34,2,2,0,0,1-2.68-1.13,2.07,2.07,0,0,1,1.32-2.72c1.07-1.38.65-3.61.78-5.31Z"/></g><path class="cls-13" d="M887.49,256.72A27.57,27.57,0,0,1,882.8,258a1,1,0,0,0-.64,1.53c1.25,1.82,2.63,2.65,4.64,2.23s2.39-2.79,2-4.38A1,1,0,0,0,887.49,256.72Z"/><path class="cls-66" d="M887.86,246.07a1.87,1.87,0,1,0,2.17-1.51A1.87,1.87,0,0,0,887.86,246.07Z"/><path class="cls-66" d="M875.13,245.66a1.81,1.81,0,0,0,3.61.09,1.81,1.81,0,1,0-3.61-.09Z"/><path class="cls-67" d="M880.36,241.59c-1.12-1.52-5.14-2.7-6.09-.34-.07.19.13.36.29.21a3.13,3.13,0,0,1,2.94-.94,7.59,7.59,0,0,1,2.75,1.2c.07,0,.17-.06.11-.13Z"/><path class="cls-13" d="M888.48,246.05a.63.63,0,1,0,.72-.53A.63.63,0,0,0,888.48,246.05Z"/><path class="cls-13" d="M875.62,245.28a.63.63,0,1,0,1.24.18.62.62,0,0,0-.53-.71A.63.63,0,0,0,875.62,245.28Z"/><g class="cls-39"><path class="cls-59" d="M895.54,312.26a.94.94,0,1,0,.93-.94A.94.94,0,0,0,895.54,312.26Z"/><path class="cls-59" d="M883,324.47a.94.94,0,1,0,.94-.93A.94.94,0,0,0,883,324.47Z"/><path class="cls-59" d="M862.32,354.33a.94.94,0,1,0,.94-.94A.93.93,0,0,0,862.32,354.33Z"/><path class="cls-59" d="M927.12,377.41a.94.94,0,1,0,.93-.93A.93.93,0,0,0,927.12,377.41Z"/><path class="cls-59" d="M930.48,400.39a.94.94,0,1,0,1.87,0,.94.94,0,0,0-1.87,0Z"/><path class="cls-59" d="M909.8,411.21a.94.94,0,1,0,.94-.93A.94.94,0,0,0,909.8,411.21Z"/><path class="cls-59" d="M924.52,419a.94.94,0,1,0,.94-.94A.94.94,0,0,0,924.52,419Z"/><path class="cls-59" d="M941.2,431.62a.94.94,0,1,0,.93-.93A.93.93,0,0,0,941.2,431.62Z"/><path class="cls-59" d="M885.62,406.41a.94.94,0,1,0,.94-.94A.94.94,0,0,0,885.62,406.41Z"/><path class="cls-59" d="M898.55,427.88a.94.94,0,1,0,.94-.93A.94.94,0,0,0,898.55,427.88Z"/><path class="cls-59" d="M940.26,454.59a.94.94,0,1,0,.94-.93A.94.94,0,0,0,940.26,454.59Z"/><path class="cls-59" d="M920.3,441.78a.94.94,0,1,0,.94-.94A.94.94,0,0,0,920.3,441.78Z"/><circle class="cls-59" cx="865.44" cy="440.84" r="0.94"/><path class="cls-59" d="M842.86,454.59a.94.94,0,1,0,.93-.93A.94.94,0,0,0,842.86,454.59Z"/><path class="cls-59" d="M857.06,465.24a.94.94,0,1,0,.93-.94A.93.93,0,0,0,857.06,465.24Z"/><path class="cls-59" d="M855.19,498.26a.94.94,0,1,0,.93-.93A.94.94,0,0,0,855.19,498.26Z"/><circle class="cls-59" cx="845.69" cy="521.08" r="0.94"/><path class="cls-59" d="M841.92,480.65a.94.94,0,1,0,.94-.94A.93.93,0,0,0,841.92,480.65Z"/><path class="cls-59" d="M865.44,484.58a.94.94,0,1,0,1.87,0,.94.94,0,0,0-1.87,0Z"/><path class="cls-59" d="M904.16,517a.94.94,0,1,0,.94-.94A.94.94,0,0,0,904.16,517Z"/><path class="cls-59" d="M886.52,487.39a.94.94,0,1,0,.93-.94A.93.93,0,0,0,886.52,487.39Z"/><path class="cls-59" d="M910.74,500.13a.94.94,0,1,0,.93-.93A.94.94,0,0,0,910.74,500.13Z"/><path class="cls-59" d="M838.84,508.24a.94.94,0,1,0,.93-.93A.94.94,0,0,0,838.84,508.24Z"/><path class="cls-59" d="M871.57,508.24a.94.94,0,1,0,.94-.93A.94.94,0,0,0,871.57,508.24Z"/><path class="cls-59" d="M902.29,477.18a.94.94,0,1,0,.94-.94A.94.94,0,0,0,902.29,477.18Z"/><circle class="cls-59" cx="942.13" cy="474.5" r="0.94"/><circle class="cls-59" cx="937.43" cy="502.56" r="0.94"/><path class="cls-59" d="M928,524.08a.94.94,0,1,0,.93-.94A.93.93,0,0,0,928,524.08Z"/><circle class="cls-59" cx="958.07" cy="517.94" r="0.94"/><path class="cls-59" d="M923.59,485.52a.94.94,0,1,0,.93-.94A.93.93,0,0,0,923.59,485.52Z"/><path class="cls-59" d="M956.2,499.2a.94.94,0,1,0,.93-.94A.93.93,0,0,0,956.2,499.2Z"/><path class="cls-59" d="M900.42,453.66a.94.94,0,1,0,.94-.94A.93.93,0,0,0,900.42,453.66Z"/><path class="cls-59" d="M920.3,462.47a.94.94,0,1,0,.94-.93A.94.94,0,0,0,920.3,462.47Z"/><path class="cls-59" d="M861.79,397.72a.94.94,0,0,0,1.87,0,.94.94,0,1,0-1.87,0Z"/><path class="cls-59" d="M845.69,429.75a.94.94,0,1,0,.93-.93A.94.94,0,0,0,845.69,429.75Z"/><path class="cls-59" d="M864.51,415.67a.94.94,0,1,0,.93-.93A.93.93,0,0,0,864.51,415.67Z"/><path class="cls-59" d="M880.65,438.09a.94.94,0,1,0,.93-.93A.93.93,0,0,0,880.65,438.09Z"/><circle class="cls-59" cx="880.65" cy="463.41" r="0.94"/><path class="cls-59" d="M909.8,376.48a.94.94,0,1,0,.94-.94A.94.94,0,0,0,909.8,376.48Z"/><path class="cls-59" d="M875.64,382a.94.94,0,1,0,.93-.93A.94.94,0,0,0,875.64,382Z"/><path class="cls-59" d="M914.16,389.5a.94.94,0,1,0,.94-.94A.93.93,0,0,0,914.16,389.5Z"/><path class="cls-59" d="M856.12,385.21a.94.94,0,1,0,1.87,0,.94.94,0,0,0-1.87,0Z"/><path class="cls-59" d="M892.71,387.08a.94.94,0,1,0,1.87,0,.94.94,0,0,0-1.87,0Z"/><path class="cls-59" d="M896.47,336.44a.94.94,0,1,0,.94-.94A.94.94,0,0,0,896.47,336.44Z"/></g><path class="cls-13" d="M898.61,248.11c-3.74,3-8,4.26-11.16,2.34s-5.47-2.57-8.71-.4c-2.11,1.24-4-.79-4.19-.9-.12,2.1,1.19,16.71,12.14,16,6.25-.6,10.38-2,12.66-9.5C898.87,255.22,896.31,253.87,898.61,248.11Z"/><path class="cls-8" d="M824.77,679.24c1.28-1.2,15.58-7.62,21.81,6.64H871.7v2.21H820.81A12.29,12.29,0,0,1,824.77,679.24Z"/><path class="cls-8" d="M897.5,680c1-1.43,13.71-10.63,22.7,2.07l24.6-5.11.45,2.16-49.83,10.35A12.3,12.3,0,0,1,897.5,680Z"/><path class="cls-55" d="M910.33,273.82c-3.56,11.17-5.33,22.77-7.5,34.27.06-1.47.19-2.93.28-4.4,1.06-10.17,2.83-20.57,7.22-29.87Z"/><path class="cls-55" d="M861.31,303.24c.45-11,4.93-22.15,13-29.81a66.76,66.76,0,0,0-13,29.81Z"/><path class="cls-68" d="M902.5,344.72s2.77,2.22,2.91,2.5a13.83,13.83,0,0,0-2.3-4.33Z"/><path class="cls-69" d="M882.5,250.69s-.6,12.63,4.19,14.46C886.73,265.34,882.81,262.59,882.5,250.69Z"/><g class="cls-70"><path class="cls-71" d="M981.89,272.77h-49v-49h49Zm-47.54-1.46h46.07V225.24H934.35Z"/><rect class="cls-71" x="943.81" y="234.7" width="27.15" height="27.15"/></g><g class="cls-72"><rect class="cls-8" x="528.07" y="129.77" width="6.4" height="20.37"/><rect class="cls-8" x="674.83" y="129.77" width="6.4" height="20.37"/><rect class="cls-31" x="582.28" y="130.61" width="42.23" height="17.86" rx="8.93"/><rect class="cls-34" x="536.15" y="148.48" width="137.01" height="4.13"/><path class="cls-31" d="M531.27,177.71h0a10,10,0,0,1-10-10V155a10,10,0,0,1,10-10h0a10,10,0,0,1,10,10V167.7A10,10,0,0,1,531.27,177.71Z"/><rect class="cls-34" x="491.46" y="124.95" width="79.63" height="1.53"/><path class="cls-31" d="M678,177.71h0a10,10,0,0,1-10-10V155a10,10,0,0,1,10-10h0a10,10,0,0,1,10,10V167.7A10,10,0,0,1,678,177.71Z"/><rect class="cls-34" x="638.22" y="124.95" width="79.63" height="1.53"/><rect class="cls-34" x="596.7" y="188.04" width="13.58" height="7.28"/><rect class="cls-73" x="567.59" y="202.71" width="70.54" height="72" transform="translate(363.47 841.3) rotate(-89.93)"/><rect class="cls-74" x="596.52" y="173.82" width="12.76" height="72" transform="translate(392.38 812.47) rotate(-89.93)"/><rect class="cls-73" x="566.31" y="201.99" width="74.37" height="12.75" transform="translate(1206.75 417.43) rotate(-179.93)"/><polygon class="cls-37" points="597.13 201.99 597.1 223.26 598.45 221.22 599.79 223.27 601.14 221.22 602.48 223.27 603.82 221.22 605.17 223.27 606.51 221.23 607.85 223.28 607.87 202 597.13 201.99"/><polyline class="cls-75" points="572.98 274.47 561.96 274.47 561.96 195.33 645.03 195.33 645.03 274.02 631.84 274.02"/><rect class="cls-8" x="574.61" y="139.47" width="60.09" height="50.2" rx="11.87"/><rect class="cls-31" x="581.31" y="145.07" width="46.69" height="39.01" rx="10.76"/><rect class="cls-76" x="529.75" y="126.48" width="3.05" height="3.84"/><path class="cls-8" d="M534.68,126c0,1.88-6.82,1.88-6.82,0a3.41,3.41,0,1,1,6.82,0Z"/><rect class="cls-76" x="676.51" y="126.48" width="3.05" height="3.84"/><path class="cls-8" d="M681.44,126c0,1.88-6.82,1.88-6.82,0a3.41,3.41,0,0,1,6.82,0Z"/></g><line class="cls-77" x1="650.86" y1="191.54" x2="656.2" y2="187.77"/><line class="cls-77" x1="652.7" y1="200.76" x2="658.88" y2="202.89"/><line class="cls-77" x1="658.88" y1="194.77" x2="661.62" y2="194.08"/><line class="cls-77" x1="653.22" y1="196.21" x2="656.78" y2="195.31"/><path class="cls-41" d="M585.27,233.12c1.43.46,2.37-.35,3.33-1.1a2.57,2.57,0,0,0,1.06-1.81c0-.2.09-.32.34-.32a18.53,18.53,0,0,1,8.51,1.46,5.8,5.8,0,0,1,3.57,4.2,5,5,0,0,1-1.6,5.16,4.36,4.36,0,0,1-5.61-.28,4.15,4.15,0,0,1-1.42-2.15,1.63,1.63,0,0,1,.26-1.3,4.66,4.66,0,0,0,.46-4.09,1.6,1.6,0,0,0-1.88-1.11,5.11,5.11,0,0,0-4.52,4.93,8.54,8.54,0,0,0,1.79,5.91,17.42,17.42,0,0,0,7,5.56,14.76,14.76,0,0,1,4,2.46,6.18,6.18,0,0,1,.87,7.92,6.88,6.88,0,0,1-3.57,2.28,22.68,22.68,0,0,1-5.23.92,17.82,17.82,0,0,1-7.77-.9,9.4,9.4,0,0,1-3.69-2.17,5.49,5.49,0,0,1,.16-7.48,4.41,4.41,0,0,1,5.58-.05,4.5,4.5,0,0,1,.52.46,2.83,2.83,0,0,1,.53,3.86c-.68,1.31-.3,3.92,1.65,4.4a3.6,3.6,0,0,0,4.21-1.85,6.7,6.7,0,0,0-2.62-8.68,27.75,27.75,0,0,0-4.1-1.81,16.92,16.92,0,0,1-4.52-2.4,7.15,7.15,0,0,1-2-2.59c-.06-.13-.23-.28.06-.4,1.54-.62,1.76-1.81,1.63-3.17,0-.41-.12-.82-.19-1.22,0-.16-.07-.26.15-.27a2.56,2.56,0,0,0,1.85-1,4.63,4.63,0,0,0,1.31-2.17A3.64,3.64,0,0,0,585.27,233.12Z"/><path class="cls-41" d="M610.69,230.53a87,87,0,0,1,8.84.38,18.77,18.77,0,0,1,5,1.08,3.55,3.55,0,0,1,1.09.65,1.62,1.62,0,0,1,.58,1.34,16.24,16.24,0,0,1-.28,3.19,3.48,3.48,0,0,1-.39,1,1.19,1.19,0,0,1-1.69.5,8.12,8.12,0,0,1-2-1.63,37.91,37.91,0,0,0-3.85-3.54,6.08,6.08,0,0,0-2.2-1.1,2.49,2.49,0,0,0-2.77,1.06,8.82,8.82,0,0,0-1.31,3.15,21.79,21.79,0,0,0-.72,5.44,4.15,4.15,0,0,0,.36,1.7,1.54,1.54,0,0,0,1.56,1c1.66-.09,3.33-.21,5-.32l1.65-.11a1,1,0,0,1,1.06.72,3.14,3.14,0,0,1,0,2.46,1,1,0,0,1-1.13.58l-3.74-.43c-.66-.08-1.33-.16-2-.21a1.88,1.88,0,0,0-2.24,1.82,7.65,7.65,0,0,0,.18,3.05,16,16,0,0,0,1.83,4.72,3.23,3.23,0,0,0,3,1.78,3.4,3.4,0,0,0,1.62-.6,15.57,15.57,0,0,0,2.92-2.64,23.23,23.23,0,0,1,2.12-2.09l.11-.09c1.17-.86,2.09-.58,2.51.81a12.05,12.05,0,0,1,.37,4,1.35,1.35,0,0,1-.63,1,7.49,7.49,0,0,1-3,1.2,41.26,41.26,0,0,1-6.74.75c-2.45.12-4.9.12-7.35.07a7.22,7.22,0,0,1-3.55-.91,2.75,2.75,0,0,1-1.27-3.79c.79-1.82,1.65-3.61,2.42-5.44a12.57,12.57,0,0,0,1.05-6.63,22.51,22.51,0,0,0-1.26-4.92c-.71-1.85-1.45-3.7-2.19-5.54s-.21-2.82,1.79-3.19a22.8,22.8,0,0,1,4.21-.27Z"/><path class="cls-41" d="M589.67,228a.68.68,0,0,1-.7.64.66.66,0,0,1-.62-.66.67.67,0,0,1,.67-.67A.68.68,0,0,1,589.67,228Z"/><path class="cls-41" d="M580.07,234a.66.66,0,0,1-.67.66.65.65,0,0,1-.63-.66.65.65,0,0,1,1.3,0Z"/><path class="cls-41" d="M586.57,229.05a.43.43,0,0,1,.45.44.45.45,0,1,1-.89,0A.41.41,0,0,1,586.57,229.05Z"/><path class="cls-41" d="M579.86,237.12c.16,0,.31.15.32.41a.43.43,0,1,1-.86,0C579.32,237.29,579.46,237.14,579.86,237.12Z"/></g></g></svg>