<svg id="Layer_1" data-name="Layer 1" xmlns="http://www.w3.org/2000/svg" viewBox="0 0 807.73 788.33"><defs><style>.cls-1,.cls-12,.cls-5,.cls-8{fill:#fff;}.cls-1{opacity:0.5;}.cls-2{fill:#f4a21b;}.cls-3,.cls-4{fill:none;stroke:#261708;opacity:0.8;}.cls-10,.cls-3,.cls-4,.cls-7,.cls-9{stroke-miterlimit:10;}.cls-3{stroke-width:0.78px;}.cls-4{stroke-width:1.16px;}.cls-6{fill:#70480f;}.cls-7{fill:#7f69b0;}.cls-10,.cls-7,.cls-9{stroke:#fff;stroke-width:8.39px;}.cls-8{font-size:41.53px;}.cls-13,.cls-8{font-family:Poppins-Bold, Poppins;font-weight:700;}.cls-9{fill:#f2a21c;}.cls-10{fill:#b98f50;}.cls-11{fill:#070706;}.cls-12{font-size:35px;font-family:Poppins-Regular, Poppins;}.cls-13{font-size:73.05px;}</style></defs><path class="cls-1" d="M235,383.8a30.36,30.36,0,0,0-18.08,5.94,40.13,40.13,0,0,0-74.24-.52,30.52,30.52,0,0,0-47.31,19.24H264.9A30.52,30.52,0,0,0,235,383.8Z"/><rect class="cls-2" width="807.73" height="788.33"/><path class="cls-1" d="M797.49,542.88a10.39,10.39,0,0,0-6.17,2,13.71,13.71,0,0,0-25.36-.17,10.41,10.41,0,0,0-16.16,6.57h57.93A10.44,10.44,0,0,0,797.49,542.88Z"/><path class="cls-1" d="M138,361.9a34.85,34.85,0,0,0-20.75,6.81A46.07,46.07,0,0,0,32,368.12a35,35,0,0,0-54.3,22.08H172.34A35,35,0,0,0,138,361.9Z"/><path class="cls-3" d="M685,323.61s14.46.5,19.8,8.32c0,0,2.84-12.09,12.8-12.09"/><path class="cls-4" d="M147.94,122s21.64.75,29.63,12.46c0,0,4.26-18.1,19.16-18.1"/><path class="cls-3" d="M180.11,151s14.46.5,19.79,8.32c0,0,2.85-12.09,12.81-12.09"/><polygon class="cls-5" points="281.81 348.44 275.01 337.45 263.35 331.87 274.34 325.07 279.93 313.41 286.73 324.4 298.38 329.99 287.39 336.79 281.81 348.44"/><polygon class="cls-5" points="749.63 203.24 738.78 183.15 718.82 172.09 738.9 161.25 749.96 141.28 760.81 161.37 780.77 172.43 760.69 183.27 749.63 203.24"/><rect class="cls-6" x="370.19" y="294.46" width="64.62" height="505.56" rx="10.07"/><rect class="cls-7" x="220.17" y="497.91" width="366.97" height="98.67" rx="49.33" transform="translate(20.92 -14.83) rotate(2.16)"/><text class="cls-8" transform="translate(283.6 558.19) rotate(2.16)">Pharmacies</text><circle class="cls-9" cx="260.27" cy="540.19" r="7.06"/><rect class="cls-9" x="220.17" y="378.31" width="366.97" height="98.67" rx="23.14" transform="translate(-32.11 32.77) rotate(-4.47)"/><circle class="cls-9" cx="257.39" cy="438.86" r="7.06"/><text class="cls-8" transform="matrix(1, -0.08, 0.08, 1, 283.47, 451.46)">Restaurants</text><rect class="cls-10" x="220.17" y="618.26" width="366.97" height="98.67" rx="24.22" transform="translate(-210.6 186.64) rotate(-20.78)"/><circle class="cls-9" cx="277.16" cy="716.6" r="7.06"/><text class="cls-8" transform="translate(304.22 720.44) rotate(-20.78)">Apartments</text><path class="cls-2" d="M407.87,96.4H381.21a11.32,11.32,0,0,1-10.92-9.67,14.79,14.79,0,0,1-.1-1.75V32.06a11.31,11.31,0,0,1,9.7-11,13.85,13.85,0,0,1,1.7-.1h52.85a11.3,11.3,0,0,1,11,9.74,11.72,11.72,0,0,1,.1,1.57v53a11.31,11.31,0,0,1-9.7,11,12.91,12.91,0,0,1-1.64.11ZM386.68,44.59a4.8,4.8,0,0,1,.09,1.49,5.82,5.82,0,0,1-1.62,2.66A3.15,3.15,0,0,1,382.88,50c-.27,0-.23.13-.2.33a14.66,14.66,0,0,1,.25,1.5c.15,1.68-.12,3.14-2,3.91-.35.14-.14.33-.07.49a8.75,8.75,0,0,0,2.47,3.18,20.23,20.23,0,0,0,5.56,3,33.46,33.46,0,0,1,5.05,2.24,8.24,8.24,0,0,1,3.23,10.68A4.43,4.43,0,0,1,392,77.54c-2.39-.59-2.86-3.81-2-5.42,1-2,.85-3.17-.65-4.76-.2-.2-.42-.38-.64-.56a5.43,5.43,0,0,0-6.87.07,6.76,6.76,0,0,0-.2,9.21,11.74,11.74,0,0,0,4.54,2.67,22.05,22.05,0,0,0,9.57,1.11,28.7,28.7,0,0,0,6.44-1.13,8.6,8.6,0,0,0,4.41-2.82,7.6,7.6,0,0,0-1.08-9.74,17.92,17.92,0,0,0-4.88-3,21.47,21.47,0,0,1-8.6-6.85A10.47,10.47,0,0,1,389.76,49a6.3,6.3,0,0,1,5.57-6.08,2,2,0,0,1,2.32,1.36,5.76,5.76,0,0,1-.58,5,2,2,0,0,0-.31,1.61,5.12,5.12,0,0,0,1.74,2.65,5.36,5.36,0,0,0,6.91.33,6.16,6.16,0,0,0,2-6.35A7.15,7.15,0,0,0,403,42.4a22.68,22.68,0,0,0-10.48-1.8c-.31,0-.39.15-.42.4a3.12,3.12,0,0,1-1.3,2.23C389.6,44.15,388.44,45.15,386.68,44.59Zm31.3-3.2h-1.3a29.92,29.92,0,0,0-5.18.33c-2.46.46-3.12,1.63-2.2,3.93s1.82,4.54,2.69,6.83a28.11,28.11,0,0,1,1.56,6.06,15.66,15.66,0,0,1-1.3,8.16c-.95,2.26-2,4.46-3,6.7a3.39,3.39,0,0,0,1.56,4.67,8.84,8.84,0,0,0,4.38,1.12c3,.06,6,.06,9-.08a50.22,50.22,0,0,0,8.3-.93,9.28,9.28,0,0,0,3.76-1.47,1.66,1.66,0,0,0,.77-1.21,14.9,14.9,0,0,0-.46-4.93c-.52-1.71-1.65-2.06-3.09-1l-.13.11a30.39,30.39,0,0,0-2.62,2.58,19.1,19.1,0,0,1-3.59,3.25,4.27,4.27,0,0,1-2,.74,4,4,0,0,1-3.74-2.2,19.22,19.22,0,0,1-2.25-5.81,9.51,9.51,0,0,1-.23-3.76,2.32,2.32,0,0,1,2.76-2.24c.83.06,1.65.17,2.47.26l4.61.53a1.19,1.19,0,0,0,1.38-.72,3.78,3.78,0,0,0,.06-3,1.24,1.24,0,0,0-1.3-.89l-2,.14c-2.05.13-4.1.28-6.15.39a1.89,1.89,0,0,1-1.92-1.22,5.33,5.33,0,0,1-.44-2.09,26.61,26.61,0,0,1,.88-6.7A11.18,11.18,0,0,1,420.9,45a3.09,3.09,0,0,1,3.42-1.29A7.27,7.27,0,0,1,427,45.09a47.64,47.64,0,0,1,4.74,4.35,10,10,0,0,0,2.43,2,1.45,1.45,0,0,0,2.08-.62,4.38,4.38,0,0,0,.48-1.26,19.94,19.94,0,0,0,.34-3.93,2,2,0,0,0-.7-1.65,4.92,4.92,0,0,0-1.36-.8,23.14,23.14,0,0,0-6.16-1.33A107.15,107.15,0,0,0,418,41.39ZM392.1,38.28a.84.84,0,0,0-.81-.84.83.83,0,0,0-.82.82.81.81,0,0,0,.77.81A.83.83,0,0,0,392.1,38.28Zm-11.83,7.38a.74.74,0,0,0-.77-.78.75.75,0,0,0-.83.79.8.8,0,1,0,1.6,0Zm8-6.09a.54.54,0,1,0,.54.54A.53.53,0,0,0,388.29,39.57ZM380,49.51c-.48,0-.66.2-.66.53a.48.48,0,0,0,.52.53.49.49,0,0,0,.55-.56C380.4,49.69,380.21,49.5,380,49.51Z"/><path class="cls-11" d="M386.68,44.59c1.76.56,2.92-.44,4.1-1.36a3.12,3.12,0,0,0,1.3-2.23c0-.25.11-.39.42-.4A22.68,22.68,0,0,1,403,42.4a7.15,7.15,0,0,1,4.4,5.17,6.16,6.16,0,0,1-2,6.35,5.36,5.36,0,0,1-6.91-.33,5.12,5.12,0,0,1-1.74-2.65,2,2,0,0,1,.31-1.61,5.76,5.76,0,0,0,.58-5,2,2,0,0,0-2.32-1.36A6.3,6.3,0,0,0,389.76,49,10.47,10.47,0,0,0,392,56.28a21.47,21.47,0,0,0,8.6,6.85,17.92,17.92,0,0,1,4.88,3,7.6,7.6,0,0,1,1.08,9.74,8.6,8.6,0,0,1-4.41,2.82,28.7,28.7,0,0,1-6.44,1.13,22.05,22.05,0,0,1-9.57-1.11,11.74,11.74,0,0,1-4.54-2.67,6.76,6.76,0,0,1,.2-9.21,5.43,5.43,0,0,1,6.87-.07c.22.18.44.36.64.56,1.5,1.59,1.67,2.78.65,4.76-.83,1.61-.36,4.83,2,5.42a4.43,4.43,0,0,0,5.19-2.28,8.24,8.24,0,0,0-3.23-10.68,33.46,33.46,0,0,0-5.05-2.24,20.23,20.23,0,0,1-5.56-3,8.75,8.75,0,0,1-2.47-3.18c-.07-.16-.28-.35.07-.49,1.9-.77,2.17-2.23,2-3.91a14.66,14.66,0,0,0-.25-1.5c0-.2-.07-.32.2-.33a3.15,3.15,0,0,0,2.27-1.23,5.82,5.82,0,0,0,1.62-2.66A4.8,4.8,0,0,0,386.68,44.59Z"/><path class="cls-11" d="M418,41.39a107.15,107.15,0,0,1,10.9.47A23.14,23.14,0,0,1,435,43.19a4.92,4.92,0,0,1,1.36.8,2,2,0,0,1,.7,1.65,19.94,19.94,0,0,1-.34,3.93,4.38,4.38,0,0,1-.48,1.26,1.45,1.45,0,0,1-2.08.62,10,10,0,0,1-2.43-2A47.64,47.64,0,0,0,427,45.09a7.27,7.27,0,0,0-2.71-1.35A3.09,3.09,0,0,0,420.9,45a11.18,11.18,0,0,0-1.61,3.89,26.61,26.61,0,0,0-.88,6.7,5.33,5.33,0,0,0,.44,2.09,1.89,1.89,0,0,0,1.92,1.22c2.05-.11,4.1-.26,6.15-.39l2-.14a1.24,1.24,0,0,1,1.3.89,3.78,3.78,0,0,1-.06,3,1.19,1.19,0,0,1-1.38.72l-4.61-.53c-.82-.09-1.64-.2-2.47-.26A2.32,2.32,0,0,0,419,64.48a9.51,9.51,0,0,0,.23,3.76,19.22,19.22,0,0,0,2.25,5.81,4,4,0,0,0,3.74,2.2,4.27,4.27,0,0,0,2-.74,19.1,19.1,0,0,0,3.59-3.25,30.39,30.39,0,0,1,2.62-2.58l.13-.11c1.44-1.06,2.57-.71,3.09,1a14.9,14.9,0,0,1,.46,4.93,1.66,1.66,0,0,1-.77,1.21,9.28,9.28,0,0,1-3.76,1.47,50.22,50.22,0,0,1-8.3.93c-3,.14-6,.14-9,.08a8.84,8.84,0,0,1-4.38-1.12,3.39,3.39,0,0,1-1.56-4.67c1-2.24,2-4.44,3-6.7a15.66,15.66,0,0,0,1.3-8.16A28.11,28.11,0,0,0,412,52.48c-.87-2.29-1.79-4.56-2.69-6.83s-.26-3.47,2.2-3.93a29.92,29.92,0,0,1,5.18-.33Z"/><path class="cls-11" d="M392.1,38.28a.83.83,0,0,1-.86.79.81.81,0,0,1-.77-.81.83.83,0,0,1,.82-.82A.84.84,0,0,1,392.1,38.28Z"/><path class="cls-11" d="M380.27,45.66a.8.8,0,1,1-1.6,0,.75.75,0,0,1,.83-.79A.74.74,0,0,1,380.27,45.66Z"/><path class="cls-11" d="M388.29,39.57a.53.53,0,0,1,.54.54.55.55,0,1,1-.54-.54Z"/><path class="cls-11" d="M380,49.51c.2,0,.39.18.41.5a.49.49,0,0,1-.55.56.48.48,0,0,1-.52-.53C379.35,49.71,379.53,49.53,380,49.51Z"/><text class="cls-12" transform="translate(303.27 155.36)">Introducing<tspan class="cls-13"><tspan x="-54.28" y="87.66">SkiiiEatz</tspan></tspan></text></svg>