<svg xmlns="http://www.w3.org/2000/svg" xmlns:xlink="http://www.w3.org/1999/xlink" width="395" height="165" viewBox="0 0 395 165">
  <defs>
    <clipPath id="clip-path">
      <rect id="Rectangle_7" data-name="Rectangle 7" width="395" height="165" rx="35" transform="translate(18 101)" fill="#fff" stroke="#707070" stroke-width="1"/>
    </clipPath>
  </defs>
  <g id="Mask_Group_1" data-name="Mask Group 1" transform="translate(-18 -101)" clip-path="url(#clip-path)">
    <g id="Rectangle_6" data-name="Rectangle 6" transform="translate(19 101)" fill="#f4a21b" stroke="#707070" stroke-width="1">
      <rect width="395" height="165" rx="35" stroke="none"/>
      <rect x="0.5" y="0.5" width="394" height="164" rx="34.5" fill="none"/>
    </g>
    <path id="Path_3" data-name="Path 3" d="M53.215,350.223a16.417,16.417,0,0,0-9.775,3.208,21.7,21.7,0,0,0-40.16-.278,16.488,16.488,0,0,0-15.606-1.724A16.488,16.488,0,0,0-22.3,363.554H69.392A16.488,16.488,0,0,0,53.215,350.223Z" transform="translate(25.944 -206.565)" fill="#fff" opacity="0.5"/>
    <path id="Path_2" data-name="Path 2" d="M772.266,539.4a4.894,4.894,0,0,0-2.907.942,6.459,6.459,0,0,0-11.947-.08,4.9,4.9,0,0,0-7.613,3.095h27.29A4.918,4.918,0,0,0,772.266,539.4Z" transform="translate(-730.8 -301.156)" fill="#fff" opacity="0.5"/>
    <path id="Path_1" data-name="Path 1" d="M161.148,373.643a14.3,14.3,0,0,0-8.517,2.8,18.9,18.9,0,0,0-34.973-.245A14.378,14.378,0,0,0,95.37,385.26h79.863A14.378,14.378,0,0,0,161.148,373.643Z" transform="translate(267.406 -171.218)" fill="#fff" opacity="0.5"/>
    <g id="Group_1" data-name="Group 1" transform="translate(100.418 -409.877)">
      <path id="Path_7" data-name="Path 7" d="M269.511,325.1l-2.27-3.668-3.892-1.862,3.668-2.27,1.866-3.892,2.27,3.668,3.888,1.866-3.668,2.27Z" transform="translate(-96.494 222.131)" fill="#fff"/>
      <rect id="Rectangle_2" data-name="Rectangle 2" width="21.568" height="168.742" rx="10.07" transform="translate(202.516 529.216)" fill="#70480f"/>
      <rect id="Rectangle_3" data-name="Rectangle 3" width="122.485" height="32.933" rx="16.467" transform="translate(153.11 594.824) rotate(2.16)" fill="#7f69b0" stroke="#fff" stroke-miterlimit="10" stroke-width="8.39"/>
      <text id="Pharmacies" transform="translate(173.678 615.557) rotate(2.16)" fill="#fff" font-size="12" font-family="Poppins-Bold, Poppins" font-weight="700"><tspan x="0" y="0">Pharmacies</tspan></text>
      <circle id="Ellipse_1" data-name="Ellipse 1" cx="2.356" cy="2.356" r="2.356" transform="translate(163.471 608.877)" fill="#f2a21c" stroke="#fff" stroke-miterlimit="10" stroke-width="8.39"/>
      <rect id="Rectangle_4" data-name="Rectangle 4" width="122.485" height="32.933" rx="16.467" transform="translate(151.344 562.029) rotate(-4.47)" fill="#f2a21c" stroke="#fff" stroke-miterlimit="10" stroke-width="8.39"/>
      <circle id="Ellipse_2" data-name="Ellipse 2" cx="2.356" cy="2.356" r="2.356" transform="translate(162.51 575.056)" fill="#f2a21c" stroke="#fff" stroke-miterlimit="10" stroke-width="8.39"/>
      <text id="Restaurants" transform="translate(173.437 579.938) rotate(-4.574)" fill="#fff" font-size="12" font-family="Poppins-Bold, Poppins" font-weight="700"><tspan x="0" y="0">Restaurants</tspan></text>
      <rect id="Rectangle_5" data-name="Rectangle 5" width="122.485" height="32.933" rx="16.467" transform="translate(150.582 660.092) rotate(-20.78)" fill="#b98f50" stroke="#fff" stroke-miterlimit="10" stroke-width="8.39"/>
      <circle id="Ellipse_3" data-name="Ellipse 3" cx="2.356" cy="2.356" r="2.356" transform="translate(169.109 667.758)" fill="#f2a21c" stroke="#fff" stroke-miterlimit="10" stroke-width="8.39"/>
      <text id="Apartments" transform="translate(179.899 669.82) rotate(-20.78)" fill="#fff" font-size="12" font-family="Poppins-Bold, Poppins" font-weight="700"><tspan x="0" y="0">Apartments</tspan></text>
    </g>
    <g id="Group_2" data-name="Group 2" transform="translate(-26.629 -284.886)">
      <path id="Path_9" data-name="Path 9" d="M387.94,56.5H375.381a5.333,5.333,0,0,1-5.144-4.555,6.968,6.968,0,0,1-.047-.824V26.189a5.328,5.328,0,0,1,4.57-5.182,6.525,6.525,0,0,1,.8-.047h24.9a5.323,5.323,0,0,1,5.182,4.588,5.519,5.519,0,0,1,.047.74V51.255a5.328,5.328,0,0,1-4.57,5.182,6.082,6.082,0,0,1-.773.052Zm-9.982-24.407a2.261,2.261,0,0,1,.042.7,2.742,2.742,0,0,1-.763,1.253,1.484,1.484,0,0,1-1.069.594c-.127,0-.108.061-.094.155a6.916,6.916,0,0,1,.118.707,1.559,1.559,0,0,1-.942,1.842c-.165.066-.066.155-.033.231a4.122,4.122,0,0,0,1.164,1.5A9.53,9.53,0,0,0,379,40.486a15.764,15.764,0,0,1,2.379,1.055,3.882,3.882,0,0,1,1.522,5.031,2.087,2.087,0,0,1-2.436,1.041,1.841,1.841,0,0,1-.942-2.553,1.655,1.655,0,0,0-.306-2.242c-.094-.094-.2-.179-.3-.264a2.558,2.558,0,0,0-3.236.033,3.185,3.185,0,0,0-.094,4.339,5.53,5.53,0,0,0,2.139,1.258,10.388,10.388,0,0,0,4.508.523,13.52,13.52,0,0,0,3.034-.532,4.051,4.051,0,0,0,2.077-1.328,3.58,3.58,0,0,0-.509-4.588,8.442,8.442,0,0,0-2.3-1.413,10.114,10.114,0,0,1-4.051-3.227,4.932,4.932,0,0,1-1.074-3.448,2.968,2.968,0,0,1,2.624-2.864.942.942,0,0,1,1.093.641,2.713,2.713,0,0,1-.273,2.355.942.942,0,0,0-.146.758,2.412,2.412,0,0,0,.82,1.248,2.525,2.525,0,0,0,3.255.155,2.9,2.9,0,0,0,.942-2.991,3.368,3.368,0,0,0-2.078-2.412,10.684,10.684,0,0,0-4.937-.848c-.146,0-.184.071-.2.188a1.47,1.47,0,0,1-.612,1.051C379.334,31.884,378.787,32.356,377.958,32.092ZM392.7,30.584h-.612a14.1,14.1,0,0,0-2.44.155c-1.159.217-1.47.768-1.036,1.851s.857,2.139,1.267,3.218a13.24,13.24,0,0,1,.735,2.855A7.377,7.377,0,0,1,390,42.507c-.448,1.065-.942,2.1-1.413,3.156a1.6,1.6,0,0,0,.735,2.2,4.164,4.164,0,0,0,2.063.528c1.413.028,2.827.028,4.24-.038a23.658,23.658,0,0,0,3.91-.438,4.372,4.372,0,0,0,1.771-.692.782.782,0,0,0,.363-.57,7.019,7.019,0,0,0-.217-2.322c-.245-.806-.777-.97-1.456-.471l-.061.052a14.315,14.315,0,0,0-1.234,1.215,9,9,0,0,1-1.691,1.531,2.011,2.011,0,0,1-.942.349,1.884,1.884,0,0,1-1.762-1.036,9.055,9.055,0,0,1-1.06-2.737,4.48,4.48,0,0,1-.108-1.771,1.093,1.093,0,0,1,1.3-1.055c.391.028.777.08,1.164.122l2.172.25a.561.561,0,0,0,.65-.339,1.781,1.781,0,0,0,.028-1.413.584.584,0,0,0-.612-.419l-.942.066c-.966.061-1.931.132-2.9.184a.89.89,0,0,1-.9-.575,2.511,2.511,0,0,1-.207-.985,12.536,12.536,0,0,1,.415-3.156,5.267,5.267,0,0,1,.773-1.856,1.456,1.456,0,0,1,1.611-.608,3.425,3.425,0,0,1,1.262.65,22.443,22.443,0,0,1,2.233,2.049,4.711,4.711,0,0,0,1.145.942.683.683,0,0,0,.98-.292,2.062,2.062,0,0,0,.226-.594,9.394,9.394,0,0,0,.16-1.851.942.942,0,0,0-.33-.777,2.318,2.318,0,0,0-.641-.377,10.9,10.9,0,0,0-2.9-.627,50.477,50.477,0,0,0-5.111-.217Zm-12.192-1.465a.4.4,0,0,0-.382-.4.391.391,0,0,0-.386.386.382.382,0,0,0,.363.382.391.391,0,0,0,.405-.372ZM374.938,32.6a.349.349,0,0,0-.363-.367.353.353,0,0,0-.391.372.377.377,0,0,0,.754,0Zm3.769-2.869a.254.254,0,1,0,.254.254.25.25,0,0,0-.245-.254Zm-3.9,4.683c-.226,0-.311.094-.311.25a.226.226,0,0,0,.245.25.231.231,0,0,0,.259-.264C375,34.494,374.91,34.4,374.811,34.409Z" transform="translate(-146.309 379.414)" fill="#f4a21b"/>
      <path id="Path_10" data-name="Path 10" d="M383.087,42.452c.829.264,1.376-.207,1.931-.641a1.47,1.47,0,0,0,.612-1.051c0-.118.052-.184.2-.188a10.684,10.684,0,0,1,4.946.848,3.368,3.368,0,0,1,2.073,2.436,2.9,2.9,0,0,1-.942,2.991,2.525,2.525,0,0,1-3.255-.155,2.412,2.412,0,0,1-.82-1.248.942.942,0,0,1,.146-.758,2.713,2.713,0,0,0,.273-2.355.942.942,0,0,0-1.093-.641,2.968,2.968,0,0,0-2.619,2.841,4.932,4.932,0,0,0,1.055,3.43,10.114,10.114,0,0,0,4.051,3.227,8.441,8.441,0,0,1,2.3,1.413,3.58,3.58,0,0,1,.509,4.588,4.051,4.051,0,0,1-2.077,1.328,13.52,13.52,0,0,1-3.034.532,10.387,10.387,0,0,1-4.508-.523,5.531,5.531,0,0,1-2.139-1.258,3.185,3.185,0,0,1,.094-4.339,2.558,2.558,0,0,1,3.236-.033c.1.085.207.17.3.264a1.647,1.647,0,0,1,.306,2.242c-.391.758-.17,2.275.942,2.553a2.087,2.087,0,0,0,2.445-1.074,3.882,3.882,0,0,0-1.522-5.031,15.76,15.76,0,0,0-2.379-1.055,9.53,9.53,0,0,1-2.619-1.413,4.122,4.122,0,0,1-1.164-1.5c-.033-.075-.132-.165.033-.231a1.541,1.541,0,0,0,.942-1.842,6.916,6.916,0,0,0-.118-.707c0-.094-.033-.151.094-.155a1.484,1.484,0,0,0,1.069-.579,2.742,2.742,0,0,0,.763-1.253A2.261,2.261,0,0,0,383.087,42.452Z" transform="translate(-151.437 369.053)" fill="#070706"/>
      <path id="Path_11" data-name="Path 11" d="M413.2,41.386a50.478,50.478,0,0,1,5.135.221,10.9,10.9,0,0,1,2.874.627,2.318,2.318,0,0,1,.641.377.942.942,0,0,1,.33.777,9.394,9.394,0,0,1-.16,1.851,2.063,2.063,0,0,1-.226.594.683.683,0,0,1-.98.292,4.711,4.711,0,0,1-1.145-.942,22.445,22.445,0,0,0-2.228-2.054,3.425,3.425,0,0,0-1.277-.636,1.456,1.456,0,0,0-1.6.594,5.267,5.267,0,0,0-.758,1.833,12.538,12.538,0,0,0-.415,3.156,2.511,2.511,0,0,0,.207.985.89.89,0,0,0,.9.575c.966-.052,1.931-.122,2.9-.184l.942-.066a.584.584,0,0,1,.612.419,1.781,1.781,0,0,1-.028,1.413.561.561,0,0,1-.65.339l-2.172-.25c-.386-.042-.773-.094-1.164-.122a1.093,1.093,0,0,0-1.272,1.079,4.48,4.48,0,0,0,.108,1.771,9.054,9.054,0,0,0,1.06,2.737,1.884,1.884,0,0,0,1.762,1.036,2.012,2.012,0,0,0,.942-.349,9,9,0,0,0,1.691-1.531,14.32,14.32,0,0,1,1.234-1.215l.061-.052c.678-.5,1.211-.334,1.456.471a7.02,7.02,0,0,1,.217,2.322.782.782,0,0,1-.363.57,4.372,4.372,0,0,1-1.771.692,23.658,23.658,0,0,1-3.91.438c-1.413.066-2.827.066-4.24.038a4.164,4.164,0,0,1-2.063-.528,1.6,1.6,0,0,1-.735-2.2c.471-1.055.942-2.092,1.413-3.156a7.377,7.377,0,0,0,.612-3.844,13.244,13.244,0,0,0-.773-2.855c-.41-1.079-.843-2.148-1.267-3.218s-.122-1.635,1.036-1.851a14.094,14.094,0,0,1,2.44-.155Z" transform="translate(-166.795 368.612)" fill="#070706"/>
      <path id="Path_12" data-name="Path 12" d="M391.238,37.836a.391.391,0,0,1-.405.372.382.382,0,0,1-.363-.382.391.391,0,0,1,.386-.386.4.4,0,0,1,.382.4Z" transform="translate(-157.035 370.697)" fill="#070706"/>
      <path id="Path_13" data-name="Path 13" d="M379.423,45.24a.377.377,0,1,1-.754,0,.353.353,0,0,1,.391-.372.349.349,0,0,1,.363.372Z" transform="translate(-150.793 366.77)" fill="#070706"/>
      <path id="Path_14" data-name="Path 14" d="M387.994,39.57a.25.25,0,0,1,.254.254.259.259,0,1,1-.254-.254Z" transform="translate(-155.586 369.571)" fill="#070706"/>
      <path id="Path_15" data-name="Path 15" d="M379.649,49.51c.094,0,.184.085.193.236a.231.231,0,0,1-.259.264.226.226,0,0,1-.245-.25C379.343,49.6,379.428,49.519,379.649,49.51Z" transform="translate(-151.147 364.313)" fill="#070706"/>
    </g>
    <g id="Group" transform="translate(49.49 159.233)">
      <text id="Welcome_to" data-name="Welcome to" transform="translate(1 25)" fill="#fff" font-size="16" font-family="Poppins-Regular, Poppins"><tspan x="0" y="0">Welcome to</tspan></text>
      <text id="SkiiiEatz" transform="translate(0 58.452)" fill="#fff" font-size="34" font-family="Poppins-Bold, Poppins" font-weight="700"><tspan x="0" y="0">SkiiiEatz</tspan></text>
    </g>
  </g>
</svg>
